G04 #@! TF.GenerationSoftware,KiCad,Pcbnew,7.0.5-0*
G04 #@! TF.CreationDate,2023-05-30T07:39:27+09:00*
G04 #@! TF.ProjectId,LDR6321_PD_Decoy,4c445236-3332-4315-9f50-445f4465636f,0.5*
G04 #@! TF.SameCoordinates,Original*
G04 #@! TF.FileFunction,Soldermask,Top*
G04 #@! TF.FilePolarity,Negative*
%FSLAX46Y46*%
G04 Gerber Fmt 4.6, Leading zero omitted, Abs format (unit mm)*
G04 Created by KiCad (PCBNEW 7.0.5-0) date 2023-05-30 07:39:27*
%MOMM*%
%LPD*%
G01*
G04 APERTURE LIST*
G04 Aperture macros list*
%AMRoundRect*
0 Rectangle with rounded corners*
0 $1 Rounding radius*
0 $2 $3 $4 $5 $6 $7 $8 $9 X,Y pos of 4 corners*
0 Add a 4 corners polygon primitive as box body*
4,1,4,$2,$3,$4,$5,$6,$7,$8,$9,$2,$3,0*
0 Add four circle primitives for the rounded corners*
1,1,$1+$1,$2,$3*
1,1,$1+$1,$4,$5*
1,1,$1+$1,$6,$7*
1,1,$1+$1,$8,$9*
0 Add four rect primitives between the rounded corners*
20,1,$1+$1,$2,$3,$4,$5,0*
20,1,$1+$1,$4,$5,$6,$7,0*
20,1,$1+$1,$6,$7,$8,$9,0*
20,1,$1+$1,$8,$9,$2,$3,0*%
G04 Aperture macros list end*
%ADD10RoundRect,0.200000X-0.200000X-0.275000X0.200000X-0.275000X0.200000X0.275000X-0.200000X0.275000X0*%
%ADD11C,2.200000*%
%ADD12R,3.000000X3.000000*%
%ADD13C,3.000000*%
%ADD14RoundRect,0.250000X-0.850000X-0.350000X0.850000X-0.350000X0.850000X0.350000X-0.850000X0.350000X0*%
%ADD15RoundRect,0.249997X-2.950003X-2.650003X2.950003X-2.650003X2.950003X2.650003X-2.950003X2.650003X0*%
%ADD16RoundRect,0.225000X-0.225000X-0.250000X0.225000X-0.250000X0.225000X0.250000X-0.225000X0.250000X0*%
%ADD17RoundRect,0.218750X0.218750X0.256250X-0.218750X0.256250X-0.218750X-0.256250X0.218750X-0.256250X0*%
%ADD18RoundRect,0.225000X-0.250000X0.225000X-0.250000X-0.225000X0.250000X-0.225000X0.250000X0.225000X0*%
%ADD19RoundRect,0.200000X0.275000X-0.200000X0.275000X0.200000X-0.275000X0.200000X-0.275000X-0.200000X0*%
%ADD20RoundRect,0.200000X-0.275000X0.200000X-0.275000X-0.200000X0.275000X-0.200000X0.275000X0.200000X0*%
%ADD21RoundRect,0.100000X0.637500X0.100000X-0.637500X0.100000X-0.637500X-0.100000X0.637500X-0.100000X0*%
%ADD22R,1.700000X1.700000*%
%ADD23O,1.700000X1.700000*%
%ADD24RoundRect,0.200000X0.200000X0.275000X-0.200000X0.275000X-0.200000X-0.275000X0.200000X-0.275000X0*%
%ADD25R,1.600000X2.400000*%
%ADD26O,1.600000X2.400000*%
%ADD27RoundRect,0.250000X0.650000X-1.000000X0.650000X1.000000X-0.650000X1.000000X-0.650000X-1.000000X0*%
%ADD28C,0.650000*%
%ADD29R,1.450000X0.600000*%
%ADD30R,1.450000X0.300000*%
%ADD31O,2.100000X1.000000*%
%ADD32O,1.600000X1.000000*%
%ADD33RoundRect,0.225000X0.225000X0.250000X-0.225000X0.250000X-0.225000X-0.250000X0.225000X-0.250000X0*%
G04 APERTURE END LIST*
D10*
X124778000Y-78473000D03*
X126428000Y-78473000D03*
D11*
X156270000Y-66040000D03*
D12*
X155000000Y-73660000D03*
D13*
X155000000Y-78740000D03*
D11*
X156270000Y-86360000D03*
D10*
X150813000Y-85344000D03*
X152463000Y-85344000D03*
D14*
X118023000Y-68713000D03*
D15*
X124323000Y-70993000D03*
D14*
X118023000Y-73273000D03*
D16*
X117970000Y-75438000D03*
X119520000Y-75438000D03*
D17*
X152552500Y-82550000D03*
X150977500Y-82550000D03*
D18*
X119634000Y-83794000D03*
X119634000Y-85344000D03*
D19*
X144526000Y-77152000D03*
X144526000Y-75502000D03*
D10*
X119825000Y-82169000D03*
X121475000Y-82169000D03*
D19*
X141986000Y-77152000D03*
X141986000Y-75502000D03*
D20*
X122809000Y-84900000D03*
X122809000Y-86550000D03*
D21*
X130370500Y-84441000D03*
X130370500Y-83791000D03*
X130370500Y-83141000D03*
X130370500Y-82491000D03*
X130370500Y-81841000D03*
X130370500Y-81191000D03*
X130370500Y-80541000D03*
X130370500Y-79891000D03*
X124645500Y-79891000D03*
X124645500Y-80541000D03*
X124645500Y-81191000D03*
X124645500Y-81841000D03*
X124645500Y-82491000D03*
X124645500Y-83141000D03*
X124645500Y-83791000D03*
X124645500Y-84441000D03*
D18*
X121285000Y-84950000D03*
X121285000Y-86500000D03*
X115824000Y-68440000D03*
X115824000Y-69990000D03*
D22*
X148391000Y-68834000D03*
D23*
X150931000Y-68834000D03*
D11*
X104200000Y-86360000D03*
D24*
X130238000Y-78473000D03*
X128588000Y-78473000D03*
X134048000Y-81521000D03*
X132398000Y-81521000D03*
X126428000Y-76949000D03*
X124778000Y-76949000D03*
D25*
X147066000Y-79375000D03*
D26*
X144526000Y-79375000D03*
X141986000Y-79375000D03*
X139446000Y-79375000D03*
X139446000Y-86995000D03*
X141986000Y-86995000D03*
X144526000Y-86995000D03*
X147066000Y-86995000D03*
D10*
X119825000Y-80645000D03*
X121475000Y-80645000D03*
D27*
X115189000Y-84550000D03*
X115189000Y-80550000D03*
D19*
X131699000Y-71564000D03*
X131699000Y-69914000D03*
D10*
X132398000Y-78473000D03*
X134048000Y-78473000D03*
D19*
X131699000Y-74739000D03*
X131699000Y-73089000D03*
D11*
X104200000Y-66040000D03*
D28*
X108324000Y-73310000D03*
X108324000Y-79090000D03*
D29*
X109769000Y-72950000D03*
X109769000Y-73750000D03*
D30*
X109769000Y-74950000D03*
X109769000Y-75950000D03*
X109769000Y-76450000D03*
X109769000Y-77450000D03*
D29*
X109769000Y-78650000D03*
X109769000Y-79450000D03*
X109769000Y-79450000D03*
X109769000Y-78650000D03*
D30*
X109769000Y-77950000D03*
X109769000Y-76950000D03*
X109769000Y-75450000D03*
X109769000Y-74450000D03*
D29*
X109769000Y-73750000D03*
X109769000Y-72950000D03*
D31*
X108854000Y-71880000D03*
D32*
X104674000Y-71880000D03*
D31*
X108854000Y-80520000D03*
D32*
X104674000Y-80520000D03*
D18*
X118110000Y-83794000D03*
X118110000Y-85344000D03*
D33*
X112916000Y-69469000D03*
X111366000Y-69469000D03*
D19*
X147066000Y-77152000D03*
X147066000Y-75502000D03*
D10*
X132398000Y-79997000D03*
X134048000Y-79997000D03*
M02*
