G04 #@! TF.GenerationSoftware,KiCad,Pcbnew,7.0.5-0*
G04 #@! TF.CreationDate,2023-05-30T07:39:27+09:00*
G04 #@! TF.ProjectId,LDR6321_PD_Decoy,4c445236-3332-4315-9f50-445f4465636f,0.5*
G04 #@! TF.SameCoordinates,Original*
G04 #@! TF.FileFunction,Copper,L1,Top*
G04 #@! TF.FilePolarity,Positive*
%FSLAX46Y46*%
G04 Gerber Fmt 4.6, Leading zero omitted, Abs format (unit mm)*
G04 Created by KiCad (PCBNEW 7.0.5-0) date 2023-05-30 07:39:27*
%MOMM*%
%LPD*%
G01*
G04 APERTURE LIST*
G04 Aperture macros list*
%AMRoundRect*
0 Rectangle with rounded corners*
0 $1 Rounding radius*
0 $2 $3 $4 $5 $6 $7 $8 $9 X,Y pos of 4 corners*
0 Add a 4 corners polygon primitive as box body*
4,1,4,$2,$3,$4,$5,$6,$7,$8,$9,$2,$3,0*
0 Add four circle primitives for the rounded corners*
1,1,$1+$1,$2,$3*
1,1,$1+$1,$4,$5*
1,1,$1+$1,$6,$7*
1,1,$1+$1,$8,$9*
0 Add four rect primitives between the rounded corners*
20,1,$1+$1,$2,$3,$4,$5,0*
20,1,$1+$1,$4,$5,$6,$7,0*
20,1,$1+$1,$6,$7,$8,$9,0*
20,1,$1+$1,$8,$9,$2,$3,0*%
G04 Aperture macros list end*
G04 #@! TA.AperFunction,SMDPad,CuDef*
%ADD10RoundRect,0.200000X-0.200000X-0.275000X0.200000X-0.275000X0.200000X0.275000X-0.200000X0.275000X0*%
G04 #@! TD*
G04 #@! TA.AperFunction,ComponentPad*
%ADD11R,3.000000X3.000000*%
G04 #@! TD*
G04 #@! TA.AperFunction,ComponentPad*
%ADD12C,3.000000*%
G04 #@! TD*
G04 #@! TA.AperFunction,SMDPad,CuDef*
%ADD13RoundRect,0.250000X-0.850000X-0.350000X0.850000X-0.350000X0.850000X0.350000X-0.850000X0.350000X0*%
G04 #@! TD*
G04 #@! TA.AperFunction,SMDPad,CuDef*
%ADD14RoundRect,0.250000X-1.275000X-1.125000X1.275000X-1.125000X1.275000X1.125000X-1.275000X1.125000X0*%
G04 #@! TD*
G04 #@! TA.AperFunction,SMDPad,CuDef*
%ADD15RoundRect,0.249997X-2.950003X-2.650003X2.950003X-2.650003X2.950003X2.650003X-2.950003X2.650003X0*%
G04 #@! TD*
G04 #@! TA.AperFunction,SMDPad,CuDef*
%ADD16RoundRect,0.225000X-0.225000X-0.250000X0.225000X-0.250000X0.225000X0.250000X-0.225000X0.250000X0*%
G04 #@! TD*
G04 #@! TA.AperFunction,SMDPad,CuDef*
%ADD17RoundRect,0.218750X0.218750X0.256250X-0.218750X0.256250X-0.218750X-0.256250X0.218750X-0.256250X0*%
G04 #@! TD*
G04 #@! TA.AperFunction,SMDPad,CuDef*
%ADD18RoundRect,0.225000X-0.250000X0.225000X-0.250000X-0.225000X0.250000X-0.225000X0.250000X0.225000X0*%
G04 #@! TD*
G04 #@! TA.AperFunction,SMDPad,CuDef*
%ADD19RoundRect,0.200000X0.275000X-0.200000X0.275000X0.200000X-0.275000X0.200000X-0.275000X-0.200000X0*%
G04 #@! TD*
G04 #@! TA.AperFunction,SMDPad,CuDef*
%ADD20RoundRect,0.200000X-0.275000X0.200000X-0.275000X-0.200000X0.275000X-0.200000X0.275000X0.200000X0*%
G04 #@! TD*
G04 #@! TA.AperFunction,SMDPad,CuDef*
%ADD21RoundRect,0.100000X0.637500X0.100000X-0.637500X0.100000X-0.637500X-0.100000X0.637500X-0.100000X0*%
G04 #@! TD*
G04 #@! TA.AperFunction,ComponentPad*
%ADD22R,1.700000X1.700000*%
G04 #@! TD*
G04 #@! TA.AperFunction,ComponentPad*
%ADD23O,1.700000X1.700000*%
G04 #@! TD*
G04 #@! TA.AperFunction,SMDPad,CuDef*
%ADD24RoundRect,0.200000X0.200000X0.275000X-0.200000X0.275000X-0.200000X-0.275000X0.200000X-0.275000X0*%
G04 #@! TD*
G04 #@! TA.AperFunction,ComponentPad*
%ADD25R,1.600000X2.400000*%
G04 #@! TD*
G04 #@! TA.AperFunction,ComponentPad*
%ADD26O,1.600000X2.400000*%
G04 #@! TD*
G04 #@! TA.AperFunction,SMDPad,CuDef*
%ADD27RoundRect,0.250000X0.650000X-1.000000X0.650000X1.000000X-0.650000X1.000000X-0.650000X-1.000000X0*%
G04 #@! TD*
G04 #@! TA.AperFunction,SMDPad,CuDef*
%ADD28R,1.450000X0.600000*%
G04 #@! TD*
G04 #@! TA.AperFunction,SMDPad,CuDef*
%ADD29R,1.450000X0.300000*%
G04 #@! TD*
G04 #@! TA.AperFunction,ComponentPad*
%ADD30O,2.100000X1.000000*%
G04 #@! TD*
G04 #@! TA.AperFunction,ComponentPad*
%ADD31O,1.600000X1.000000*%
G04 #@! TD*
G04 #@! TA.AperFunction,SMDPad,CuDef*
%ADD32RoundRect,0.225000X0.225000X0.250000X-0.225000X0.250000X-0.225000X-0.250000X0.225000X-0.250000X0*%
G04 #@! TD*
G04 #@! TA.AperFunction,ViaPad*
%ADD33C,0.800000*%
G04 #@! TD*
G04 #@! TA.AperFunction,Conductor*
%ADD34C,0.400000*%
G04 #@! TD*
G04 #@! TA.AperFunction,Conductor*
%ADD35C,0.500000*%
G04 #@! TD*
G04 #@! TA.AperFunction,Conductor*
%ADD36C,0.250000*%
G04 #@! TD*
G04 #@! TA.AperFunction,Conductor*
%ADD37C,1.000000*%
G04 #@! TD*
G04 #@! TA.AperFunction,Conductor*
%ADD38C,0.700000*%
G04 #@! TD*
G04 #@! TA.AperFunction,Conductor*
%ADD39C,2.000000*%
G04 #@! TD*
G04 APERTURE END LIST*
D10*
X124778000Y-78473000D03*
X126428000Y-78473000D03*
D11*
X155000000Y-73660000D03*
D12*
X155000000Y-78740000D03*
D10*
X150813000Y-85344000D03*
X152463000Y-85344000D03*
D13*
X118023000Y-68713000D03*
D14*
X122648000Y-69468000D03*
X122648000Y-72518000D03*
D15*
X124323000Y-70993000D03*
D14*
X125998000Y-69468000D03*
X125998000Y-72518000D03*
D13*
X118023000Y-73273000D03*
D16*
X117970000Y-75438000D03*
X119520000Y-75438000D03*
D17*
X152552500Y-82550000D03*
X150977500Y-82550000D03*
D18*
X119634000Y-83794000D03*
X119634000Y-85344000D03*
D19*
X144526000Y-77152000D03*
X144526000Y-75502000D03*
D10*
X119825000Y-82169000D03*
X121475000Y-82169000D03*
D19*
X141986000Y-77152000D03*
X141986000Y-75502000D03*
D20*
X122809000Y-84900000D03*
X122809000Y-86550000D03*
D21*
X130370500Y-84441000D03*
X130370500Y-83791000D03*
X130370500Y-83141000D03*
X130370500Y-82491000D03*
X130370500Y-81841000D03*
X130370500Y-81191000D03*
X130370500Y-80541000D03*
X130370500Y-79891000D03*
X124645500Y-79891000D03*
X124645500Y-80541000D03*
X124645500Y-81191000D03*
X124645500Y-81841000D03*
X124645500Y-82491000D03*
X124645500Y-83141000D03*
X124645500Y-83791000D03*
X124645500Y-84441000D03*
D18*
X121285000Y-84950000D03*
X121285000Y-86500000D03*
X115824000Y-68440000D03*
X115824000Y-69990000D03*
D22*
X148391000Y-68834000D03*
D23*
X150931000Y-68834000D03*
D24*
X130238000Y-78473000D03*
X128588000Y-78473000D03*
X134048000Y-81521000D03*
X132398000Y-81521000D03*
X126428000Y-76949000D03*
X124778000Y-76949000D03*
D25*
X147066000Y-79375000D03*
D26*
X144526000Y-79375000D03*
X141986000Y-79375000D03*
X139446000Y-79375000D03*
X139446000Y-86995000D03*
X141986000Y-86995000D03*
X144526000Y-86995000D03*
X147066000Y-86995000D03*
D10*
X119825000Y-80645000D03*
X121475000Y-80645000D03*
D27*
X115189000Y-84550000D03*
X115189000Y-80550000D03*
D19*
X131699000Y-71564000D03*
X131699000Y-69914000D03*
D10*
X132398000Y-78473000D03*
X134048000Y-78473000D03*
D19*
X131699000Y-74739000D03*
X131699000Y-73089000D03*
D28*
X109769000Y-72950000D03*
X109769000Y-73750000D03*
D29*
X109769000Y-74950000D03*
X109769000Y-75950000D03*
X109769000Y-76450000D03*
X109769000Y-77450000D03*
D28*
X109769000Y-78650000D03*
X109769000Y-79450000D03*
X109769000Y-79450000D03*
X109769000Y-78650000D03*
D29*
X109769000Y-77950000D03*
X109769000Y-76950000D03*
X109769000Y-75450000D03*
X109769000Y-74450000D03*
D28*
X109769000Y-73750000D03*
X109769000Y-72950000D03*
D30*
X108854000Y-71880000D03*
D31*
X104674000Y-71880000D03*
D30*
X108854000Y-80520000D03*
D31*
X104674000Y-80520000D03*
D18*
X118110000Y-83794000D03*
X118110000Y-85344000D03*
D32*
X112916000Y-69469000D03*
X111366000Y-69469000D03*
D19*
X147066000Y-77152000D03*
X147066000Y-75502000D03*
D10*
X132398000Y-79997000D03*
X134048000Y-79997000D03*
D33*
X133350000Y-86360000D03*
X128905000Y-68580000D03*
X111379000Y-70612000D03*
X135890000Y-74930000D03*
X131826000Y-84515500D03*
X143891000Y-81788000D03*
X110490000Y-83820000D03*
X116205000Y-86995000D03*
X115824000Y-71120000D03*
X107950000Y-86360000D03*
X144780000Y-66040000D03*
X107950000Y-67310000D03*
X147320000Y-66040000D03*
X152400000Y-66040000D03*
X110490000Y-86360000D03*
X138430000Y-76200000D03*
X125730000Y-86360000D03*
X111506000Y-80137000D03*
X141224000Y-81661000D03*
X149860000Y-66040000D03*
X113665000Y-86995000D03*
X129540000Y-86360000D03*
X119888000Y-78105000D03*
X135890000Y-76200000D03*
X131699000Y-76962000D03*
X138430000Y-74930000D03*
X107950000Y-69850000D03*
X111379000Y-72009000D03*
X107950000Y-83820000D03*
X128905000Y-70485000D03*
X111566000Y-73660000D03*
X111566000Y-78740000D03*
X118618000Y-80645000D03*
X112836000Y-78645000D03*
X118110000Y-82296000D03*
X129032000Y-73025000D03*
X113559814Y-77399000D03*
X128307500Y-75692000D03*
X126365000Y-75692000D03*
X112836000Y-76674500D03*
X112836000Y-75184000D03*
X123317000Y-81153000D03*
X152527000Y-86868000D03*
D34*
X115824000Y-69990000D02*
X115824000Y-71120000D01*
X110744000Y-72009000D02*
X111379000Y-72009000D01*
X109803000Y-72950000D02*
X110744000Y-72009000D01*
X130370500Y-84441000D02*
X131751500Y-84441000D01*
X109769000Y-72950000D02*
X109803000Y-72950000D01*
X110819000Y-79450000D02*
X111506000Y-80137000D01*
X111366000Y-70599000D02*
X111379000Y-70612000D01*
X131751500Y-84441000D02*
X131826000Y-84515500D01*
X111366000Y-69469000D02*
X111366000Y-70599000D01*
X109769000Y-79450000D02*
X110819000Y-79450000D01*
D35*
X109769000Y-73750000D02*
X111476000Y-73750000D01*
X111476000Y-73750000D02*
X111566000Y-73660000D01*
D36*
X145034000Y-73660000D02*
X147888000Y-73660000D01*
D37*
X111651500Y-73660000D02*
X113429500Y-71882000D01*
D35*
X113893500Y-68284500D02*
X113429500Y-68748500D01*
D38*
X113738000Y-68440000D02*
X113429500Y-68748500D01*
D36*
X141288000Y-69914000D02*
X145034000Y-73660000D01*
D39*
X114360000Y-66040000D02*
X140268000Y-66040000D01*
D37*
X111566000Y-73660000D02*
X111651500Y-73660000D01*
D38*
X116097000Y-68713000D02*
X115824000Y-68440000D01*
X115824000Y-68440000D02*
X113738000Y-68440000D01*
D39*
X140268000Y-66040000D02*
X147888000Y-73660000D01*
D36*
X131699000Y-69914000D02*
X141288000Y-69914000D01*
D35*
X109769000Y-78650000D02*
X111476000Y-78650000D01*
D39*
X113429500Y-66970500D02*
X114360000Y-66040000D01*
X147888000Y-73660000D02*
X155000000Y-73660000D01*
X113429500Y-68748500D02*
X113429500Y-66970500D01*
X148391000Y-68834000D02*
X148391000Y-73157000D01*
D38*
X118023000Y-68713000D02*
X116097000Y-68713000D01*
D39*
X113429500Y-71882000D02*
X113429500Y-68748500D01*
D35*
X111476000Y-78650000D02*
X111566000Y-78740000D01*
D38*
X118023000Y-75385000D02*
X117970000Y-75438000D01*
X117970000Y-75438000D02*
X116459000Y-75438000D01*
X115189000Y-76708000D02*
X115189000Y-80550000D01*
X116459000Y-75438000D02*
X115189000Y-76708000D01*
X118023000Y-73273000D02*
X118023000Y-75385000D01*
D36*
X117809695Y-81571000D02*
X116405695Y-82975000D01*
X112810198Y-74184497D02*
X112070497Y-74924198D01*
X119825000Y-82169000D02*
X119227000Y-81571000D01*
X113792000Y-78613000D02*
X114284814Y-78120186D01*
X112836000Y-74184497D02*
X112810198Y-74184497D01*
X119227000Y-81571000D02*
X117809695Y-81571000D01*
X113665000Y-74184497D02*
X112836000Y-74184497D01*
X114284814Y-74804311D02*
X113665000Y-74184497D01*
X114284814Y-78120186D02*
X114284814Y-74804311D01*
X112070497Y-74950000D02*
X109769000Y-74950000D01*
X112070497Y-74924198D02*
X112070497Y-74950000D01*
X116405695Y-82975000D02*
X114002000Y-82975000D01*
X114002000Y-82975000D02*
X113792000Y-82765000D01*
X113792000Y-82765000D02*
X113792000Y-78613000D01*
X112836000Y-78645000D02*
X112141000Y-77950000D01*
X119825000Y-80645000D02*
X118618000Y-80645000D01*
X109769000Y-77950000D02*
X112141000Y-77950000D01*
X122809000Y-84900000D02*
X124186500Y-84900000D01*
X115208000Y-84569000D02*
X120904000Y-84569000D01*
X115189000Y-84550000D02*
X115208000Y-84569000D01*
X121285000Y-84950000D02*
X122759000Y-84950000D01*
X124645500Y-84441000D02*
X124186500Y-84900000D01*
X122759000Y-84950000D02*
X122809000Y-84900000D01*
X120904000Y-84569000D02*
X121285000Y-84950000D01*
X118885000Y-83019000D02*
X118110000Y-83794000D01*
X124645500Y-83141000D02*
X120777000Y-83141000D01*
X131699000Y-73089000D02*
X131635000Y-73025000D01*
X120655000Y-83019000D02*
X118885000Y-83019000D01*
X120777000Y-83141000D02*
X120655000Y-83019000D01*
X131699000Y-71564000D02*
X131699000Y-73089000D01*
X131635000Y-73025000D02*
X129032000Y-73025000D01*
X118110000Y-82296000D02*
X118110000Y-83794000D01*
X123718355Y-84016000D02*
X119856000Y-84016000D01*
X124645500Y-83791000D02*
X123943355Y-83791000D01*
X119856000Y-84016000D02*
X119634000Y-83794000D01*
X123943355Y-83791000D02*
X123718355Y-84016000D01*
X150813000Y-82714500D02*
X150977500Y-82550000D01*
X150813000Y-85344000D02*
X150813000Y-82714500D01*
X109769000Y-75950000D02*
X113340000Y-75950000D01*
X134048000Y-77025000D02*
X134048000Y-78473000D01*
X132715000Y-75692000D02*
X134048000Y-77025000D01*
X113561000Y-76171000D02*
X113561000Y-77397814D01*
X111833000Y-76975000D02*
X110296000Y-76975000D01*
X113340000Y-75950000D02*
X113561000Y-76171000D01*
X112257500Y-77399500D02*
X113559314Y-77399500D01*
X134048000Y-78473000D02*
X134048000Y-79997000D01*
X134048000Y-79997000D02*
X134048000Y-81521000D01*
X113561000Y-77397814D02*
X113559814Y-77399000D01*
X128307500Y-75692000D02*
X132715000Y-75692000D01*
X112257500Y-77399500D02*
X111833000Y-76975000D01*
X113559314Y-77399500D02*
X113559814Y-77399000D01*
X132398000Y-81521000D02*
X132078000Y-81841000D01*
X132078000Y-81841000D02*
X130370500Y-81841000D01*
X131059041Y-80541000D02*
X130370500Y-80541000D01*
X131433000Y-80167041D02*
X131059041Y-80541000D01*
X132398000Y-78473000D02*
X131433000Y-79438000D01*
X131433000Y-79438000D02*
X131433000Y-80167041D01*
X124645500Y-79891000D02*
X124645500Y-78605500D01*
X124645500Y-78605500D02*
X124778000Y-78473000D01*
X112836000Y-75184000D02*
X112570000Y-75450000D01*
X126428000Y-76949000D02*
X126428000Y-75755000D01*
X126428000Y-78473000D02*
X126428000Y-76949000D01*
X112570000Y-75450000D02*
X109769000Y-75450000D01*
X126428000Y-75755000D02*
X126365000Y-75692000D01*
X112836000Y-76674500D02*
X112611500Y-76450000D01*
X126428000Y-78473000D02*
X128588000Y-78473000D01*
X112611500Y-76450000D02*
X109769000Y-76450000D01*
X123965000Y-76949000D02*
X124778000Y-76949000D01*
X123583000Y-80167041D02*
X123583000Y-77331000D01*
X124645500Y-80541000D02*
X123956959Y-80541000D01*
X123583000Y-77331000D02*
X123965000Y-76949000D01*
X123956959Y-80541000D02*
X123583000Y-80167041D01*
X132398000Y-79997000D02*
X131204000Y-81191000D01*
X131204000Y-81191000D02*
X130370500Y-81191000D01*
X130238000Y-78473000D02*
X130238000Y-79758500D01*
X130238000Y-79758500D02*
X130370500Y-79891000D01*
X147066000Y-77152000D02*
X147066000Y-79375000D01*
X143383000Y-83791000D02*
X130370500Y-83791000D01*
X145941000Y-76627000D02*
X145941000Y-81233000D01*
X147066000Y-75502000D02*
X145941000Y-76627000D01*
X145941000Y-81233000D02*
X143383000Y-83791000D01*
X144526000Y-77152000D02*
X144526000Y-79375000D01*
X143401000Y-81008000D02*
X141268000Y-83141000D01*
X144526000Y-75502000D02*
X143401000Y-76627000D01*
X141268000Y-83141000D02*
X130370500Y-83141000D01*
X143401000Y-76627000D02*
X143401000Y-81008000D01*
X141986000Y-77152000D02*
X141986000Y-79375000D01*
X140748000Y-80867000D02*
X139124000Y-82491000D01*
X141986000Y-75502000D02*
X140748000Y-76740000D01*
X139124000Y-82491000D02*
X130370500Y-82491000D01*
X140748000Y-76740000D02*
X140748000Y-80867000D01*
X121797000Y-82491000D02*
X121475000Y-82169000D01*
X124645500Y-82491000D02*
X121797000Y-82491000D01*
X124645500Y-81841000D02*
X124608500Y-81878000D01*
X122708000Y-81878000D02*
X121475000Y-80645000D01*
X124608500Y-81878000D02*
X122708000Y-81878000D01*
X124645500Y-81191000D02*
X123355000Y-81191000D01*
X152527000Y-85408000D02*
X152463000Y-85344000D01*
X123355000Y-81191000D02*
X123317000Y-81153000D01*
X152527000Y-86868000D02*
X152527000Y-85408000D01*
G04 #@! TA.AperFunction,Conductor*
G36*
X144999108Y-81023268D02*
G01*
X145056971Y-81062430D01*
X145084475Y-81126658D01*
X145072889Y-81195561D01*
X145049033Y-81229061D01*
X143156914Y-83121181D01*
X143095591Y-83154666D01*
X143069233Y-83157500D01*
X142446766Y-83157500D01*
X142379727Y-83137815D01*
X142333972Y-83085011D01*
X142324028Y-83015853D01*
X142353053Y-82952297D01*
X142359085Y-82945819D01*
X142674020Y-82630884D01*
X143789815Y-81515087D01*
X143802180Y-81505183D01*
X143802006Y-81504973D01*
X143808012Y-81500003D01*
X143808018Y-81500000D01*
X143855364Y-81449580D01*
X143856635Y-81448267D01*
X143877135Y-81427769D01*
X143881458Y-81422195D01*
X143885257Y-81417747D01*
X143917585Y-81383322D01*
X143927420Y-81365432D01*
X143938098Y-81349174D01*
X143950614Y-81333040D01*
X143969374Y-81289686D01*
X143971935Y-81284458D01*
X143994695Y-81243060D01*
X143999774Y-81223274D01*
X144006072Y-81204882D01*
X144014181Y-81186145D01*
X144021568Y-81139498D01*
X144022752Y-81133782D01*
X144024581Y-81126658D01*
X144024972Y-81125134D01*
X144060704Y-81065096D01*
X144123225Y-81033905D01*
X144177165Y-81036188D01*
X144297913Y-81068543D01*
X144439086Y-81080894D01*
X144525998Y-81088498D01*
X144526000Y-81088498D01*
X144526002Y-81088498D01*
X144583139Y-81083499D01*
X144754087Y-81068543D01*
X144929260Y-81021605D01*
X144999108Y-81023268D01*
G37*
G04 #@! TD.AperFunction*
G04 #@! TA.AperFunction,Conductor*
G36*
X141514394Y-80998978D02*
G01*
X141519177Y-81001086D01*
X141536757Y-81009284D01*
X141757913Y-81068543D01*
X141899086Y-81080894D01*
X141985998Y-81088498D01*
X141986000Y-81088498D01*
X141986001Y-81088498D01*
X142003214Y-81086991D01*
X142127259Y-81076139D01*
X142195757Y-81089905D01*
X142245940Y-81138520D01*
X142261874Y-81206549D01*
X142238499Y-81272393D01*
X142225746Y-81287348D01*
X141041914Y-82471181D01*
X140980591Y-82504666D01*
X140954233Y-82507500D01*
X140302766Y-82507500D01*
X140235727Y-82487815D01*
X140189972Y-82435011D01*
X140180028Y-82365853D01*
X140209053Y-82302297D01*
X140215085Y-82295819D01*
X140673089Y-81837815D01*
X141136817Y-81374086D01*
X141149178Y-81364185D01*
X141149004Y-81363975D01*
X141155013Y-81359002D01*
X141155018Y-81359000D01*
X141202349Y-81308596D01*
X141203620Y-81307283D01*
X141224135Y-81286770D01*
X141228461Y-81281192D01*
X141232250Y-81276755D01*
X141264586Y-81242321D01*
X141274419Y-81224432D01*
X141285102Y-81208169D01*
X141297614Y-81192041D01*
X141316371Y-81148691D01*
X141318941Y-81143447D01*
X141321111Y-81139501D01*
X141341695Y-81102060D01*
X141346679Y-81082642D01*
X141382413Y-81022604D01*
X141444935Y-80991414D01*
X141514394Y-80998978D01*
G37*
G04 #@! TD.AperFunction*
G04 #@! TA.AperFunction,Conductor*
G36*
X120874514Y-67568185D02*
G01*
X120920269Y-67620989D01*
X120930213Y-67690147D01*
X120901188Y-67753703D01*
X120895156Y-67760181D01*
X120780683Y-67874653D01*
X120688642Y-68023874D01*
X120688640Y-68023879D01*
X120633494Y-68190301D01*
X120623000Y-68293011D01*
X120623000Y-69218000D01*
X128022999Y-69218000D01*
X128022999Y-68293028D01*
X128022998Y-68293013D01*
X128012827Y-68193448D01*
X128012741Y-68191761D01*
X128012505Y-68190300D01*
X127957359Y-68023879D01*
X127957357Y-68023874D01*
X127865316Y-67874653D01*
X127750844Y-67760181D01*
X127717359Y-67698858D01*
X127722343Y-67629166D01*
X127764215Y-67573233D01*
X127829679Y-67548816D01*
X127838525Y-67548500D01*
X139591797Y-67548500D01*
X139658836Y-67568185D01*
X139679478Y-67584819D01*
X141163478Y-69068819D01*
X141196963Y-69130142D01*
X141191979Y-69199834D01*
X141150107Y-69255767D01*
X141084643Y-69280184D01*
X141075797Y-69280500D01*
X132593833Y-69280500D01*
X132526794Y-69260815D01*
X132506156Y-69244185D01*
X132414155Y-69152184D01*
X132266913Y-69063173D01*
X132102649Y-69011987D01*
X132102647Y-69011986D01*
X132102645Y-69011986D01*
X132052667Y-69007444D01*
X132031265Y-69005500D01*
X132031262Y-69005500D01*
X131366727Y-69005500D01*
X131295354Y-69011985D01*
X131295344Y-69011988D01*
X131131090Y-69063171D01*
X130983841Y-69152186D01*
X130862186Y-69273841D01*
X130773173Y-69421086D01*
X130721986Y-69585354D01*
X130715500Y-69656737D01*
X130715500Y-70171272D01*
X130721985Y-70242645D01*
X130721988Y-70242655D01*
X130773171Y-70406909D01*
X130773172Y-70406911D01*
X130773173Y-70406913D01*
X130858161Y-70547500D01*
X130862186Y-70554158D01*
X130959347Y-70651319D01*
X130992832Y-70712642D01*
X130987848Y-70782334D01*
X130959347Y-70826681D01*
X130862187Y-70923840D01*
X130862186Y-70923841D01*
X130773173Y-71071086D01*
X130721986Y-71235354D01*
X130715500Y-71306737D01*
X130715500Y-71821272D01*
X130721985Y-71892645D01*
X130721988Y-71892655D01*
X130773171Y-72056909D01*
X130773172Y-72056911D01*
X130773173Y-72056913D01*
X130861698Y-72203351D01*
X130879534Y-72270905D01*
X130858016Y-72337378D01*
X130803976Y-72381666D01*
X130755581Y-72391500D01*
X129739309Y-72391500D01*
X129672270Y-72371815D01*
X129647160Y-72350473D01*
X129643254Y-72346135D01*
X129617171Y-72327184D01*
X129488752Y-72233882D01*
X129314288Y-72156206D01*
X129314286Y-72156205D01*
X129127487Y-72116500D01*
X128936513Y-72116500D01*
X128749714Y-72156205D01*
X128662479Y-72195043D01*
X128581980Y-72230885D01*
X128575246Y-72233883D01*
X128420745Y-72346135D01*
X128292959Y-72488057D01*
X128197473Y-72653443D01*
X128197470Y-72653449D01*
X128188091Y-72682318D01*
X128148654Y-72739993D01*
X128084295Y-72767192D01*
X128070160Y-72768000D01*
X126247999Y-72768000D01*
X126247999Y-74392998D01*
X126248000Y-74392999D01*
X127322974Y-74392999D01*
X127322988Y-74392998D01*
X127425699Y-74382505D01*
X127592120Y-74327359D01*
X127592125Y-74327357D01*
X127741346Y-74235316D01*
X127865316Y-74111346D01*
X127957357Y-73962125D01*
X127957359Y-73962120D01*
X128012505Y-73795698D01*
X128022999Y-73692988D01*
X128023000Y-73692975D01*
X128023000Y-73557133D01*
X128042685Y-73490094D01*
X128095489Y-73444339D01*
X128164647Y-73434395D01*
X128228203Y-73463420D01*
X128254385Y-73495130D01*
X128276523Y-73533474D01*
X128292960Y-73561944D01*
X128327435Y-73600233D01*
X128420747Y-73703866D01*
X128575248Y-73816118D01*
X128749712Y-73893794D01*
X128936513Y-73933500D01*
X129127487Y-73933500D01*
X129314288Y-73893794D01*
X129488752Y-73816118D01*
X129643253Y-73703866D01*
X129647159Y-73699527D01*
X129706646Y-73662879D01*
X129739309Y-73658500D01*
X130749536Y-73658500D01*
X130816575Y-73678185D01*
X130855652Y-73718350D01*
X130862184Y-73729155D01*
X130862185Y-73729156D01*
X130965358Y-73832329D01*
X130998843Y-73893652D01*
X130993859Y-73963344D01*
X130965359Y-74007691D01*
X130868926Y-74104124D01*
X130780980Y-74249604D01*
X130730409Y-74411893D01*
X130724000Y-74482427D01*
X130723999Y-74488999D01*
X130724000Y-74489000D01*
X132673998Y-74489000D01*
X132673999Y-74482417D01*
X132667591Y-74411897D01*
X132667590Y-74411892D01*
X132617018Y-74249603D01*
X132529072Y-74104122D01*
X132432641Y-74007691D01*
X132399156Y-73946368D01*
X132404140Y-73876676D01*
X132432640Y-73832330D01*
X132535816Y-73729155D01*
X132624827Y-73581913D01*
X132676013Y-73417649D01*
X132682500Y-73346265D01*
X132682499Y-72831736D01*
X132682499Y-72831735D01*
X132682499Y-72831727D01*
X132676014Y-72760354D01*
X132676011Y-72760344D01*
X132624828Y-72596090D01*
X132624827Y-72596089D01*
X132624827Y-72596087D01*
X132535816Y-72448845D01*
X132535814Y-72448843D01*
X132535813Y-72448841D01*
X132535812Y-72448839D01*
X132501152Y-72414179D01*
X132467667Y-72352856D01*
X132472653Y-72283164D01*
X132501154Y-72238817D01*
X132510878Y-72229093D01*
X132535816Y-72204155D01*
X132624827Y-72056913D01*
X132676013Y-71892649D01*
X132682500Y-71821265D01*
X132682499Y-71306736D01*
X132682499Y-71306735D01*
X132682499Y-71306727D01*
X132676014Y-71235354D01*
X132676011Y-71235344D01*
X132624828Y-71071090D01*
X132624827Y-71071089D01*
X132624827Y-71071087D01*
X132535816Y-70923845D01*
X132535814Y-70923843D01*
X132535813Y-70923841D01*
X132438652Y-70826680D01*
X132405167Y-70765357D01*
X132410151Y-70695665D01*
X132438648Y-70651322D01*
X132506154Y-70583816D01*
X132567476Y-70550334D01*
X132593833Y-70547500D01*
X140974234Y-70547500D01*
X141041273Y-70567185D01*
X141061915Y-70583819D01*
X144526912Y-74048817D01*
X144536816Y-74061178D01*
X144537026Y-74061005D01*
X144541997Y-74067013D01*
X144542000Y-74067018D01*
X144592418Y-74114363D01*
X144593727Y-74115632D01*
X144603992Y-74125897D01*
X144614225Y-74136131D01*
X144619813Y-74140466D01*
X144624245Y-74144252D01*
X144656159Y-74174220D01*
X144658680Y-74176587D01*
X144676562Y-74186417D01*
X144692829Y-74197102D01*
X144708960Y-74209615D01*
X144730838Y-74219081D01*
X144752307Y-74228371D01*
X144757533Y-74230931D01*
X144798940Y-74253695D01*
X144818716Y-74258772D01*
X144837124Y-74265075D01*
X144855850Y-74273179D01*
X144855852Y-74273180D01*
X144855853Y-74273180D01*
X144855855Y-74273181D01*
X144896784Y-74279663D01*
X144902503Y-74280569D01*
X144908212Y-74281751D01*
X144953970Y-74293500D01*
X144974384Y-74293500D01*
X144993783Y-74295027D01*
X145013943Y-74298220D01*
X145060965Y-74293775D01*
X145066804Y-74293500D01*
X146336797Y-74293500D01*
X146403836Y-74313185D01*
X146424478Y-74329819D01*
X146541930Y-74447271D01*
X146575415Y-74508594D01*
X146570431Y-74578286D01*
X146528559Y-74634219D01*
X146504283Y-74646662D01*
X146504928Y-74648094D01*
X146498090Y-74651171D01*
X146350841Y-74740186D01*
X146229186Y-74861841D01*
X146140173Y-75009086D01*
X146088986Y-75173354D01*
X146083796Y-75230466D01*
X146082841Y-75240989D01*
X146082500Y-75244737D01*
X146082500Y-75538231D01*
X146062815Y-75605270D01*
X146046181Y-75625912D01*
X145705550Y-75966543D01*
X145644227Y-76000028D01*
X145574535Y-75995044D01*
X145518602Y-75953172D01*
X145494185Y-75887708D01*
X145499484Y-75841972D01*
X145503013Y-75830649D01*
X145509500Y-75759265D01*
X145509499Y-75244736D01*
X145509499Y-75244735D01*
X145509499Y-75244727D01*
X145503014Y-75173354D01*
X145503011Y-75173344D01*
X145451828Y-75009090D01*
X145451827Y-75009089D01*
X145451827Y-75009087D01*
X145362816Y-74861845D01*
X145362814Y-74861843D01*
X145362813Y-74861841D01*
X145241158Y-74740186D01*
X145188531Y-74708372D01*
X145093913Y-74651173D01*
X144929649Y-74599987D01*
X144929647Y-74599986D01*
X144929645Y-74599986D01*
X144879667Y-74595444D01*
X144858265Y-74593500D01*
X144858262Y-74593500D01*
X144193727Y-74593500D01*
X144122354Y-74599985D01*
X144122344Y-74599988D01*
X143958090Y-74651171D01*
X143810841Y-74740186D01*
X143689186Y-74861841D01*
X143600173Y-75009086D01*
X143548986Y-75173354D01*
X143543796Y-75230466D01*
X143542841Y-75240989D01*
X143542500Y-75244737D01*
X143542500Y-75538231D01*
X143522815Y-75605270D01*
X143506181Y-75625912D01*
X143165550Y-75966543D01*
X143104227Y-76000028D01*
X143034535Y-75995044D01*
X142978602Y-75953172D01*
X142954185Y-75887708D01*
X142959484Y-75841972D01*
X142963013Y-75830649D01*
X142969500Y-75759265D01*
X142969499Y-75244736D01*
X142969499Y-75244735D01*
X142969499Y-75244727D01*
X142963014Y-75173354D01*
X142963011Y-75173344D01*
X142911828Y-75009090D01*
X142911827Y-75009089D01*
X142911827Y-75009087D01*
X142822816Y-74861845D01*
X142822814Y-74861843D01*
X142822813Y-74861841D01*
X142701158Y-74740186D01*
X142648531Y-74708372D01*
X142553913Y-74651173D01*
X142389649Y-74599987D01*
X142389647Y-74599986D01*
X142389645Y-74599986D01*
X142339667Y-74595444D01*
X142318265Y-74593500D01*
X142318262Y-74593500D01*
X141653727Y-74593500D01*
X141582354Y-74599985D01*
X141582344Y-74599988D01*
X141418090Y-74651171D01*
X141270841Y-74740186D01*
X141149186Y-74861841D01*
X141060173Y-75009086D01*
X141008986Y-75173354D01*
X141003796Y-75230466D01*
X141002841Y-75240989D01*
X141002500Y-75244737D01*
X141002500Y-75538232D01*
X140982815Y-75605271D01*
X140966181Y-75625913D01*
X140359179Y-76232914D01*
X140346820Y-76242818D01*
X140346993Y-76243027D01*
X140340981Y-76248000D01*
X140293673Y-76298377D01*
X140292320Y-76299773D01*
X140271873Y-76320221D01*
X140271857Y-76320239D01*
X140267531Y-76325814D01*
X140263747Y-76330244D01*
X140231419Y-76364671D01*
X140231412Y-76364681D01*
X140221579Y-76382567D01*
X140210903Y-76398820D01*
X140198386Y-76414957D01*
X140198385Y-76414959D01*
X140179625Y-76458310D01*
X140177055Y-76463556D01*
X140154303Y-76504941D01*
X140154303Y-76504942D01*
X140149225Y-76524720D01*
X140142925Y-76543122D01*
X140134818Y-76561857D01*
X140127431Y-76608495D01*
X140126246Y-76614216D01*
X140114500Y-76659965D01*
X140114500Y-76680384D01*
X140112972Y-76699783D01*
X140109780Y-76719943D01*
X140112189Y-76745432D01*
X140114225Y-76766966D01*
X140114500Y-76772804D01*
X140114500Y-77648316D01*
X140094815Y-77715355D01*
X140042011Y-77761110D01*
X139972853Y-77771054D01*
X139938098Y-77760699D01*
X139895243Y-77740716D01*
X139895240Y-77740715D01*
X139895238Y-77740714D01*
X139674089Y-77681457D01*
X139674081Y-77681456D01*
X139446002Y-77661502D01*
X139445998Y-77661502D01*
X139217918Y-77681456D01*
X139217910Y-77681457D01*
X138996761Y-77740714D01*
X138996750Y-77740718D01*
X138789254Y-77837475D01*
X138789252Y-77837476D01*
X138774978Y-77847471D01*
X138601700Y-77968802D01*
X138601698Y-77968803D01*
X138601695Y-77968806D01*
X138439806Y-78130695D01*
X138439803Y-78130698D01*
X138439802Y-78130700D01*
X138423597Y-78153843D01*
X138308476Y-78318252D01*
X138308475Y-78318254D01*
X138211718Y-78525750D01*
X138211714Y-78525761D01*
X138152457Y-78746910D01*
X138152456Y-78746918D01*
X138137500Y-78917869D01*
X138137500Y-79832130D01*
X138152456Y-80003081D01*
X138152457Y-80003089D01*
X138211714Y-80224238D01*
X138211718Y-80224249D01*
X138306173Y-80426808D01*
X138308477Y-80431749D01*
X138439802Y-80619300D01*
X138601700Y-80781198D01*
X138789251Y-80912523D01*
X138912319Y-80969910D01*
X138996750Y-81009281D01*
X138996752Y-81009281D01*
X138996757Y-81009284D01*
X139217913Y-81068543D01*
X139350840Y-81080172D01*
X139415908Y-81105624D01*
X139456887Y-81162215D01*
X139460765Y-81231977D01*
X139427713Y-81291381D01*
X138897914Y-81821181D01*
X138836591Y-81854666D01*
X138810233Y-81857500D01*
X135080500Y-81857500D01*
X135013461Y-81837815D01*
X134967706Y-81785011D01*
X134956500Y-81733500D01*
X134956499Y-81188727D01*
X134950014Y-81117354D01*
X134950011Y-81117344D01*
X134898828Y-80953090D01*
X134898827Y-80953089D01*
X134898827Y-80953087D01*
X134820275Y-80823146D01*
X134802440Y-80755596D01*
X134820274Y-80694854D01*
X134898827Y-80564913D01*
X134950013Y-80400649D01*
X134956500Y-80329265D01*
X134956499Y-79664736D01*
X134956499Y-79664735D01*
X134956499Y-79664727D01*
X134950014Y-79593354D01*
X134950011Y-79593344D01*
X134898828Y-79429090D01*
X134898827Y-79429089D01*
X134898827Y-79429087D01*
X134820275Y-79299146D01*
X134802440Y-79231596D01*
X134820274Y-79170854D01*
X134898827Y-79040913D01*
X134950013Y-78876649D01*
X134956500Y-78805265D01*
X134956499Y-78140736D01*
X134956499Y-78140735D01*
X134956499Y-78140727D01*
X134950014Y-78069354D01*
X134950011Y-78069344D01*
X134898828Y-77905090D01*
X134898827Y-77905089D01*
X134898827Y-77905087D01*
X134809816Y-77757845D01*
X134809814Y-77757843D01*
X134809813Y-77757841D01*
X134717819Y-77665847D01*
X134684334Y-77604524D01*
X134681500Y-77578166D01*
X134681500Y-77108632D01*
X134683239Y-77092880D01*
X134682968Y-77092855D01*
X134683702Y-77085093D01*
X134681531Y-77015995D01*
X134681500Y-77014047D01*
X134681500Y-76985147D01*
X134681117Y-76982117D01*
X134680614Y-76978141D01*
X134680157Y-76972322D01*
X134678674Y-76925113D01*
X134678674Y-76925111D01*
X134672974Y-76905492D01*
X134669031Y-76886446D01*
X134666474Y-76866204D01*
X134666474Y-76866203D01*
X134649081Y-76822274D01*
X134647204Y-76816792D01*
X134634019Y-76771407D01*
X134623620Y-76753824D01*
X134615066Y-76736363D01*
X134607552Y-76717383D01*
X134579793Y-76679176D01*
X134576586Y-76674294D01*
X134552544Y-76633641D01*
X134552543Y-76633640D01*
X134552542Y-76633638D01*
X134538108Y-76619204D01*
X134525471Y-76604409D01*
X134513472Y-76587893D01*
X134513470Y-76587890D01*
X134477073Y-76557781D01*
X134472751Y-76553847D01*
X133222088Y-75303183D01*
X133212187Y-75290823D01*
X133211977Y-75290998D01*
X133207002Y-75284986D01*
X133207000Y-75284982D01*
X133164141Y-75244735D01*
X133156621Y-75237673D01*
X133155253Y-75236348D01*
X133134770Y-75215865D01*
X133134769Y-75215864D01*
X133134767Y-75215862D01*
X133131402Y-75213252D01*
X133129183Y-75211531D01*
X133124750Y-75207744D01*
X133090321Y-75175414D01*
X133090319Y-75175412D01*
X133072431Y-75165578D01*
X133056170Y-75154897D01*
X133040039Y-75142384D01*
X132996693Y-75123627D01*
X132991445Y-75121056D01*
X132964251Y-75106106D01*
X132950060Y-75098305D01*
X132946660Y-75097432D01*
X132930287Y-75093228D01*
X132911881Y-75086926D01*
X132893144Y-75078818D01*
X132893146Y-75078818D01*
X132846496Y-75071430D01*
X132840781Y-75070246D01*
X132820612Y-75065068D01*
X132795032Y-75058500D01*
X132795030Y-75058500D01*
X132794862Y-75058500D01*
X132794735Y-75058462D01*
X132787294Y-75057523D01*
X132787445Y-75056322D01*
X132727823Y-75038815D01*
X132707181Y-75022181D01*
X132674000Y-74989000D01*
X130724001Y-74989000D01*
X130690820Y-75022181D01*
X130629497Y-75055666D01*
X130603139Y-75058500D01*
X129014809Y-75058500D01*
X128947770Y-75038815D01*
X128922660Y-75017473D01*
X128918754Y-75013135D01*
X128913183Y-75009087D01*
X128764252Y-74900882D01*
X128589788Y-74823206D01*
X128589786Y-74823205D01*
X128402987Y-74783500D01*
X128212013Y-74783500D01*
X128025214Y-74823205D01*
X128025211Y-74823206D01*
X128025212Y-74823206D01*
X127878193Y-74888663D01*
X127850746Y-74900883D01*
X127696245Y-75013135D01*
X127568459Y-75155057D01*
X127472973Y-75320443D01*
X127472971Y-75320447D01*
X127454181Y-75378279D01*
X127414743Y-75435954D01*
X127350384Y-75463152D01*
X127281538Y-75451237D01*
X127230062Y-75403993D01*
X127218319Y-75378279D01*
X127199528Y-75320447D01*
X127199527Y-75320446D01*
X127199527Y-75320444D01*
X127104040Y-75155056D01*
X126976253Y-75013134D01*
X126821752Y-74900882D01*
X126647288Y-74823206D01*
X126647286Y-74823205D01*
X126460487Y-74783500D01*
X126269513Y-74783500D01*
X126082714Y-74823205D01*
X126082711Y-74823206D01*
X126082712Y-74823206D01*
X125935693Y-74888663D01*
X125908246Y-74900883D01*
X125753745Y-75013135D01*
X125625959Y-75155057D01*
X125530473Y-75320443D01*
X125530470Y-75320450D01*
X125480557Y-75474067D01*
X125471458Y-75502072D01*
X125451496Y-75692000D01*
X125471458Y-75881928D01*
X125471458Y-75881930D01*
X125471459Y-75881932D01*
X125474682Y-75891852D01*
X125476675Y-75961694D01*
X125440593Y-76021525D01*
X125377891Y-76052352D01*
X125308477Y-76044385D01*
X125292602Y-76036284D01*
X125270913Y-76023173D01*
X125106649Y-75971987D01*
X125106647Y-75971986D01*
X125106645Y-75971986D01*
X125056667Y-75967444D01*
X125035265Y-75965500D01*
X125035262Y-75965500D01*
X124520727Y-75965500D01*
X124449354Y-75971985D01*
X124449344Y-75971988D01*
X124285090Y-76023171D01*
X124137841Y-76112186D01*
X124016187Y-76233840D01*
X124016187Y-76233841D01*
X124016185Y-76233843D01*
X124016184Y-76233845D01*
X124012875Y-76239319D01*
X124001912Y-76257453D01*
X123950382Y-76304638D01*
X123899695Y-76317238D01*
X123865111Y-76318325D01*
X123865109Y-76318326D01*
X123845496Y-76324023D01*
X123826459Y-76327965D01*
X123806208Y-76330524D01*
X123806202Y-76330526D01*
X123762299Y-76347907D01*
X123756775Y-76349798D01*
X123711406Y-76362981D01*
X123711401Y-76362983D01*
X123693827Y-76373376D01*
X123676362Y-76381932D01*
X123657387Y-76389445D01*
X123657385Y-76389446D01*
X123619176Y-76417206D01*
X123614294Y-76420412D01*
X123573635Y-76444458D01*
X123559201Y-76458893D01*
X123544411Y-76471526D01*
X123527892Y-76483528D01*
X123497782Y-76519923D01*
X123493850Y-76524244D01*
X123194180Y-76823913D01*
X123181821Y-76833816D01*
X123181994Y-76834025D01*
X123175984Y-76838996D01*
X123128672Y-76889378D01*
X123127319Y-76890774D01*
X123106873Y-76911221D01*
X123106857Y-76911239D01*
X123102531Y-76916814D01*
X123098747Y-76921244D01*
X123066419Y-76955671D01*
X123066412Y-76955681D01*
X123056579Y-76973567D01*
X123045903Y-76989820D01*
X123033386Y-77005957D01*
X123033385Y-77005959D01*
X123014625Y-77049310D01*
X123012055Y-77054556D01*
X122989303Y-77095941D01*
X122989303Y-77095942D01*
X122984225Y-77115720D01*
X122977925Y-77134122D01*
X122969818Y-77152857D01*
X122962431Y-77199495D01*
X122961246Y-77205216D01*
X122949500Y-77250965D01*
X122949500Y-77271384D01*
X122947972Y-77290783D01*
X122944780Y-77310943D01*
X122947410Y-77338765D01*
X122949225Y-77357966D01*
X122949500Y-77363804D01*
X122949500Y-80083407D01*
X122947761Y-80099154D01*
X122948032Y-80099180D01*
X122947297Y-80106947D01*
X122949469Y-80176031D01*
X122949500Y-80177979D01*
X122949500Y-80206900D01*
X122950384Y-80213897D01*
X122950842Y-80219721D01*
X122951381Y-80236856D01*
X122933813Y-80304481D01*
X122882473Y-80351873D01*
X122877880Y-80354031D01*
X122860250Y-80361880D01*
X122860248Y-80361881D01*
X122705744Y-80474136D01*
X122599647Y-80591968D01*
X122540160Y-80628616D01*
X122470303Y-80627285D01*
X122412255Y-80588398D01*
X122384446Y-80524301D01*
X122383499Y-80509010D01*
X122383499Y-80312736D01*
X122380720Y-80282146D01*
X122377014Y-80241355D01*
X122377011Y-80241344D01*
X122325828Y-80077090D01*
X122325827Y-80077089D01*
X122325827Y-80077087D01*
X122236816Y-79929845D01*
X122236814Y-79929843D01*
X122236813Y-79929841D01*
X122115158Y-79808186D01*
X122115151Y-79808182D01*
X121967913Y-79719173D01*
X121803649Y-79667987D01*
X121803647Y-79667986D01*
X121803645Y-79667986D01*
X121753667Y-79663444D01*
X121732265Y-79661500D01*
X121732262Y-79661500D01*
X121217727Y-79661500D01*
X121146354Y-79667985D01*
X121146344Y-79667988D01*
X120982090Y-79719171D01*
X120834841Y-79808186D01*
X120834840Y-79808187D01*
X120737681Y-79905347D01*
X120676358Y-79938832D01*
X120606666Y-79933848D01*
X120562319Y-79905347D01*
X120465158Y-79808186D01*
X120465151Y-79808182D01*
X120317913Y-79719173D01*
X120153649Y-79667987D01*
X120153647Y-79667986D01*
X120153645Y-79667986D01*
X120103667Y-79663444D01*
X120082265Y-79661500D01*
X120082262Y-79661500D01*
X119567727Y-79661500D01*
X119496354Y-79667985D01*
X119496344Y-79667988D01*
X119332089Y-79719171D01*
X119184846Y-79808182D01*
X119179562Y-79813466D01*
X119118236Y-79846945D01*
X119048544Y-79841954D01*
X119041455Y-79839056D01*
X118900289Y-79776206D01*
X118900286Y-79776205D01*
X118713487Y-79736500D01*
X118522513Y-79736500D01*
X118335714Y-79776205D01*
X118161246Y-79853883D01*
X118006745Y-79966135D01*
X117878959Y-80108057D01*
X117783473Y-80273443D01*
X117783470Y-80273450D01*
X117732036Y-80431749D01*
X117724458Y-80455072D01*
X117710445Y-80588398D01*
X117704496Y-80645000D01*
X117723547Y-80826261D01*
X117710977Y-80894991D01*
X117663245Y-80946014D01*
X117645873Y-80954515D01*
X117606988Y-80969910D01*
X117601460Y-80971802D01*
X117556108Y-80984979D01*
X117556102Y-80984981D01*
X117538528Y-80995374D01*
X117521067Y-81003928D01*
X117502081Y-81011446D01*
X117502079Y-81011447D01*
X117463867Y-81039208D01*
X117458985Y-81042415D01*
X117418332Y-81066457D01*
X117403896Y-81080894D01*
X117389110Y-81093523D01*
X117372588Y-81105528D01*
X117372586Y-81105529D01*
X117372586Y-81105530D01*
X117372583Y-81105532D01*
X117342475Y-81141925D01*
X117338544Y-81146246D01*
X116809180Y-81675609D01*
X116747857Y-81709094D01*
X116678165Y-81704110D01*
X116622232Y-81662238D01*
X116597815Y-81596774D01*
X116597499Y-81587955D01*
X116597499Y-79499456D01*
X116586887Y-79395574D01*
X116531115Y-79227262D01*
X116438030Y-79076348D01*
X116312652Y-78950970D01*
X116161738Y-78857885D01*
X116132493Y-78848194D01*
X116075050Y-78808422D01*
X116048227Y-78743906D01*
X116047500Y-78730507D01*
X116047500Y-77114960D01*
X116067184Y-77047925D01*
X116083813Y-77027288D01*
X116778282Y-76332818D01*
X116839606Y-76299334D01*
X116865964Y-76296500D01*
X117299158Y-76296500D01*
X117364255Y-76314962D01*
X117432890Y-76357297D01*
X117432893Y-76357298D01*
X117432899Y-76357302D01*
X117595664Y-76411236D01*
X117696128Y-76421500D01*
X117696133Y-76421500D01*
X118243867Y-76421500D01*
X118243872Y-76421500D01*
X118344336Y-76411236D01*
X118507101Y-76357302D01*
X118653040Y-76267285D01*
X118663329Y-76256996D01*
X118724652Y-76223511D01*
X118794344Y-76228495D01*
X118838691Y-76256996D01*
X118842267Y-76260572D01*
X118842271Y-76260575D01*
X118986507Y-76349542D01*
X118986518Y-76349547D01*
X119147393Y-76402855D01*
X119246683Y-76412999D01*
X119270000Y-76412998D01*
X119270000Y-75688000D01*
X119770000Y-75688000D01*
X119770000Y-76412999D01*
X119793308Y-76412999D01*
X119793322Y-76412998D01*
X119892607Y-76402855D01*
X120053481Y-76349547D01*
X120053492Y-76349542D01*
X120197728Y-76260575D01*
X120197732Y-76260572D01*
X120317572Y-76140732D01*
X120317575Y-76140728D01*
X120406542Y-75996492D01*
X120406547Y-75996481D01*
X120459855Y-75835606D01*
X120469999Y-75736322D01*
X120470000Y-75736309D01*
X120470000Y-75688000D01*
X119770000Y-75688000D01*
X119270000Y-75688000D01*
X119269999Y-74463000D01*
X119770000Y-74463000D01*
X119770000Y-75188000D01*
X120469999Y-75188000D01*
X120469999Y-75139692D01*
X120469998Y-75139677D01*
X120459855Y-75040392D01*
X120406547Y-74879518D01*
X120406542Y-74879507D01*
X120317575Y-74735271D01*
X120317572Y-74735267D01*
X120197732Y-74615427D01*
X120197728Y-74615424D01*
X120053492Y-74526457D01*
X120053481Y-74526452D01*
X119892606Y-74473144D01*
X119793322Y-74463000D01*
X119770000Y-74463000D01*
X119269999Y-74463000D01*
X119269999Y-74462998D01*
X119261094Y-74454093D01*
X119227608Y-74392770D01*
X119232592Y-74323079D01*
X119274462Y-74267145D01*
X119283664Y-74260881D01*
X119346652Y-74222030D01*
X119472030Y-74096652D01*
X119565115Y-73945738D01*
X119620887Y-73777426D01*
X119631500Y-73673545D01*
X119631499Y-72872456D01*
X119620887Y-72768574D01*
X119620697Y-72768000D01*
X120623001Y-72768000D01*
X120623001Y-73692988D01*
X120633494Y-73795699D01*
X120688640Y-73962120D01*
X120688642Y-73962125D01*
X120780683Y-74111346D01*
X120904653Y-74235316D01*
X121053874Y-74327357D01*
X121053879Y-74327359D01*
X121220302Y-74382506D01*
X121220300Y-74382506D01*
X121279134Y-74388516D01*
X121290124Y-74393000D01*
X121319858Y-74393000D01*
X121326163Y-74393321D01*
X121336462Y-74394373D01*
X121344419Y-74393000D01*
X121374375Y-74393000D01*
X121374384Y-74392999D01*
X122398000Y-74392999D01*
X122398000Y-72768000D01*
X122898000Y-72768000D01*
X122898000Y-74392999D01*
X124073000Y-74392999D01*
X124073000Y-72768000D01*
X124573000Y-72768000D01*
X124573000Y-74392999D01*
X125747999Y-74392999D01*
X125748000Y-74392998D01*
X125748000Y-72768000D01*
X124573000Y-72768000D01*
X124073000Y-72768000D01*
X122898000Y-72768000D01*
X122398000Y-72768000D01*
X120623001Y-72768000D01*
X119620697Y-72768000D01*
X119565115Y-72600262D01*
X119472030Y-72449348D01*
X119346652Y-72323970D01*
X119195738Y-72230885D01*
X119190330Y-72229093D01*
X119027427Y-72175113D01*
X118923545Y-72164500D01*
X117122462Y-72164500D01*
X117122446Y-72164501D01*
X117018572Y-72175113D01*
X116850264Y-72230884D01*
X116850259Y-72230886D01*
X116699346Y-72323971D01*
X116573971Y-72449346D01*
X116480886Y-72600259D01*
X116480884Y-72600264D01*
X116425113Y-72768572D01*
X116414500Y-72872447D01*
X116414500Y-73673537D01*
X116414501Y-73673553D01*
X116425113Y-73777427D01*
X116480884Y-73945735D01*
X116480886Y-73945740D01*
X116508811Y-73991013D01*
X116573970Y-74096652D01*
X116699348Y-74222030D01*
X116850262Y-74315115D01*
X116910990Y-74335238D01*
X116918704Y-74337794D01*
X116976150Y-74377566D01*
X117002973Y-74442082D01*
X116990658Y-74510858D01*
X116943115Y-74562058D01*
X116879701Y-74579500D01*
X116496410Y-74579500D01*
X116491376Y-74579295D01*
X116435617Y-74574754D01*
X116355447Y-74585676D01*
X116353782Y-74585880D01*
X116273358Y-74594628D01*
X116273073Y-74594691D01*
X116250830Y-74599904D01*
X116250587Y-74599964D01*
X116174667Y-74627856D01*
X116173085Y-74628413D01*
X116096392Y-74654254D01*
X116096277Y-74654307D01*
X116075579Y-74664226D01*
X116075308Y-74664360D01*
X116007140Y-74707930D01*
X116005715Y-74708814D01*
X115936396Y-74750523D01*
X115936199Y-74750673D01*
X115918131Y-74764798D01*
X115917972Y-74764926D01*
X115860780Y-74822117D01*
X115859578Y-74823286D01*
X115800820Y-74878947D01*
X115800707Y-74879080D01*
X115785898Y-74896998D01*
X115129995Y-75552902D01*
X115068672Y-75586387D01*
X114998981Y-75581403D01*
X114943047Y-75539532D01*
X114918630Y-75474067D01*
X114918314Y-75465221D01*
X114918314Y-74887937D01*
X114920052Y-74872192D01*
X114919781Y-74872167D01*
X114920515Y-74864404D01*
X114920434Y-74861841D01*
X114919223Y-74823286D01*
X114918345Y-74795337D01*
X114918314Y-74793389D01*
X114918314Y-74764461D01*
X114918314Y-74764455D01*
X114917429Y-74757451D01*
X114916970Y-74751622D01*
X114916935Y-74750523D01*
X114915487Y-74704421D01*
X114914202Y-74700000D01*
X114909793Y-74684825D01*
X114905846Y-74665768D01*
X114903288Y-74645514D01*
X114885898Y-74601595D01*
X114884007Y-74596068D01*
X114870832Y-74550719D01*
X114870832Y-74550718D01*
X114860438Y-74533143D01*
X114851878Y-74515667D01*
X114844368Y-74496699D01*
X114844368Y-74496698D01*
X114844367Y-74496696D01*
X114844366Y-74496694D01*
X114816603Y-74458482D01*
X114813401Y-74453608D01*
X114789356Y-74412948D01*
X114774920Y-74398512D01*
X114762283Y-74383717D01*
X114761403Y-74382506D01*
X114750286Y-74367204D01*
X114713898Y-74337101D01*
X114709576Y-74333168D01*
X114172088Y-73795680D01*
X114162187Y-73783320D01*
X114161977Y-73783495D01*
X114157001Y-73777481D01*
X114157000Y-73777479D01*
X114106614Y-73730164D01*
X114105239Y-73728831D01*
X114084768Y-73708360D01*
X114082792Y-73706828D01*
X114079183Y-73704028D01*
X114074750Y-73700241D01*
X114040321Y-73667911D01*
X114040319Y-73667909D01*
X114022431Y-73658075D01*
X114006170Y-73647394D01*
X113990039Y-73634881D01*
X113946693Y-73616124D01*
X113941445Y-73613553D01*
X113914251Y-73598603D01*
X113900060Y-73590802D01*
X113896660Y-73589929D01*
X113880287Y-73585725D01*
X113861881Y-73579423D01*
X113843146Y-73571315D01*
X113842334Y-73571080D01*
X113841773Y-73570721D01*
X113835987Y-73568218D01*
X113836390Y-73567284D01*
X113783449Y-73533474D01*
X113754243Y-73470001D01*
X113763989Y-73400814D01*
X113809593Y-73347880D01*
X113842431Y-73332900D01*
X113966162Y-73297061D01*
X114186204Y-73192650D01*
X114386648Y-73054293D01*
X114562302Y-72885575D01*
X114708617Y-72690865D01*
X114821804Y-72475205D01*
X114898931Y-72244182D01*
X114917487Y-72130000D01*
X114938000Y-72003781D01*
X114938000Y-71243000D01*
X120623000Y-71243000D01*
X120623000Y-72267999D01*
X120623002Y-72268000D01*
X122398000Y-72268000D01*
X122398000Y-71243000D01*
X122898000Y-71243000D01*
X122898000Y-72268000D01*
X124073000Y-72268000D01*
X124073000Y-71243000D01*
X124573000Y-71243000D01*
X124573000Y-72268000D01*
X125748000Y-72268000D01*
X125748000Y-71243000D01*
X126248000Y-71243000D01*
X126248000Y-72268000D01*
X128022999Y-72268000D01*
X128022999Y-71243000D01*
X126248000Y-71243000D01*
X125748000Y-71243000D01*
X124573000Y-71243000D01*
X124073000Y-71243000D01*
X122898000Y-71243000D01*
X122398000Y-71243000D01*
X120623000Y-71243000D01*
X114938000Y-71243000D01*
X114938000Y-70896706D01*
X114957685Y-70829667D01*
X115010489Y-70783912D01*
X115079647Y-70773968D01*
X115127098Y-70791168D01*
X115265511Y-70876544D01*
X115265518Y-70876547D01*
X115426393Y-70929855D01*
X115525683Y-70939999D01*
X115573999Y-70939998D01*
X115574000Y-70939998D01*
X115574000Y-70240000D01*
X116074000Y-70240000D01*
X116074000Y-70939999D01*
X116122308Y-70939999D01*
X116122322Y-70939998D01*
X116221607Y-70929855D01*
X116382481Y-70876547D01*
X116382492Y-70876542D01*
X116526728Y-70787575D01*
X116526732Y-70787572D01*
X116571305Y-70742999D01*
X120622999Y-70742999D01*
X120623000Y-70743000D01*
X122398000Y-70743000D01*
X122398000Y-69718000D01*
X122898000Y-69718000D01*
X122898000Y-70743000D01*
X125748000Y-70743000D01*
X125748000Y-69718000D01*
X126248000Y-69718000D01*
X126248000Y-70743000D01*
X128022998Y-70743000D01*
X128022998Y-70649114D01*
X128023000Y-70649093D01*
X128023000Y-69718000D01*
X126248000Y-69718000D01*
X125748000Y-69718000D01*
X122898000Y-69718000D01*
X122398000Y-69718000D01*
X120623000Y-69718000D01*
X120622999Y-70742999D01*
X116571305Y-70742999D01*
X116646572Y-70667732D01*
X116646575Y-70667728D01*
X116735542Y-70523492D01*
X116735547Y-70523481D01*
X116788855Y-70362606D01*
X116798999Y-70263322D01*
X116799000Y-70263309D01*
X116799000Y-70240000D01*
X116074000Y-70240000D01*
X115574000Y-70240000D01*
X115574000Y-69864000D01*
X115593685Y-69796961D01*
X115646489Y-69751206D01*
X115698000Y-69740000D01*
X116790590Y-69740000D01*
X116842468Y-69754720D01*
X116843709Y-69752060D01*
X116850256Y-69755112D01*
X116850258Y-69755112D01*
X116850262Y-69755115D01*
X117018574Y-69810887D01*
X117122455Y-69821500D01*
X118923544Y-69821499D01*
X119027426Y-69810887D01*
X119195738Y-69755115D01*
X119346652Y-69662030D01*
X119472030Y-69536652D01*
X119565115Y-69385738D01*
X119620887Y-69217426D01*
X119631500Y-69113545D01*
X119631499Y-68312456D01*
X119620887Y-68208574D01*
X119565115Y-68040262D01*
X119472030Y-67889348D01*
X119346652Y-67763970D01*
X119346651Y-67763970D01*
X119342863Y-67760181D01*
X119309378Y-67698858D01*
X119314362Y-67629166D01*
X119356234Y-67573233D01*
X119421698Y-67548816D01*
X119430544Y-67548500D01*
X120807475Y-67548500D01*
X120874514Y-67568185D01*
G37*
G04 #@! TD.AperFunction*
G04 #@! TA.AperFunction,Conductor*
G36*
X127390961Y-75932762D02*
G01*
X127442437Y-75980006D01*
X127454181Y-76005721D01*
X127472970Y-76063550D01*
X127472973Y-76063556D01*
X127568460Y-76228944D01*
X127696247Y-76370866D01*
X127850748Y-76483118D01*
X128025212Y-76560794D01*
X128212013Y-76600500D01*
X128402987Y-76600500D01*
X128589788Y-76560794D01*
X128764252Y-76483118D01*
X128918753Y-76370866D01*
X128922659Y-76366527D01*
X128982146Y-76329879D01*
X129014809Y-76325500D01*
X132401234Y-76325500D01*
X132468273Y-76345185D01*
X132488915Y-76361819D01*
X133378180Y-77251085D01*
X133411665Y-77312408D01*
X133414499Y-77338765D01*
X133414500Y-77578164D01*
X133394816Y-77645204D01*
X133378182Y-77665846D01*
X133310682Y-77733347D01*
X133249359Y-77766832D01*
X133179667Y-77761848D01*
X133135319Y-77733347D01*
X133038158Y-77636186D01*
X132890913Y-77547173D01*
X132793807Y-77516914D01*
X132726649Y-77495987D01*
X132726647Y-77495986D01*
X132726645Y-77495986D01*
X132676667Y-77491444D01*
X132655265Y-77489500D01*
X132655262Y-77489500D01*
X132140727Y-77489500D01*
X132069354Y-77495985D01*
X132069344Y-77495988D01*
X131905090Y-77547171D01*
X131757841Y-77636186D01*
X131636186Y-77757841D01*
X131547173Y-77905086D01*
X131495986Y-78069354D01*
X131489500Y-78140737D01*
X131489500Y-78434231D01*
X131469815Y-78501270D01*
X131453181Y-78521912D01*
X131358180Y-78616913D01*
X131296857Y-78650398D01*
X131227165Y-78645414D01*
X131171232Y-78603542D01*
X131146815Y-78538078D01*
X131146499Y-78529248D01*
X131146499Y-78140736D01*
X131146499Y-78140735D01*
X131146499Y-78140727D01*
X131140014Y-78069354D01*
X131140011Y-78069344D01*
X131088828Y-77905090D01*
X131088827Y-77905089D01*
X131088827Y-77905087D01*
X130999816Y-77757845D01*
X130999814Y-77757843D01*
X130999813Y-77757841D01*
X130878158Y-77636186D01*
X130730913Y-77547173D01*
X130633807Y-77516914D01*
X130566649Y-77495987D01*
X130566647Y-77495986D01*
X130566645Y-77495986D01*
X130516667Y-77491444D01*
X130495265Y-77489500D01*
X130495262Y-77489500D01*
X129980727Y-77489500D01*
X129909354Y-77495985D01*
X129909344Y-77495988D01*
X129745090Y-77547171D01*
X129597841Y-77636186D01*
X129597840Y-77636187D01*
X129500681Y-77733347D01*
X129439358Y-77766832D01*
X129369666Y-77761848D01*
X129325319Y-77733347D01*
X129228158Y-77636186D01*
X129080913Y-77547173D01*
X128983807Y-77516914D01*
X128916649Y-77495987D01*
X128916647Y-77495986D01*
X128916645Y-77495986D01*
X128866667Y-77491444D01*
X128845265Y-77489500D01*
X128845262Y-77489500D01*
X128330727Y-77489500D01*
X128259354Y-77495985D01*
X128259344Y-77495988D01*
X128095090Y-77547171D01*
X127947843Y-77636185D01*
X127826181Y-77757848D01*
X127813002Y-77779650D01*
X127761474Y-77826837D01*
X127706885Y-77839500D01*
X127309114Y-77839500D01*
X127242075Y-77819815D01*
X127202998Y-77779651D01*
X127200276Y-77775149D01*
X127182440Y-77707595D01*
X127200275Y-77646852D01*
X127278827Y-77516913D01*
X127330013Y-77352649D01*
X127336500Y-77281265D01*
X127336499Y-76616736D01*
X127336499Y-76616735D01*
X127336499Y-76616727D01*
X127330014Y-76545354D01*
X127330011Y-76545344D01*
X127278828Y-76381090D01*
X127278827Y-76381089D01*
X127278827Y-76381087D01*
X127189816Y-76233845D01*
X127189814Y-76233843D01*
X127185935Y-76227426D01*
X127187257Y-76226626D01*
X127164610Y-76169750D01*
X127177961Y-76101168D01*
X127180655Y-76096241D01*
X127199527Y-76063556D01*
X127218318Y-76005721D01*
X127257756Y-75948046D01*
X127322115Y-75920847D01*
X127390961Y-75932762D01*
G37*
G04 #@! TD.AperFunction*
G04 #@! TA.AperFunction,Conductor*
G36*
X141111515Y-63500880D02*
G01*
X157516495Y-63510485D01*
X157516586Y-63510500D01*
X157536588Y-63510500D01*
X157537560Y-63510500D01*
X157542426Y-63510691D01*
X157569842Y-63512848D01*
X157727305Y-63525241D01*
X157746517Y-63528284D01*
X157919721Y-63569866D01*
X157938216Y-63575875D01*
X158025539Y-63612046D01*
X158102786Y-63644043D01*
X158120123Y-63652877D01*
X158271993Y-63745943D01*
X158287735Y-63757380D01*
X158423180Y-63873061D01*
X158436938Y-63886819D01*
X158552619Y-64022264D01*
X158564056Y-64038006D01*
X158657122Y-64189876D01*
X158665956Y-64207213D01*
X158734121Y-64371776D01*
X158740134Y-64390281D01*
X158746574Y-64417105D01*
X158750000Y-64446053D01*
X158750000Y-87953946D01*
X158746573Y-87982895D01*
X158740133Y-88009718D01*
X158734121Y-88028222D01*
X158665956Y-88192786D01*
X158657122Y-88210123D01*
X158564056Y-88361993D01*
X158552619Y-88377735D01*
X158436938Y-88513180D01*
X158423180Y-88526938D01*
X158287735Y-88642619D01*
X158271993Y-88654056D01*
X158120123Y-88747122D01*
X158102786Y-88755956D01*
X157938223Y-88824121D01*
X157919716Y-88830134D01*
X157746518Y-88871714D01*
X157727302Y-88874758D01*
X157542427Y-88889309D01*
X157537560Y-88889500D01*
X147453140Y-88889500D01*
X147386101Y-88869815D01*
X147340346Y-88817011D01*
X147330402Y-88747853D01*
X147359427Y-88684297D01*
X147418205Y-88646523D01*
X147421047Y-88645725D01*
X147512317Y-88621269D01*
X147512326Y-88621265D01*
X147718482Y-88525134D01*
X147904820Y-88394657D01*
X148065657Y-88233820D01*
X148196134Y-88047482D01*
X148292265Y-87841326D01*
X148292269Y-87841317D01*
X148351139Y-87621610D01*
X148351141Y-87621599D01*
X148365999Y-87451766D01*
X148366000Y-87451764D01*
X148366000Y-87245000D01*
X147381686Y-87245000D01*
X147393641Y-87233045D01*
X147451165Y-87120148D01*
X147470986Y-86995000D01*
X147451165Y-86869852D01*
X147393641Y-86756955D01*
X147381686Y-86745000D01*
X148366000Y-86745000D01*
X148366000Y-86538235D01*
X148365999Y-86538233D01*
X148351141Y-86368400D01*
X148351139Y-86368389D01*
X148292269Y-86148682D01*
X148292265Y-86148673D01*
X148196134Y-85942517D01*
X148065657Y-85756179D01*
X147985750Y-85676272D01*
X149904500Y-85676272D01*
X149910985Y-85747645D01*
X149910988Y-85747655D01*
X149962171Y-85911909D01*
X149962172Y-85911911D01*
X149962173Y-85911913D01*
X150051184Y-86059155D01*
X150051186Y-86059158D01*
X150172841Y-86180813D01*
X150172843Y-86180814D01*
X150172845Y-86180816D01*
X150320087Y-86269827D01*
X150484351Y-86321013D01*
X150555735Y-86327500D01*
X151070264Y-86327499D01*
X151070272Y-86327499D01*
X151141645Y-86321014D01*
X151141648Y-86321013D01*
X151141649Y-86321013D01*
X151305913Y-86269827D01*
X151453155Y-86180816D01*
X151550320Y-86083650D01*
X151611641Y-86050167D01*
X151681333Y-86055151D01*
X151725681Y-86083652D01*
X151792464Y-86150435D01*
X151825949Y-86211758D01*
X151820965Y-86281450D01*
X151796937Y-86321084D01*
X151787963Y-86331050D01*
X151787958Y-86331057D01*
X151692473Y-86496443D01*
X151692470Y-86496450D01*
X151636939Y-86667359D01*
X151633458Y-86678072D01*
X151613496Y-86868000D01*
X151633458Y-87057928D01*
X151633459Y-87057931D01*
X151692470Y-87239549D01*
X151692473Y-87239556D01*
X151787960Y-87404944D01*
X151915747Y-87546866D01*
X152070248Y-87659118D01*
X152244712Y-87736794D01*
X152431513Y-87776500D01*
X152622487Y-87776500D01*
X152809288Y-87736794D01*
X152983752Y-87659118D01*
X153138253Y-87546866D01*
X153266040Y-87404944D01*
X153361527Y-87239556D01*
X153420542Y-87057928D01*
X153440504Y-86868000D01*
X153420542Y-86678072D01*
X153361527Y-86496444D01*
X153286742Y-86366913D01*
X153282751Y-86360000D01*
X154914341Y-86360000D01*
X154934936Y-86595403D01*
X154934938Y-86595413D01*
X154996094Y-86823655D01*
X154996096Y-86823659D01*
X154996097Y-86823663D01*
X155018920Y-86872607D01*
X155095964Y-87037828D01*
X155095965Y-87037830D01*
X155231505Y-87231402D01*
X155398597Y-87398494D01*
X155592169Y-87534034D01*
X155592171Y-87534035D01*
X155806337Y-87633903D01*
X156034592Y-87695063D01*
X156211032Y-87710499D01*
X156211033Y-87710500D01*
X156211034Y-87710500D01*
X156328967Y-87710500D01*
X156328967Y-87710499D01*
X156505408Y-87695063D01*
X156733663Y-87633903D01*
X156947829Y-87534035D01*
X157141401Y-87398495D01*
X157308495Y-87231401D01*
X157444035Y-87037830D01*
X157543903Y-86823663D01*
X157605063Y-86595408D01*
X157625659Y-86360000D01*
X157605063Y-86124592D01*
X157556277Y-85942517D01*
X157543905Y-85896344D01*
X157543904Y-85896343D01*
X157543903Y-85896337D01*
X157444035Y-85682171D01*
X157444034Y-85682169D01*
X157308494Y-85488597D01*
X157141402Y-85321505D01*
X156947830Y-85185965D01*
X156947828Y-85185964D01*
X156836039Y-85133836D01*
X156733663Y-85086097D01*
X156733659Y-85086096D01*
X156733655Y-85086094D01*
X156505413Y-85024938D01*
X156505403Y-85024936D01*
X156328967Y-85009500D01*
X156328966Y-85009500D01*
X156211034Y-85009500D01*
X156211033Y-85009500D01*
X156034596Y-85024936D01*
X156034586Y-85024938D01*
X155806344Y-85086094D01*
X155806335Y-85086098D01*
X155592171Y-85185964D01*
X155592169Y-85185965D01*
X155398597Y-85321505D01*
X155231506Y-85488597D01*
X155231501Y-85488604D01*
X155095967Y-85682165D01*
X155095965Y-85682169D01*
X155037056Y-85808500D01*
X155007101Y-85872740D01*
X154996098Y-85896335D01*
X154996094Y-85896344D01*
X154934938Y-86124586D01*
X154934936Y-86124596D01*
X154914341Y-86359999D01*
X154914341Y-86360000D01*
X153282751Y-86360000D01*
X153266041Y-86331057D01*
X153266036Y-86331050D01*
X153196420Y-86253734D01*
X153166190Y-86190743D01*
X153174815Y-86121407D01*
X153200889Y-86083081D01*
X153224816Y-86059155D01*
X153313827Y-85911913D01*
X153365013Y-85747649D01*
X153371500Y-85676265D01*
X153371499Y-85011736D01*
X153371499Y-85011735D01*
X153371499Y-85011727D01*
X153365014Y-84940354D01*
X153365011Y-84940344D01*
X153313828Y-84776090D01*
X153313827Y-84776089D01*
X153313827Y-84776087D01*
X153224816Y-84628845D01*
X153224814Y-84628843D01*
X153224813Y-84628841D01*
X153103158Y-84507186D01*
X152955913Y-84418173D01*
X152955907Y-84418171D01*
X152791649Y-84366987D01*
X152791647Y-84366986D01*
X152791645Y-84366986D01*
X152741667Y-84362444D01*
X152720265Y-84360500D01*
X152720262Y-84360500D01*
X152205727Y-84360500D01*
X152134354Y-84366985D01*
X152134344Y-84366988D01*
X151970090Y-84418171D01*
X151822841Y-84507186D01*
X151822840Y-84507187D01*
X151725681Y-84604347D01*
X151664358Y-84637832D01*
X151594666Y-84632848D01*
X151550319Y-84604347D01*
X151482819Y-84536847D01*
X151449334Y-84475524D01*
X151446500Y-84449166D01*
X151446500Y-83575565D01*
X151466185Y-83508526D01*
X151505403Y-83470026D01*
X151505687Y-83469850D01*
X151505692Y-83469849D01*
X151650387Y-83380600D01*
X151683330Y-83347656D01*
X151744650Y-83314172D01*
X151814342Y-83319156D01*
X151858691Y-83347657D01*
X151884919Y-83373885D01*
X152027922Y-83462091D01*
X152027927Y-83462093D01*
X152187416Y-83514942D01*
X152285856Y-83524999D01*
X152302500Y-83524998D01*
X152302500Y-82800000D01*
X152802500Y-82800000D01*
X152802500Y-83524999D01*
X152819136Y-83524999D01*
X152819152Y-83524998D01*
X152917583Y-83514943D01*
X153077072Y-83462093D01*
X153077077Y-83462091D01*
X153220080Y-83373885D01*
X153338885Y-83255080D01*
X153427091Y-83112077D01*
X153427093Y-83112072D01*
X153479942Y-82952583D01*
X153489999Y-82854150D01*
X153490000Y-82854137D01*
X153490000Y-82800000D01*
X152802500Y-82800000D01*
X152302500Y-82800000D01*
X152302500Y-81575000D01*
X152802500Y-81575000D01*
X152802500Y-82300000D01*
X153489999Y-82300000D01*
X153489999Y-82245864D01*
X153489998Y-82245847D01*
X153479943Y-82147416D01*
X153427093Y-81987927D01*
X153427091Y-81987922D01*
X153338885Y-81844919D01*
X153220080Y-81726114D01*
X153077077Y-81637908D01*
X153077072Y-81637906D01*
X152917583Y-81585057D01*
X152819150Y-81575000D01*
X152802500Y-81575000D01*
X152302500Y-81575000D01*
X152302500Y-81574999D01*
X152285856Y-81575000D01*
X152187415Y-81585057D01*
X152027927Y-81637906D01*
X152027922Y-81637908D01*
X151884921Y-81726112D01*
X151858690Y-81752344D01*
X151797366Y-81785828D01*
X151727675Y-81780842D01*
X151683329Y-81752342D01*
X151650388Y-81719401D01*
X151650387Y-81719400D01*
X151529581Y-81644886D01*
X151505694Y-81630152D01*
X151505689Y-81630150D01*
X151504250Y-81629673D01*
X151344314Y-81576676D01*
X151344311Y-81576675D01*
X151344312Y-81576675D01*
X151244712Y-81566500D01*
X150710296Y-81566500D01*
X150710280Y-81566501D01*
X150610684Y-81576676D01*
X150449310Y-81630150D01*
X150449305Y-81630152D01*
X150304611Y-81719401D01*
X150184401Y-81839611D01*
X150095152Y-81984305D01*
X150095150Y-81984310D01*
X150041675Y-82145689D01*
X150031500Y-82245281D01*
X150031500Y-82854703D01*
X150031501Y-82854719D01*
X150041676Y-82954315D01*
X150095150Y-83115689D01*
X150095153Y-83115696D01*
X150108797Y-83137815D01*
X150161038Y-83222512D01*
X150179500Y-83287607D01*
X150179500Y-84449166D01*
X150159815Y-84516205D01*
X150143181Y-84536847D01*
X150051187Y-84628840D01*
X150051186Y-84628841D01*
X149962173Y-84776086D01*
X149910986Y-84940354D01*
X149904500Y-85011737D01*
X149904500Y-85676272D01*
X147985750Y-85676272D01*
X147904820Y-85595342D01*
X147718482Y-85464865D01*
X147512328Y-85368734D01*
X147316000Y-85316127D01*
X147315999Y-86679313D01*
X147304045Y-86667359D01*
X147191148Y-86609835D01*
X147097481Y-86595000D01*
X147034519Y-86595000D01*
X146940852Y-86609835D01*
X146827955Y-86667359D01*
X146816000Y-86679314D01*
X146816000Y-85316127D01*
X146619671Y-85368734D01*
X146413517Y-85464865D01*
X146227179Y-85595342D01*
X146066342Y-85756179D01*
X145935865Y-85942517D01*
X145908382Y-86001457D01*
X145862210Y-86053896D01*
X145795016Y-86073048D01*
X145728135Y-86052832D01*
X145683618Y-86001457D01*
X145656134Y-85942517D01*
X145525657Y-85756179D01*
X145364820Y-85595342D01*
X145178482Y-85464865D01*
X144972328Y-85368734D01*
X144776000Y-85316127D01*
X144776000Y-86679314D01*
X144764045Y-86667359D01*
X144651148Y-86609835D01*
X144557481Y-86595000D01*
X144494519Y-86595000D01*
X144400852Y-86609835D01*
X144287955Y-86667359D01*
X144276000Y-86679314D01*
X144276000Y-85316127D01*
X144079671Y-85368734D01*
X143873517Y-85464865D01*
X143687179Y-85595342D01*
X143526342Y-85756179D01*
X143395865Y-85942517D01*
X143368382Y-86001457D01*
X143322210Y-86053896D01*
X143255016Y-86073048D01*
X143188135Y-86052832D01*
X143143618Y-86001457D01*
X143116134Y-85942517D01*
X142985657Y-85756179D01*
X142824820Y-85595342D01*
X142638482Y-85464865D01*
X142432328Y-85368734D01*
X142236000Y-85316127D01*
X142236000Y-86679314D01*
X142224045Y-86667359D01*
X142111148Y-86609835D01*
X142017481Y-86595000D01*
X141954519Y-86595000D01*
X141860852Y-86609835D01*
X141747955Y-86667359D01*
X141736000Y-86679314D01*
X141736000Y-85316127D01*
X141539671Y-85368734D01*
X141333517Y-85464865D01*
X141147179Y-85595342D01*
X140986342Y-85756179D01*
X140855865Y-85942517D01*
X140833071Y-85991401D01*
X140786898Y-86043840D01*
X140719705Y-86062992D01*
X140652824Y-86042776D01*
X140608307Y-85991401D01*
X140583523Y-85938251D01*
X140554173Y-85896335D01*
X140452198Y-85750700D01*
X140290300Y-85588802D01*
X140102749Y-85457477D01*
X140047665Y-85431791D01*
X139895249Y-85360718D01*
X139895238Y-85360714D01*
X139674089Y-85301457D01*
X139674081Y-85301456D01*
X139446002Y-85281502D01*
X139445998Y-85281502D01*
X139217918Y-85301456D01*
X139217910Y-85301457D01*
X138996761Y-85360714D01*
X138996750Y-85360718D01*
X138789254Y-85457475D01*
X138789252Y-85457476D01*
X138744807Y-85488597D01*
X138601700Y-85588802D01*
X138601698Y-85588803D01*
X138601695Y-85588806D01*
X138439806Y-85750695D01*
X138439803Y-85750698D01*
X138439802Y-85750700D01*
X138437292Y-85754285D01*
X138308476Y-85938252D01*
X138308475Y-85938254D01*
X138211718Y-86145750D01*
X138211714Y-86145761D01*
X138152457Y-86366910D01*
X138152456Y-86366918D01*
X138137500Y-86537869D01*
X138137500Y-87452130D01*
X138152456Y-87623081D01*
X138152457Y-87623089D01*
X138211714Y-87844238D01*
X138211718Y-87844249D01*
X138297506Y-88028222D01*
X138308477Y-88051749D01*
X138439802Y-88239300D01*
X138601700Y-88401198D01*
X138789251Y-88532523D01*
X138914091Y-88590736D01*
X138996750Y-88629281D01*
X138996752Y-88629281D01*
X138996757Y-88629284D01*
X138996761Y-88629285D01*
X139058115Y-88645725D01*
X139117775Y-88682090D01*
X139148304Y-88744937D01*
X139140009Y-88814313D01*
X139095524Y-88868191D01*
X139028972Y-88889465D01*
X139026021Y-88889500D01*
X102932440Y-88889500D01*
X102927573Y-88889309D01*
X102742697Y-88874758D01*
X102723481Y-88871714D01*
X102550283Y-88830134D01*
X102531776Y-88824121D01*
X102367213Y-88755956D01*
X102349876Y-88747122D01*
X102198006Y-88654056D01*
X102182264Y-88642619D01*
X102046819Y-88526938D01*
X102033061Y-88513180D01*
X101917380Y-88377735D01*
X101905943Y-88361993D01*
X101812877Y-88210123D01*
X101804043Y-88192786D01*
X101790316Y-88159648D01*
X101735875Y-88028216D01*
X101729865Y-88009716D01*
X101727196Y-87998599D01*
X101688284Y-87836517D01*
X101685241Y-87817301D01*
X101670691Y-87632425D01*
X101670500Y-87627559D01*
X101670500Y-86360000D01*
X102844341Y-86360000D01*
X102864936Y-86595403D01*
X102864938Y-86595413D01*
X102926094Y-86823655D01*
X102926096Y-86823659D01*
X102926097Y-86823663D01*
X102948920Y-86872607D01*
X103025964Y-87037828D01*
X103025965Y-87037830D01*
X103161505Y-87231402D01*
X103328597Y-87398494D01*
X103522169Y-87534034D01*
X103522171Y-87534035D01*
X103736337Y-87633903D01*
X103964592Y-87695063D01*
X104141032Y-87710499D01*
X104141033Y-87710500D01*
X104141034Y-87710500D01*
X104258967Y-87710500D01*
X104258967Y-87710499D01*
X104435408Y-87695063D01*
X104663663Y-87633903D01*
X104877829Y-87534035D01*
X105071401Y-87398495D01*
X105238495Y-87231401D01*
X105374035Y-87037830D01*
X105473903Y-86823663D01*
X105493641Y-86750000D01*
X120310001Y-86750000D01*
X120310001Y-86773322D01*
X120320144Y-86872607D01*
X120373452Y-87033481D01*
X120373457Y-87033492D01*
X120462424Y-87177728D01*
X120462427Y-87177732D01*
X120582267Y-87297572D01*
X120582271Y-87297575D01*
X120726507Y-87386542D01*
X120726518Y-87386547D01*
X120887393Y-87439855D01*
X120986683Y-87449999D01*
X121034999Y-87449998D01*
X121035000Y-87449998D01*
X121035000Y-86750000D01*
X121535000Y-86750000D01*
X121535000Y-87449999D01*
X121583308Y-87449999D01*
X121583322Y-87449998D01*
X121682607Y-87439855D01*
X121843481Y-87386547D01*
X121843488Y-87386544D01*
X121972278Y-87307104D01*
X122039670Y-87288663D01*
X122101526Y-87306525D01*
X122244604Y-87393019D01*
X122244603Y-87393019D01*
X122406894Y-87443590D01*
X122406892Y-87443590D01*
X122477418Y-87449999D01*
X122558998Y-87449998D01*
X122558999Y-87449998D01*
X122559000Y-86800000D01*
X123059000Y-86800000D01*
X123059000Y-87449999D01*
X123140581Y-87449999D01*
X123211102Y-87443591D01*
X123211107Y-87443590D01*
X123373396Y-87393018D01*
X123518877Y-87305072D01*
X123639072Y-87184877D01*
X123727019Y-87039395D01*
X123777590Y-86877106D01*
X123784000Y-86806572D01*
X123784000Y-86800000D01*
X123059000Y-86800000D01*
X122559000Y-86800000D01*
X121895362Y-86800000D01*
X121828323Y-86780315D01*
X121807681Y-86763681D01*
X121794000Y-86750000D01*
X121535000Y-86750000D01*
X121035000Y-86750000D01*
X120310001Y-86750000D01*
X105493641Y-86750000D01*
X105535063Y-86595408D01*
X105555659Y-86360000D01*
X105535063Y-86124592D01*
X105486277Y-85942517D01*
X105473905Y-85896344D01*
X105473904Y-85896343D01*
X105473903Y-85896337D01*
X105374035Y-85682171D01*
X105374034Y-85682169D01*
X105238494Y-85488597D01*
X105071402Y-85321505D01*
X104877830Y-85185965D01*
X104877828Y-85185964D01*
X104766039Y-85133836D01*
X104663663Y-85086097D01*
X104663659Y-85086096D01*
X104663655Y-85086094D01*
X104435413Y-85024938D01*
X104435403Y-85024936D01*
X104258967Y-85009500D01*
X104258966Y-85009500D01*
X104141034Y-85009500D01*
X104141033Y-85009500D01*
X103964596Y-85024936D01*
X103964586Y-85024938D01*
X103736344Y-85086094D01*
X103736335Y-85086098D01*
X103522171Y-85185964D01*
X103522169Y-85185965D01*
X103328597Y-85321505D01*
X103161506Y-85488597D01*
X103161501Y-85488604D01*
X103025967Y-85682165D01*
X103025965Y-85682169D01*
X102967056Y-85808500D01*
X102937101Y-85872740D01*
X102926098Y-85896335D01*
X102926094Y-85896344D01*
X102864938Y-86124586D01*
X102864936Y-86124596D01*
X102844341Y-86359999D01*
X102844341Y-86360000D01*
X101670500Y-86360000D01*
X101670500Y-80770000D01*
X103400634Y-80770000D01*
X103400931Y-80771946D01*
X103400933Y-80771952D01*
X103471562Y-80962657D01*
X103471565Y-80962664D01*
X103579149Y-81135267D01*
X103719264Y-81282668D01*
X103719266Y-81282669D01*
X103886195Y-81398856D01*
X104073092Y-81479059D01*
X104272310Y-81520000D01*
X104424000Y-81520000D01*
X104424000Y-80820000D01*
X104924000Y-80820000D01*
X104924000Y-81520000D01*
X105024713Y-81520000D01*
X105176338Y-81504581D01*
X105370381Y-81443700D01*
X105370391Y-81443695D01*
X105548215Y-81344994D01*
X105548216Y-81344994D01*
X105702530Y-81212521D01*
X105702531Y-81212520D01*
X105827018Y-81051695D01*
X105916588Y-80869093D01*
X105942246Y-80770000D01*
X107330634Y-80770000D01*
X107330931Y-80771946D01*
X107330933Y-80771952D01*
X107401562Y-80962657D01*
X107401565Y-80962664D01*
X107509149Y-81135267D01*
X107649264Y-81282668D01*
X107649266Y-81282669D01*
X107816195Y-81398856D01*
X108003092Y-81479059D01*
X108202310Y-81520000D01*
X108604000Y-81520000D01*
X108604000Y-80820000D01*
X109104000Y-80820000D01*
X109104000Y-81520000D01*
X109454713Y-81520000D01*
X109606338Y-81504581D01*
X109800381Y-81443700D01*
X109800391Y-81443695D01*
X109978215Y-81344994D01*
X109978216Y-81344994D01*
X110132530Y-81212521D01*
X110132531Y-81212520D01*
X110257018Y-81051695D01*
X110346588Y-80869093D01*
X110372246Y-80770000D01*
X109570111Y-80770000D01*
X109609610Y-80745543D01*
X109677201Y-80656038D01*
X109707895Y-80548160D01*
X109697546Y-80436479D01*
X109647552Y-80336078D01*
X109575069Y-80270000D01*
X110393208Y-80270000D01*
X110416027Y-80255186D01*
X110451511Y-80250000D01*
X110541828Y-80250000D01*
X110541844Y-80249999D01*
X110601372Y-80243598D01*
X110601379Y-80243596D01*
X110736086Y-80193354D01*
X110736093Y-80193350D01*
X110851187Y-80107190D01*
X110851190Y-80107187D01*
X110937350Y-79992093D01*
X110937354Y-79992086D01*
X110987596Y-79857379D01*
X110987598Y-79857372D01*
X110993999Y-79797844D01*
X110994000Y-79797827D01*
X110994000Y-79670749D01*
X111013685Y-79603710D01*
X111066489Y-79557955D01*
X111135647Y-79548011D01*
X111168431Y-79557467D01*
X111283712Y-79608794D01*
X111470513Y-79648500D01*
X111661487Y-79648500D01*
X111848288Y-79608794D01*
X112022752Y-79531118D01*
X112177253Y-79418866D01*
X112177258Y-79418859D01*
X112182083Y-79414517D01*
X112184105Y-79416763D01*
X112232362Y-79386944D01*
X112302221Y-79388179D01*
X112338070Y-79406200D01*
X112379248Y-79436118D01*
X112553712Y-79513794D01*
X112740513Y-79553500D01*
X112931486Y-79553500D01*
X112931487Y-79553500D01*
X113008721Y-79537083D01*
X113078385Y-79542398D01*
X113134119Y-79584535D01*
X113158225Y-79650115D01*
X113158500Y-79658373D01*
X113158500Y-82681366D01*
X113156761Y-82697113D01*
X113157032Y-82697139D01*
X113156297Y-82704906D01*
X113158469Y-82773990D01*
X113158500Y-82775938D01*
X113158500Y-82804859D01*
X113159384Y-82811856D01*
X113159842Y-82817679D01*
X113161326Y-82864889D01*
X113161327Y-82864891D01*
X113167022Y-82884495D01*
X113170967Y-82903542D01*
X113173526Y-82923797D01*
X113173527Y-82923800D01*
X113173528Y-82923803D01*
X113190914Y-82967716D01*
X113192806Y-82973244D01*
X113205981Y-83018592D01*
X113216372Y-83036162D01*
X113224932Y-83053635D01*
X113232447Y-83072617D01*
X113260209Y-83110827D01*
X113263416Y-83115710D01*
X113287458Y-83156362D01*
X113287462Y-83156366D01*
X113301889Y-83170793D01*
X113314527Y-83185589D01*
X113326527Y-83202106D01*
X113326528Y-83202107D01*
X113362912Y-83232206D01*
X113367235Y-83236140D01*
X113494916Y-83363821D01*
X113504818Y-83376181D01*
X113505028Y-83376008D01*
X113509998Y-83382015D01*
X113510000Y-83382018D01*
X113548898Y-83418545D01*
X113560378Y-83429325D01*
X113561779Y-83430683D01*
X113582227Y-83451133D01*
X113582231Y-83451136D01*
X113587818Y-83455471D01*
X113592255Y-83459261D01*
X113626680Y-83491587D01*
X113644562Y-83501417D01*
X113660827Y-83512101D01*
X113676959Y-83524614D01*
X113705743Y-83537069D01*
X113759452Y-83581758D01*
X113780475Y-83648390D01*
X113780500Y-83650872D01*
X113780500Y-85600537D01*
X113780501Y-85600553D01*
X113791113Y-85704427D01*
X113846884Y-85872735D01*
X113846886Y-85872740D01*
X113849817Y-85877492D01*
X113939970Y-86023652D01*
X114065348Y-86149030D01*
X114216262Y-86242115D01*
X114384574Y-86297887D01*
X114488455Y-86308500D01*
X115889544Y-86308499D01*
X115993426Y-86297887D01*
X116161738Y-86242115D01*
X116312652Y-86149030D01*
X116438030Y-86023652D01*
X116531115Y-85872738D01*
X116586887Y-85704426D01*
X116597500Y-85600545D01*
X116597500Y-85594000D01*
X117135001Y-85594000D01*
X117135001Y-85617322D01*
X117145144Y-85716607D01*
X117198452Y-85877481D01*
X117198457Y-85877492D01*
X117287424Y-86021728D01*
X117287427Y-86021732D01*
X117407267Y-86141572D01*
X117407271Y-86141575D01*
X117551507Y-86230542D01*
X117551518Y-86230547D01*
X117712393Y-86283855D01*
X117811683Y-86293999D01*
X117859999Y-86293998D01*
X117860000Y-86293998D01*
X117860000Y-85594000D01*
X118360000Y-85594000D01*
X118360000Y-86293999D01*
X118408308Y-86293999D01*
X118408322Y-86293998D01*
X118507607Y-86283855D01*
X118668481Y-86230547D01*
X118668488Y-86230544D01*
X118806901Y-86145168D01*
X118874293Y-86126727D01*
X118937096Y-86145168D01*
X119075507Y-86230542D01*
X119075518Y-86230547D01*
X119236393Y-86283855D01*
X119335683Y-86293999D01*
X119383999Y-86293998D01*
X119384000Y-86293998D01*
X119384000Y-85594000D01*
X118360000Y-85594000D01*
X117860000Y-85594000D01*
X117135001Y-85594000D01*
X116597500Y-85594000D01*
X116597499Y-85326500D01*
X116617185Y-85259461D01*
X116669989Y-85213706D01*
X116721500Y-85202500D01*
X119760000Y-85202500D01*
X119827039Y-85222185D01*
X119872794Y-85274989D01*
X119884000Y-85326500D01*
X119884000Y-86293999D01*
X119932308Y-86293999D01*
X119932322Y-86293998D01*
X120031607Y-86283855D01*
X120193537Y-86230197D01*
X120263365Y-86227795D01*
X120302299Y-86250000D01*
X122198638Y-86250000D01*
X122265677Y-86269685D01*
X122286319Y-86286319D01*
X122300000Y-86300000D01*
X123783999Y-86300000D01*
X123783999Y-86293417D01*
X123777591Y-86222897D01*
X123777590Y-86222892D01*
X123727018Y-86060603D01*
X123639072Y-85915122D01*
X123542641Y-85818691D01*
X123509156Y-85757368D01*
X123514140Y-85687676D01*
X123542637Y-85643333D01*
X123616154Y-85569816D01*
X123677476Y-85536334D01*
X123703833Y-85533500D01*
X124102866Y-85533500D01*
X124118613Y-85535238D01*
X124118639Y-85534968D01*
X124126406Y-85535702D01*
X124126408Y-85535701D01*
X124126409Y-85535702D01*
X124135759Y-85535408D01*
X124195491Y-85533531D01*
X124197439Y-85533500D01*
X124226357Y-85533500D01*
X124227722Y-85533327D01*
X124233362Y-85532614D01*
X124239185Y-85532156D01*
X124265208Y-85531338D01*
X124286390Y-85530673D01*
X124296181Y-85527827D01*
X124305981Y-85524980D01*
X124325038Y-85521032D01*
X124345297Y-85518474D01*
X124389221Y-85501082D01*
X124394721Y-85499199D01*
X124440093Y-85486018D01*
X124457665Y-85475625D01*
X124475132Y-85467068D01*
X124494117Y-85459552D01*
X124532326Y-85431790D01*
X124537204Y-85428585D01*
X124577862Y-85404542D01*
X124592302Y-85390100D01*
X124607092Y-85377470D01*
X124623607Y-85365472D01*
X124653723Y-85329066D01*
X124657625Y-85324777D01*
X124796587Y-85185816D01*
X124857910Y-85152333D01*
X124884267Y-85149499D01*
X125322886Y-85149499D01*
X125441842Y-85133839D01*
X125441841Y-85133839D01*
X125441850Y-85133838D01*
X125589876Y-85072524D01*
X125716987Y-84974987D01*
X125814524Y-84847876D01*
X125875838Y-84699850D01*
X125891500Y-84580885D01*
X125891499Y-84301116D01*
X125890765Y-84295544D01*
X125887201Y-84268466D01*
X125875838Y-84182150D01*
X125868093Y-84163454D01*
X125860624Y-84093986D01*
X125868094Y-84068545D01*
X125875838Y-84049850D01*
X125891500Y-83930885D01*
X125891499Y-83651116D01*
X125875838Y-83532150D01*
X125868093Y-83513454D01*
X125860624Y-83443986D01*
X125868094Y-83418545D01*
X125875838Y-83399850D01*
X125891500Y-83280885D01*
X125891499Y-83001116D01*
X125875838Y-82882150D01*
X125868093Y-82863452D01*
X125860624Y-82793983D01*
X125868091Y-82768550D01*
X125875838Y-82749850D01*
X125891500Y-82630885D01*
X125891499Y-82351116D01*
X125875838Y-82232150D01*
X125868093Y-82213454D01*
X125860624Y-82143986D01*
X125868094Y-82118545D01*
X125875838Y-82099850D01*
X125891500Y-81980885D01*
X125891499Y-81701116D01*
X125888141Y-81675609D01*
X125875839Y-81582157D01*
X125875838Y-81582153D01*
X125875838Y-81582150D01*
X125868091Y-81563449D01*
X125860624Y-81493981D01*
X125868092Y-81468549D01*
X125875838Y-81449850D01*
X125891500Y-81330885D01*
X125891499Y-81051116D01*
X125889931Y-81039208D01*
X125885287Y-81003928D01*
X125875838Y-80932150D01*
X125868093Y-80913454D01*
X125860624Y-80843986D01*
X125868094Y-80818545D01*
X125875838Y-80799850D01*
X125891500Y-80680885D01*
X125891499Y-80401116D01*
X125875838Y-80282150D01*
X125868093Y-80263454D01*
X125860624Y-80193986D01*
X125868094Y-80168545D01*
X125875838Y-80149850D01*
X125891500Y-80030885D01*
X125891499Y-79751116D01*
X125884112Y-79695005D01*
X125875839Y-79632157D01*
X125875838Y-79632152D01*
X125875838Y-79632150D01*
X125857405Y-79587650D01*
X125849937Y-79518182D01*
X125881212Y-79455703D01*
X125941301Y-79420051D01*
X126008855Y-79421813D01*
X126099351Y-79450013D01*
X126170735Y-79456500D01*
X126685264Y-79456499D01*
X126685272Y-79456499D01*
X126756645Y-79450014D01*
X126756648Y-79450013D01*
X126756649Y-79450013D01*
X126920913Y-79398827D01*
X127068155Y-79309816D01*
X127189816Y-79188155D01*
X127202996Y-79166350D01*
X127254526Y-79119163D01*
X127309115Y-79106500D01*
X127706885Y-79106500D01*
X127773924Y-79126185D01*
X127813002Y-79166350D01*
X127826181Y-79188151D01*
X127826182Y-79188152D01*
X127826184Y-79188155D01*
X127947845Y-79309816D01*
X128095087Y-79398827D01*
X128259351Y-79450013D01*
X128330735Y-79456500D01*
X128845264Y-79456499D01*
X128845272Y-79456499D01*
X128916645Y-79450014D01*
X128916652Y-79450012D01*
X129007141Y-79421815D01*
X129077001Y-79420663D01*
X129136394Y-79457464D01*
X129166462Y-79520533D01*
X129158594Y-79587650D01*
X129156236Y-79593344D01*
X129140161Y-79632152D01*
X129124500Y-79751114D01*
X129124500Y-80030886D01*
X129140160Y-80149844D01*
X129140162Y-80149851D01*
X129147907Y-80168550D01*
X129155374Y-80238019D01*
X129147908Y-80263447D01*
X129140163Y-80282146D01*
X129140161Y-80282151D01*
X129124500Y-80401114D01*
X129124500Y-80680886D01*
X129140160Y-80799844D01*
X129140162Y-80799851D01*
X129147907Y-80818550D01*
X129155374Y-80888019D01*
X129147908Y-80913447D01*
X129140163Y-80932146D01*
X129140161Y-80932151D01*
X129124500Y-81051114D01*
X129124500Y-81330886D01*
X129140160Y-81449844D01*
X129140162Y-81449851D01*
X129147907Y-81468550D01*
X129155374Y-81538019D01*
X129147908Y-81563447D01*
X129140163Y-81582146D01*
X129140161Y-81582151D01*
X129124500Y-81701114D01*
X129124500Y-81980886D01*
X129140160Y-82099844D01*
X129140162Y-82099851D01*
X129147907Y-82118550D01*
X129155374Y-82188019D01*
X129147908Y-82213447D01*
X129140163Y-82232146D01*
X129140161Y-82232151D01*
X129124500Y-82351114D01*
X129124500Y-82630886D01*
X129140160Y-82749844D01*
X129140162Y-82749851D01*
X129147907Y-82768550D01*
X129155374Y-82838019D01*
X129147908Y-82863447D01*
X129140163Y-82882146D01*
X129140161Y-82882151D01*
X129124500Y-83001114D01*
X129124500Y-83280886D01*
X129140160Y-83399844D01*
X129140162Y-83399851D01*
X129147907Y-83418550D01*
X129155374Y-83488019D01*
X129147908Y-83513447D01*
X129140163Y-83532146D01*
X129140161Y-83532151D01*
X129124500Y-83651114D01*
X129124500Y-83930886D01*
X129140160Y-84049847D01*
X129140161Y-84049848D01*
X129152507Y-84079655D01*
X129159975Y-84149124D01*
X129152509Y-84174552D01*
X129148444Y-84184365D01*
X129140987Y-84241000D01*
X129173417Y-84241000D01*
X129240456Y-84260685D01*
X129271791Y-84289511D01*
X129299013Y-84324987D01*
X129299014Y-84324988D01*
X129299016Y-84324990D01*
X129421042Y-84418625D01*
X129462244Y-84475053D01*
X129466399Y-84544799D01*
X129432186Y-84605719D01*
X129370469Y-84638471D01*
X129345555Y-84641000D01*
X129140990Y-84641000D01*
X129140988Y-84641001D01*
X129148442Y-84697627D01*
X129148444Y-84697633D01*
X129208899Y-84843585D01*
X129305075Y-84968924D01*
X129430413Y-85065100D01*
X129576365Y-85125554D01*
X129576369Y-85125555D01*
X129693676Y-85140999D01*
X130170499Y-85140999D01*
X130170500Y-85140998D01*
X130170500Y-84623499D01*
X130190185Y-84556460D01*
X130242989Y-84510705D01*
X130294497Y-84499499D01*
X130446500Y-84499499D01*
X130513538Y-84519184D01*
X130559293Y-84571988D01*
X130570499Y-84623499D01*
X130570499Y-85140998D01*
X130570501Y-85140999D01*
X131047324Y-85140999D01*
X131164628Y-85125557D01*
X131164633Y-85125555D01*
X131310585Y-85065100D01*
X131435924Y-84968924D01*
X131532100Y-84843586D01*
X131592554Y-84697634D01*
X131592555Y-84697630D01*
X131607999Y-84580330D01*
X131608000Y-84580316D01*
X131608000Y-84548500D01*
X131627685Y-84481461D01*
X131680489Y-84435706D01*
X131732000Y-84424500D01*
X143299366Y-84424500D01*
X143315113Y-84426238D01*
X143315139Y-84425968D01*
X143322906Y-84426702D01*
X143322908Y-84426701D01*
X143322909Y-84426702D01*
X143332259Y-84426408D01*
X143391991Y-84424531D01*
X143393939Y-84424500D01*
X143422857Y-84424500D01*
X143424222Y-84424327D01*
X143429862Y-84423614D01*
X143435685Y-84423156D01*
X143461708Y-84422338D01*
X143482890Y-84421673D01*
X143494942Y-84418171D01*
X143502481Y-84415980D01*
X143521538Y-84412032D01*
X143541797Y-84409474D01*
X143585721Y-84392082D01*
X143591221Y-84390199D01*
X143636593Y-84377018D01*
X143654165Y-84366625D01*
X143671632Y-84358068D01*
X143690617Y-84350552D01*
X143728826Y-84322790D01*
X143733704Y-84319585D01*
X143774362Y-84295542D01*
X143788802Y-84281100D01*
X143803592Y-84268470D01*
X143820107Y-84256472D01*
X143850222Y-84220067D01*
X143854126Y-84215776D01*
X146329815Y-81740087D01*
X146342180Y-81730183D01*
X146342006Y-81729973D01*
X146348014Y-81725002D01*
X146348018Y-81725000D01*
X146395393Y-81674549D01*
X146396665Y-81673237D01*
X146417134Y-81652770D01*
X146421463Y-81647187D01*
X146425242Y-81642763D01*
X146457586Y-81608321D01*
X146467423Y-81590424D01*
X146478097Y-81574174D01*
X146490613Y-81558041D01*
X146509372Y-81514689D01*
X146511933Y-81509462D01*
X146534695Y-81468060D01*
X146539774Y-81448274D01*
X146546072Y-81429882D01*
X146554181Y-81411145D01*
X146561569Y-81364497D01*
X146562751Y-81358786D01*
X146574500Y-81313030D01*
X146574500Y-81292615D01*
X146576027Y-81273214D01*
X146578812Y-81255636D01*
X146579220Y-81253057D01*
X146578205Y-81242319D01*
X146576017Y-81219168D01*
X146589306Y-81150574D01*
X146637571Y-81100053D01*
X146699467Y-81083500D01*
X147914638Y-81083500D01*
X147914654Y-81083499D01*
X147941692Y-81080591D01*
X147975201Y-81076989D01*
X148112204Y-81025889D01*
X148229261Y-80938261D01*
X148316889Y-80821204D01*
X148367989Y-80684201D01*
X148371591Y-80650692D01*
X148374499Y-80623654D01*
X148374500Y-80623637D01*
X148374500Y-78740001D01*
X152994891Y-78740001D01*
X153015300Y-79025362D01*
X153076109Y-79304895D01*
X153176091Y-79572958D01*
X153313191Y-79824038D01*
X153313196Y-79824046D01*
X153419882Y-79966561D01*
X153419883Y-79966562D01*
X154315195Y-79071250D01*
X154337340Y-79122587D01*
X154443433Y-79265094D01*
X154579530Y-79379294D01*
X154669216Y-79424335D01*
X153773436Y-80320115D01*
X153915960Y-80426807D01*
X153915961Y-80426808D01*
X154167042Y-80563908D01*
X154167041Y-80563908D01*
X154435104Y-80663890D01*
X154714637Y-80724699D01*
X154999999Y-80745109D01*
X155000001Y-80745109D01*
X155285362Y-80724699D01*
X155564895Y-80663890D01*
X155832958Y-80563908D01*
X156084047Y-80426803D01*
X156226561Y-80320116D01*
X156226562Y-80320115D01*
X155333748Y-79427300D01*
X155343409Y-79423784D01*
X155491844Y-79326157D01*
X155613764Y-79196930D01*
X155685768Y-79072215D01*
X156580115Y-79966562D01*
X156580116Y-79966561D01*
X156686803Y-79824047D01*
X156823908Y-79572958D01*
X156923890Y-79304895D01*
X156984699Y-79025362D01*
X157005109Y-78740001D01*
X157005109Y-78739998D01*
X156984699Y-78454637D01*
X156923890Y-78175104D01*
X156823908Y-77907041D01*
X156686808Y-77655961D01*
X156686807Y-77655960D01*
X156580115Y-77513436D01*
X155684803Y-78408747D01*
X155662660Y-78357413D01*
X155556567Y-78214906D01*
X155420470Y-78100706D01*
X155330782Y-78055663D01*
X156226562Y-77159883D01*
X156226561Y-77159882D01*
X156084046Y-77053196D01*
X156084038Y-77053191D01*
X155832957Y-76916091D01*
X155832958Y-76916091D01*
X155564895Y-76816109D01*
X155285362Y-76755300D01*
X155000001Y-76734891D01*
X154999999Y-76734891D01*
X154714637Y-76755300D01*
X154435104Y-76816109D01*
X154167041Y-76916091D01*
X153915961Y-77053191D01*
X153915953Y-77053196D01*
X153773437Y-77159882D01*
X153773436Y-77159883D01*
X154666252Y-78052699D01*
X154656591Y-78056216D01*
X154508156Y-78153843D01*
X154386236Y-78283070D01*
X154314231Y-78407784D01*
X153419883Y-77513436D01*
X153419882Y-77513437D01*
X153313196Y-77655953D01*
X153313191Y-77655961D01*
X153176091Y-77907041D01*
X153076109Y-78175104D01*
X153015300Y-78454637D01*
X152994891Y-78739998D01*
X152994891Y-78740001D01*
X148374500Y-78740001D01*
X148374500Y-78126362D01*
X148374499Y-78126345D01*
X148368371Y-78069354D01*
X148367989Y-78065799D01*
X148316889Y-77928796D01*
X148229261Y-77811739D01*
X148112204Y-77724111D01*
X148112202Y-77724110D01*
X148112204Y-77724110D01*
X148092220Y-77716657D01*
X148036286Y-77674786D01*
X148011870Y-77609321D01*
X148017169Y-77563586D01*
X148018400Y-77559636D01*
X148043013Y-77480649D01*
X148049500Y-77409265D01*
X148049499Y-76894736D01*
X148049499Y-76894735D01*
X148049499Y-76894727D01*
X148043014Y-76823354D01*
X148043011Y-76823344D01*
X147991828Y-76659090D01*
X147991827Y-76659089D01*
X147991827Y-76659087D01*
X147902816Y-76511845D01*
X147902814Y-76511843D01*
X147902813Y-76511841D01*
X147805653Y-76414681D01*
X147772168Y-76353358D01*
X147777152Y-76283666D01*
X147805653Y-76239319D01*
X147902812Y-76142159D01*
X147902813Y-76142158D01*
X147902813Y-76142157D01*
X147902816Y-76142155D01*
X147991827Y-75994913D01*
X148043013Y-75830649D01*
X148049500Y-75759265D01*
X148049499Y-75292499D01*
X148069183Y-75225461D01*
X148121987Y-75179706D01*
X148173499Y-75168500D01*
X152876102Y-75168500D01*
X152943141Y-75188185D01*
X152988896Y-75240989D01*
X152996780Y-75263992D01*
X152998011Y-75269202D01*
X153017123Y-75320443D01*
X153049111Y-75406204D01*
X153136739Y-75523261D01*
X153253796Y-75610889D01*
X153390799Y-75661989D01*
X153418050Y-75664918D01*
X153451345Y-75668499D01*
X153451362Y-75668500D01*
X156548638Y-75668500D01*
X156548654Y-75668499D01*
X156575692Y-75665591D01*
X156609201Y-75661989D01*
X156746204Y-75610889D01*
X156863261Y-75523261D01*
X156950889Y-75406204D01*
X157001989Y-75269201D01*
X157005591Y-75235692D01*
X157008499Y-75208654D01*
X157008500Y-75208637D01*
X157008500Y-72111362D01*
X157008499Y-72111345D01*
X157005022Y-72079011D01*
X157001989Y-72050799D01*
X156950889Y-71913796D01*
X156863261Y-71796739D01*
X156746204Y-71709111D01*
X156711262Y-71696078D01*
X156609203Y-71658011D01*
X156548654Y-71651500D01*
X156548638Y-71651500D01*
X153451362Y-71651500D01*
X153451345Y-71651500D01*
X153390797Y-71658011D01*
X153390795Y-71658011D01*
X153253795Y-71709111D01*
X153136739Y-71796739D01*
X153049111Y-71913795D01*
X152998011Y-72050797D01*
X152996780Y-72056008D01*
X152962210Y-72116726D01*
X152900302Y-72149116D01*
X152876102Y-72151500D01*
X150023500Y-72151500D01*
X149956461Y-72131815D01*
X149910706Y-72079011D01*
X149899500Y-72027500D01*
X149899500Y-69997983D01*
X149919185Y-69930944D01*
X149971989Y-69885189D01*
X150041147Y-69875245D01*
X150094624Y-69896408D01*
X150253421Y-70007600D01*
X150467507Y-70107429D01*
X150467516Y-70107433D01*
X150681000Y-70164634D01*
X150681000Y-69269501D01*
X150788685Y-69318680D01*
X150895237Y-69334000D01*
X150966763Y-69334000D01*
X151073315Y-69318680D01*
X151181000Y-69269501D01*
X151181000Y-70164633D01*
X151394483Y-70107433D01*
X151394492Y-70107429D01*
X151608578Y-70007600D01*
X151802082Y-69872105D01*
X151969105Y-69705082D01*
X152104600Y-69511578D01*
X152204429Y-69297492D01*
X152204432Y-69297486D01*
X152261636Y-69084000D01*
X151364686Y-69084000D01*
X151390493Y-69043844D01*
X151431000Y-68905889D01*
X151431000Y-68762111D01*
X151390493Y-68624156D01*
X151364686Y-68584000D01*
X152261636Y-68584000D01*
X152261635Y-68583999D01*
X152204432Y-68370513D01*
X152204429Y-68370507D01*
X152104600Y-68156422D01*
X152104599Y-68156420D01*
X151969113Y-67962926D01*
X151969108Y-67962920D01*
X151802082Y-67795894D01*
X151608578Y-67660399D01*
X151394492Y-67560570D01*
X151394486Y-67560567D01*
X151181000Y-67503364D01*
X151181000Y-68398498D01*
X151073315Y-68349320D01*
X150966763Y-68334000D01*
X150895237Y-68334000D01*
X150788685Y-68349320D01*
X150681000Y-68398498D01*
X150681000Y-67503364D01*
X150680999Y-67503364D01*
X150467513Y-67560567D01*
X150467507Y-67560570D01*
X150253422Y-67660399D01*
X150253420Y-67660400D01*
X150059926Y-67795886D01*
X149944084Y-67911728D01*
X149882761Y-67945212D01*
X149813069Y-67940228D01*
X149757136Y-67898356D01*
X149740223Y-67867384D01*
X149691889Y-67737796D01*
X149604261Y-67620739D01*
X149487204Y-67533111D01*
X149350203Y-67482011D01*
X149289654Y-67475500D01*
X149289638Y-67475500D01*
X149085685Y-67475500D01*
X149041714Y-67467442D01*
X148812061Y-67380345D01*
X148812058Y-67380344D01*
X148812057Y-67380344D01*
X148768296Y-67371410D01*
X148573425Y-67331626D01*
X148573417Y-67331625D01*
X148330067Y-67321818D01*
X148330066Y-67321818D01*
X148088278Y-67351176D01*
X147854343Y-67418937D01*
X147854340Y-67418938D01*
X147760369Y-67463528D01*
X147707211Y-67475500D01*
X147492345Y-67475500D01*
X147431797Y-67482011D01*
X147431795Y-67482011D01*
X147294795Y-67533111D01*
X147177739Y-67620739D01*
X147090111Y-67737795D01*
X147039011Y-67874795D01*
X147039011Y-67874797D01*
X147032500Y-67935345D01*
X147032500Y-68145822D01*
X147018297Y-68203446D01*
X146998697Y-68240791D01*
X146998695Y-68240796D01*
X146921568Y-68471817D01*
X146921568Y-68471818D01*
X146882500Y-68712218D01*
X146882500Y-70221796D01*
X146862815Y-70288835D01*
X146810011Y-70334590D01*
X146740853Y-70344534D01*
X146677297Y-70315509D01*
X146670819Y-70309477D01*
X144021741Y-67660399D01*
X142401342Y-66040000D01*
X154914341Y-66040000D01*
X154934936Y-66275403D01*
X154934938Y-66275413D01*
X154996094Y-66503655D01*
X154996096Y-66503659D01*
X154996097Y-66503663D01*
X155044898Y-66608317D01*
X155095964Y-66717828D01*
X155095965Y-66717830D01*
X155231505Y-66911402D01*
X155398597Y-67078494D01*
X155592169Y-67214034D01*
X155592171Y-67214035D01*
X155806337Y-67313903D01*
X155806343Y-67313904D01*
X155806344Y-67313905D01*
X155835880Y-67321819D01*
X156034592Y-67375063D01*
X156211032Y-67390499D01*
X156211033Y-67390500D01*
X156211034Y-67390500D01*
X156328967Y-67390500D01*
X156328967Y-67390499D01*
X156505408Y-67375063D01*
X156733663Y-67313903D01*
X156947829Y-67214035D01*
X157141401Y-67078495D01*
X157308495Y-66911401D01*
X157444035Y-66717830D01*
X157543903Y-66503663D01*
X157605063Y-66275408D01*
X157625659Y-66040000D01*
X157605063Y-65804592D01*
X157543903Y-65576337D01*
X157444035Y-65362171D01*
X157444034Y-65362169D01*
X157308494Y-65168597D01*
X157141402Y-65001505D01*
X156947830Y-64865965D01*
X156947828Y-64865964D01*
X156840745Y-64816030D01*
X156733663Y-64766097D01*
X156733659Y-64766096D01*
X156733655Y-64766094D01*
X156505413Y-64704938D01*
X156505403Y-64704936D01*
X156328967Y-64689500D01*
X156328966Y-64689500D01*
X156211034Y-64689500D01*
X156211033Y-64689500D01*
X156034596Y-64704936D01*
X156034586Y-64704938D01*
X155806344Y-64766094D01*
X155806335Y-64766098D01*
X155592171Y-64865964D01*
X155592169Y-64865965D01*
X155398597Y-65001505D01*
X155231506Y-65168597D01*
X155231501Y-65168604D01*
X155095967Y-65362165D01*
X155095965Y-65362169D01*
X154996098Y-65576335D01*
X154996094Y-65576344D01*
X154934938Y-65804586D01*
X154934936Y-65804596D01*
X154914341Y-66039999D01*
X154914341Y-66040000D01*
X142401342Y-66040000D01*
X141345806Y-64984464D01*
X141344981Y-64983622D01*
X141304132Y-64941094D01*
X141271575Y-64907198D01*
X141258799Y-64897597D01*
X141212155Y-64862546D01*
X141209239Y-64860214D01*
X141173852Y-64830114D01*
X141152622Y-64812055D01*
X141116122Y-64789990D01*
X141110949Y-64786495D01*
X141076863Y-64760881D01*
X141011077Y-64726354D01*
X141007815Y-64724514D01*
X140967166Y-64699942D01*
X140944189Y-64686052D01*
X140944184Y-64686050D01*
X140944181Y-64686048D01*
X140904620Y-64670127D01*
X140898951Y-64667506D01*
X140861203Y-64647694D01*
X140790716Y-64624162D01*
X140787201Y-64622870D01*
X140718244Y-64595118D01*
X140718232Y-64595115D01*
X140676642Y-64585748D01*
X140670629Y-64584071D01*
X140630186Y-64570570D01*
X140630171Y-64570566D01*
X140556824Y-64558647D01*
X140553147Y-64557935D01*
X140480639Y-64541605D01*
X140480642Y-64541605D01*
X140438065Y-64539029D01*
X140431866Y-64538339D01*
X140403803Y-64533779D01*
X140389780Y-64531500D01*
X140389779Y-64531500D01*
X140315476Y-64531500D01*
X140311732Y-64531387D01*
X140275016Y-64529166D01*
X140237524Y-64526898D01*
X140237522Y-64526898D01*
X140237521Y-64526898D01*
X140213226Y-64529353D01*
X140195083Y-64531186D01*
X140188850Y-64531500D01*
X114375842Y-64531500D01*
X114374594Y-64531487D01*
X114284030Y-64529663D01*
X114268623Y-64529353D01*
X114268622Y-64529353D01*
X114268618Y-64529353D01*
X114195042Y-64539794D01*
X114191320Y-64540208D01*
X114117232Y-64546189D01*
X114075825Y-64556394D01*
X114069699Y-64557581D01*
X114027488Y-64563572D01*
X114027480Y-64563574D01*
X113956535Y-64585680D01*
X113952929Y-64586685D01*
X113880759Y-64604474D01*
X113880754Y-64604476D01*
X113841512Y-64621195D01*
X113835656Y-64623348D01*
X113834953Y-64623568D01*
X113794950Y-64636033D01*
X113728467Y-64669236D01*
X113725069Y-64670807D01*
X113656686Y-64699942D01*
X113656683Y-64699944D01*
X113620639Y-64722736D01*
X113615202Y-64725803D01*
X113577066Y-64744848D01*
X113577057Y-64744854D01*
X113516746Y-64788300D01*
X113513644Y-64790395D01*
X113450834Y-64830114D01*
X113418909Y-64858395D01*
X113414037Y-64862292D01*
X113379441Y-64887216D01*
X113326894Y-64939763D01*
X113324168Y-64942329D01*
X113268532Y-64991618D01*
X113268528Y-64991622D01*
X113241553Y-65024659D01*
X113237367Y-65029290D01*
X112374014Y-65892642D01*
X112373123Y-65893516D01*
X112296696Y-65966926D01*
X112252057Y-66026331D01*
X112249718Y-66029255D01*
X112201550Y-66085884D01*
X112179488Y-66122377D01*
X112175997Y-66127546D01*
X112150386Y-66161630D01*
X112150380Y-66161640D01*
X112115847Y-66227436D01*
X112114007Y-66230698D01*
X112075552Y-66294311D01*
X112059627Y-66333879D01*
X112057008Y-66339544D01*
X112037194Y-66377298D01*
X112013662Y-66447783D01*
X112012370Y-66451296D01*
X111984620Y-66520250D01*
X111984615Y-66520264D01*
X111975246Y-66561861D01*
X111973571Y-66567872D01*
X111960069Y-66608317D01*
X111960066Y-66608328D01*
X111948147Y-66681677D01*
X111947435Y-66685354D01*
X111931105Y-66757860D01*
X111931104Y-66757867D01*
X111928528Y-66800435D01*
X111927838Y-66806637D01*
X111921000Y-66848721D01*
X111921000Y-66923023D01*
X111920887Y-66926767D01*
X111916398Y-67000978D01*
X111920686Y-67043414D01*
X111921000Y-67049650D01*
X111921000Y-68392862D01*
X111901315Y-68459901D01*
X111848511Y-68505656D01*
X111779353Y-68515600D01*
X111758000Y-68510569D01*
X111738609Y-68504144D01*
X111639322Y-68494000D01*
X111616000Y-68494000D01*
X111616000Y-70443999D01*
X111639308Y-70443999D01*
X111639322Y-70443998D01*
X111738607Y-70433855D01*
X111757996Y-70427431D01*
X111827824Y-70425029D01*
X111887866Y-70460761D01*
X111919059Y-70523281D01*
X111921000Y-70545137D01*
X111921000Y-71912903D01*
X111901315Y-71979942D01*
X111884681Y-72000584D01*
X111205327Y-72679937D01*
X111144004Y-72713422D01*
X111074312Y-72708438D01*
X111018379Y-72666566D01*
X110995545Y-72605347D01*
X110994356Y-72605475D01*
X110987598Y-72542627D01*
X110987596Y-72542620D01*
X110937354Y-72407913D01*
X110937350Y-72407906D01*
X110851190Y-72292812D01*
X110851187Y-72292809D01*
X110736093Y-72206649D01*
X110736086Y-72206645D01*
X110601379Y-72156403D01*
X110601372Y-72156401D01*
X110541844Y-72150000D01*
X110448552Y-72150000D01*
X110381513Y-72130315D01*
X110381169Y-72130000D01*
X110019000Y-72130000D01*
X110019000Y-72817500D01*
X109999315Y-72884539D01*
X109946511Y-72930294D01*
X109895000Y-72941500D01*
X109576862Y-72941500D01*
X109509823Y-72921815D01*
X109464068Y-72869011D01*
X109454124Y-72799853D01*
X109483149Y-72736297D01*
X109489181Y-72729819D01*
X109519000Y-72700000D01*
X109519000Y-72161646D01*
X109609610Y-72105543D01*
X109677201Y-72016038D01*
X109707895Y-71908160D01*
X109697546Y-71796479D01*
X109647552Y-71696078D01*
X109575069Y-71630000D01*
X110377366Y-71630000D01*
X110377068Y-71628053D01*
X110377066Y-71628047D01*
X110306437Y-71437342D01*
X110306434Y-71437335D01*
X110198850Y-71264732D01*
X110058735Y-71117331D01*
X110058733Y-71117330D01*
X109891804Y-71001143D01*
X109704907Y-70920940D01*
X109505690Y-70880000D01*
X109104000Y-70880000D01*
X109104000Y-71580000D01*
X108604000Y-71580000D01*
X108604000Y-70880000D01*
X108253287Y-70880000D01*
X108101661Y-70895418D01*
X107907618Y-70956299D01*
X107907608Y-70956304D01*
X107729784Y-71055005D01*
X107729783Y-71055005D01*
X107575469Y-71187478D01*
X107575468Y-71187479D01*
X107450981Y-71348304D01*
X107361411Y-71530906D01*
X107335754Y-71630000D01*
X108137889Y-71630000D01*
X108098390Y-71654457D01*
X108030799Y-71743962D01*
X108000105Y-71851840D01*
X108010454Y-71963521D01*
X108060448Y-72063922D01*
X108132931Y-72130000D01*
X107330634Y-72130000D01*
X107330931Y-72131946D01*
X107330933Y-72131952D01*
X107401562Y-72322657D01*
X107401565Y-72322664D01*
X107509149Y-72495267D01*
X107649264Y-72642668D01*
X107649266Y-72642669D01*
X107816197Y-72758857D01*
X107824071Y-72762236D01*
X107877917Y-72806760D01*
X107899142Y-72873328D01*
X107881009Y-72940804D01*
X107873551Y-72951674D01*
X107821302Y-73019766D01*
X107821300Y-73019769D01*
X107763313Y-73159763D01*
X107763312Y-73159765D01*
X107743533Y-73309999D01*
X107743533Y-73310000D01*
X107763312Y-73460234D01*
X107763313Y-73460236D01*
X107817395Y-73590802D01*
X107821302Y-73600233D01*
X107913549Y-73720451D01*
X108033767Y-73812698D01*
X108173764Y-73870687D01*
X108286280Y-73885500D01*
X108286287Y-73885500D01*
X108361713Y-73885500D01*
X108361720Y-73885500D01*
X108395314Y-73881077D01*
X108464349Y-73891842D01*
X108516605Y-73938222D01*
X108535500Y-74004016D01*
X108535500Y-74098640D01*
X108542284Y-74161745D01*
X108542284Y-74188253D01*
X108535500Y-74251358D01*
X108535500Y-74648644D01*
X108539596Y-74686748D01*
X108539596Y-74713252D01*
X108535500Y-74751355D01*
X108535500Y-75148644D01*
X108539596Y-75186748D01*
X108539596Y-75213252D01*
X108535500Y-75251355D01*
X108535500Y-75648644D01*
X108539596Y-75686748D01*
X108539596Y-75713252D01*
X108535500Y-75751355D01*
X108535500Y-76148644D01*
X108539596Y-76186748D01*
X108539596Y-76213252D01*
X108535500Y-76251355D01*
X108535500Y-76648644D01*
X108539596Y-76686748D01*
X108539596Y-76713252D01*
X108535500Y-76751355D01*
X108535500Y-77148644D01*
X108539596Y-77186748D01*
X108539596Y-77213252D01*
X108535500Y-77251355D01*
X108535500Y-77648644D01*
X108539596Y-77686748D01*
X108539596Y-77713252D01*
X108535500Y-77751355D01*
X108535500Y-78148640D01*
X108542284Y-78211745D01*
X108542284Y-78238253D01*
X108535500Y-78301358D01*
X108535500Y-78395983D01*
X108515815Y-78463022D01*
X108463011Y-78508777D01*
X108395317Y-78518922D01*
X108361735Y-78514501D01*
X108361723Y-78514500D01*
X108361720Y-78514500D01*
X108286280Y-78514500D01*
X108286272Y-78514500D01*
X108173764Y-78529313D01*
X108173763Y-78529313D01*
X108033770Y-78587300D01*
X108033767Y-78587301D01*
X108033767Y-78587302D01*
X107951539Y-78650398D01*
X107913549Y-78679549D01*
X107821300Y-78799770D01*
X107763313Y-78939763D01*
X107763312Y-78939765D01*
X107743533Y-79089999D01*
X107743533Y-79090000D01*
X107763312Y-79240234D01*
X107763313Y-79240236D01*
X107821300Y-79380230D01*
X107821302Y-79380234D01*
X107852325Y-79420663D01*
X107874846Y-79450013D01*
X107875799Y-79451254D01*
X107900994Y-79516423D01*
X107886956Y-79584868D01*
X107838143Y-79634858D01*
X107837603Y-79635159D01*
X107729788Y-79695002D01*
X107729783Y-79695005D01*
X107575469Y-79827478D01*
X107575468Y-79827479D01*
X107450981Y-79988304D01*
X107361411Y-80170906D01*
X107335754Y-80270000D01*
X108137889Y-80270000D01*
X108098390Y-80294457D01*
X108030799Y-80383962D01*
X108000105Y-80491840D01*
X108010454Y-80603521D01*
X108060448Y-80703922D01*
X108132931Y-80770000D01*
X107330634Y-80770000D01*
X105942246Y-80770000D01*
X105140111Y-80770000D01*
X105179610Y-80745543D01*
X105247201Y-80656038D01*
X105277895Y-80548160D01*
X105267546Y-80436479D01*
X105217552Y-80336078D01*
X105145069Y-80270000D01*
X105947366Y-80270000D01*
X105947068Y-80268053D01*
X105947066Y-80268047D01*
X105876437Y-80077342D01*
X105876434Y-80077335D01*
X105768850Y-79904732D01*
X105628735Y-79757331D01*
X105628733Y-79757330D01*
X105461804Y-79641143D01*
X105274907Y-79560940D01*
X105075690Y-79520000D01*
X104924000Y-79520000D01*
X104924000Y-80220000D01*
X104424000Y-80220000D01*
X104424000Y-79520000D01*
X104323287Y-79520000D01*
X104171661Y-79535418D01*
X103977618Y-79596299D01*
X103977608Y-79596304D01*
X103799784Y-79695005D01*
X103799783Y-79695005D01*
X103645469Y-79827478D01*
X103645468Y-79827479D01*
X103520981Y-79988304D01*
X103431411Y-80170906D01*
X103405754Y-80270000D01*
X104207889Y-80270000D01*
X104168390Y-80294457D01*
X104100799Y-80383962D01*
X104070105Y-80491840D01*
X104080454Y-80603521D01*
X104130448Y-80703922D01*
X104202931Y-80770000D01*
X103400634Y-80770000D01*
X101670500Y-80770000D01*
X101670500Y-72130000D01*
X103400634Y-72130000D01*
X103400931Y-72131946D01*
X103400933Y-72131952D01*
X103471562Y-72322657D01*
X103471565Y-72322664D01*
X103579149Y-72495267D01*
X103719264Y-72642668D01*
X103719266Y-72642669D01*
X103886195Y-72758856D01*
X104073092Y-72839059D01*
X104272310Y-72880000D01*
X104424000Y-72880000D01*
X104424000Y-72180000D01*
X104924000Y-72180000D01*
X104924000Y-72880000D01*
X105024713Y-72880000D01*
X105176338Y-72864581D01*
X105370381Y-72803700D01*
X105370391Y-72803695D01*
X105548215Y-72704994D01*
X105548216Y-72704994D01*
X105702530Y-72572521D01*
X105702531Y-72572520D01*
X105827018Y-72411695D01*
X105916588Y-72229093D01*
X105942246Y-72130000D01*
X105140111Y-72130000D01*
X105179610Y-72105543D01*
X105247201Y-72016038D01*
X105277895Y-71908160D01*
X105267546Y-71796479D01*
X105217552Y-71696078D01*
X105145069Y-71630000D01*
X105947366Y-71630000D01*
X105947068Y-71628053D01*
X105947066Y-71628047D01*
X105876437Y-71437342D01*
X105876434Y-71437335D01*
X105768850Y-71264732D01*
X105628735Y-71117331D01*
X105628733Y-71117330D01*
X105461804Y-71001143D01*
X105274907Y-70920940D01*
X105075690Y-70880000D01*
X104924000Y-70880000D01*
X104924000Y-71580000D01*
X104424000Y-71580000D01*
X104424000Y-70880000D01*
X104323287Y-70880000D01*
X104171661Y-70895418D01*
X103977618Y-70956299D01*
X103977608Y-70956304D01*
X103799784Y-71055005D01*
X103799783Y-71055005D01*
X103645469Y-71187478D01*
X103645468Y-71187479D01*
X103520981Y-71348304D01*
X103431411Y-71530906D01*
X103405754Y-71630000D01*
X104207889Y-71630000D01*
X104168390Y-71654457D01*
X104100799Y-71743962D01*
X104070105Y-71851840D01*
X104080454Y-71963521D01*
X104130448Y-72063922D01*
X104202931Y-72130000D01*
X103400634Y-72130000D01*
X101670500Y-72130000D01*
X101670500Y-69719000D01*
X110416001Y-69719000D01*
X110416001Y-69767322D01*
X110426144Y-69866607D01*
X110479452Y-70027481D01*
X110479457Y-70027492D01*
X110568424Y-70171728D01*
X110568427Y-70171732D01*
X110688267Y-70291572D01*
X110688271Y-70291575D01*
X110832507Y-70380542D01*
X110832518Y-70380547D01*
X110993393Y-70433855D01*
X111092683Y-70443999D01*
X111115999Y-70443998D01*
X111116000Y-69719000D01*
X110416001Y-69719000D01*
X101670500Y-69719000D01*
X101670500Y-69219000D01*
X110416000Y-69219000D01*
X111115999Y-69219000D01*
X111115999Y-68493999D01*
X111092693Y-68494000D01*
X111092674Y-68494001D01*
X110993392Y-68504144D01*
X110832518Y-68557452D01*
X110832507Y-68557457D01*
X110688271Y-68646424D01*
X110688267Y-68646427D01*
X110568427Y-68766267D01*
X110568424Y-68766271D01*
X110479457Y-68910507D01*
X110479452Y-68910518D01*
X110426144Y-69071393D01*
X110416000Y-69170677D01*
X110416000Y-69219000D01*
X101670500Y-69219000D01*
X101670500Y-66040000D01*
X102844341Y-66040000D01*
X102864936Y-66275403D01*
X102864938Y-66275413D01*
X102926094Y-66503655D01*
X102926096Y-66503659D01*
X102926097Y-66503663D01*
X102974898Y-66608317D01*
X103025964Y-66717828D01*
X103025965Y-66717830D01*
X103161505Y-66911402D01*
X103328597Y-67078494D01*
X103522169Y-67214034D01*
X103522171Y-67214035D01*
X103736337Y-67313903D01*
X103736343Y-67313904D01*
X103736344Y-67313905D01*
X103765880Y-67321819D01*
X103964592Y-67375063D01*
X104141032Y-67390499D01*
X104141033Y-67390500D01*
X104141034Y-67390500D01*
X104258967Y-67390500D01*
X104258967Y-67390499D01*
X104435408Y-67375063D01*
X104663663Y-67313903D01*
X104877829Y-67214035D01*
X105071401Y-67078495D01*
X105238495Y-66911401D01*
X105374035Y-66717830D01*
X105473903Y-66503663D01*
X105535063Y-66275408D01*
X105555659Y-66040000D01*
X105535063Y-65804592D01*
X105473903Y-65576337D01*
X105374035Y-65362171D01*
X105374034Y-65362169D01*
X105238494Y-65168597D01*
X105071402Y-65001505D01*
X104877830Y-64865965D01*
X104877828Y-64865964D01*
X104770745Y-64816031D01*
X104663663Y-64766097D01*
X104663659Y-64766096D01*
X104663655Y-64766094D01*
X104435413Y-64704938D01*
X104435403Y-64704936D01*
X104258967Y-64689500D01*
X104258966Y-64689500D01*
X104141034Y-64689500D01*
X104141033Y-64689500D01*
X103964596Y-64704936D01*
X103964586Y-64704938D01*
X103736344Y-64766094D01*
X103736335Y-64766098D01*
X103522171Y-64865964D01*
X103522169Y-64865965D01*
X103328597Y-65001505D01*
X103161506Y-65168597D01*
X103161501Y-65168604D01*
X103025967Y-65362165D01*
X103025965Y-65362169D01*
X102926098Y-65576335D01*
X102926094Y-65576344D01*
X102864938Y-65804586D01*
X102864936Y-65804596D01*
X102844341Y-66039999D01*
X102844341Y-66040000D01*
X101670500Y-66040000D01*
X101670500Y-64740463D01*
X101670691Y-64735598D01*
X101673103Y-64704937D01*
X101685238Y-64550710D01*
X101688278Y-64531513D01*
X101729860Y-64358300D01*
X101735871Y-64339801D01*
X101752633Y-64299330D01*
X101804039Y-64175218D01*
X101812858Y-64157908D01*
X101905943Y-64006004D01*
X101917362Y-63990287D01*
X102033057Y-63854822D01*
X102046799Y-63841079D01*
X102182265Y-63725378D01*
X102197988Y-63713954D01*
X102349887Y-63620870D01*
X102367193Y-63612052D01*
X102531774Y-63543879D01*
X102550276Y-63537868D01*
X102693737Y-63503426D01*
X102722684Y-63500000D01*
X139607524Y-63500000D01*
X141111515Y-63500880D01*
G37*
G04 #@! TD.AperFunction*
G04 #@! TA.AperFunction,Conductor*
G36*
X144198359Y-86756955D02*
G01*
X144140835Y-86869852D01*
X144121014Y-86995000D01*
X144140835Y-87120148D01*
X144198359Y-87233045D01*
X144210314Y-87245000D01*
X142301686Y-87245000D01*
X142313641Y-87233045D01*
X142371165Y-87120148D01*
X142390986Y-86995000D01*
X142371165Y-86869852D01*
X142313641Y-86756955D01*
X142301686Y-86745000D01*
X144210314Y-86745000D01*
X144198359Y-86756955D01*
G37*
G04 #@! TD.AperFunction*
G04 #@! TA.AperFunction,Conductor*
G36*
X146738359Y-86756955D02*
G01*
X146680835Y-86869852D01*
X146661014Y-86995000D01*
X146680835Y-87120148D01*
X146738359Y-87233045D01*
X146750314Y-87245000D01*
X144841686Y-87245000D01*
X144853641Y-87233045D01*
X144911165Y-87120148D01*
X144930986Y-86995000D01*
X144911165Y-86869852D01*
X144853641Y-86756955D01*
X144841686Y-86745000D01*
X146750314Y-86745000D01*
X146738359Y-86756955D01*
G37*
G04 #@! TD.AperFunction*
G04 #@! TA.AperFunction,NonConductor*
G36*
X145863864Y-87937166D02*
G01*
X145908382Y-87988543D01*
X145935864Y-88047479D01*
X145935865Y-88047481D01*
X146066342Y-88233820D01*
X146227179Y-88394657D01*
X146413517Y-88525134D01*
X146619673Y-88621265D01*
X146619682Y-88621269D01*
X146710953Y-88645725D01*
X146770614Y-88682090D01*
X146801143Y-88744937D01*
X146792848Y-88814312D01*
X146748363Y-88868190D01*
X146681811Y-88889465D01*
X146678860Y-88889500D01*
X144913140Y-88889500D01*
X144846101Y-88869815D01*
X144800346Y-88817011D01*
X144790402Y-88747853D01*
X144819427Y-88684297D01*
X144878205Y-88646523D01*
X144881047Y-88645725D01*
X144972317Y-88621269D01*
X144972326Y-88621265D01*
X145178482Y-88525134D01*
X145364820Y-88394657D01*
X145525657Y-88233820D01*
X145656134Y-88047481D01*
X145656135Y-88047479D01*
X145683618Y-87988543D01*
X145729790Y-87936103D01*
X145796983Y-87916951D01*
X145863864Y-87937166D01*
G37*
G04 #@! TD.AperFunction*
G04 #@! TA.AperFunction,NonConductor*
G36*
X143323864Y-87937166D02*
G01*
X143368382Y-87988543D01*
X143395864Y-88047479D01*
X143395865Y-88047481D01*
X143526342Y-88233820D01*
X143687179Y-88394657D01*
X143873517Y-88525134D01*
X144079673Y-88621265D01*
X144079682Y-88621269D01*
X144170953Y-88645725D01*
X144230614Y-88682090D01*
X144261143Y-88744937D01*
X144252848Y-88814312D01*
X144208363Y-88868190D01*
X144141811Y-88889465D01*
X144138860Y-88889500D01*
X142373140Y-88889500D01*
X142306101Y-88869815D01*
X142260346Y-88817011D01*
X142250402Y-88747853D01*
X142279427Y-88684297D01*
X142338205Y-88646523D01*
X142341047Y-88645725D01*
X142432317Y-88621269D01*
X142432326Y-88621265D01*
X142638482Y-88525134D01*
X142824820Y-88394657D01*
X142985657Y-88233820D01*
X143116134Y-88047481D01*
X143116135Y-88047479D01*
X143143618Y-87988543D01*
X143189790Y-87936103D01*
X143256983Y-87916951D01*
X143323864Y-87937166D01*
G37*
G04 #@! TD.AperFunction*
G04 #@! TA.AperFunction,NonConductor*
G36*
X140788553Y-87947222D02*
G01*
X140833071Y-87998599D01*
X140855864Y-88047479D01*
X140855865Y-88047481D01*
X140986342Y-88233820D01*
X141147179Y-88394657D01*
X141333517Y-88525134D01*
X141539673Y-88621265D01*
X141539682Y-88621269D01*
X141630953Y-88645725D01*
X141690614Y-88682090D01*
X141721143Y-88744937D01*
X141712848Y-88814312D01*
X141668363Y-88868190D01*
X141601811Y-88889465D01*
X141598860Y-88889500D01*
X139865979Y-88889500D01*
X139798940Y-88869815D01*
X139753185Y-88817011D01*
X139743241Y-88747853D01*
X139772266Y-88684297D01*
X139831044Y-88646523D01*
X139833885Y-88645725D01*
X139845476Y-88642619D01*
X139895243Y-88629284D01*
X140102749Y-88532523D01*
X140290300Y-88401198D01*
X140452198Y-88239300D01*
X140583523Y-88051749D01*
X140608307Y-87998598D01*
X140654479Y-87946159D01*
X140721672Y-87927007D01*
X140788553Y-87947222D01*
G37*
G04 #@! TD.AperFunction*
G04 #@! TA.AperFunction,NonConductor*
G36*
X117053156Y-83325955D02*
G01*
X117109089Y-83367827D01*
X117133506Y-83433291D01*
X117133180Y-83454739D01*
X117126500Y-83520118D01*
X117126500Y-83811500D01*
X117106815Y-83878539D01*
X117054011Y-83924294D01*
X117002500Y-83935500D01*
X116721499Y-83935500D01*
X116654460Y-83915815D01*
X116608705Y-83863011D01*
X116597499Y-83811501D01*
X116597499Y-83811500D01*
X116597499Y-83668285D01*
X116617182Y-83601249D01*
X116658376Y-83561556D01*
X116659283Y-83561019D01*
X116659288Y-83561018D01*
X116676866Y-83550622D01*
X116694327Y-83542068D01*
X116713312Y-83534552D01*
X116751521Y-83506790D01*
X116756399Y-83503585D01*
X116797057Y-83479542D01*
X116811497Y-83465100D01*
X116826287Y-83452470D01*
X116842802Y-83440472D01*
X116872917Y-83404067D01*
X116876821Y-83399776D01*
X116922143Y-83354454D01*
X116983464Y-83320971D01*
X117053156Y-83325955D01*
G37*
G04 #@! TD.AperFunction*
M02*
