G04 #@! TF.GenerationSoftware,KiCad,Pcbnew,7.0.5-0*
G04 #@! TF.CreationDate,2023-05-30T07:39:27+09:00*
G04 #@! TF.ProjectId,LDR6321_PD_Decoy,4c445236-3332-4315-9f50-445f4465636f,0.5*
G04 #@! TF.SameCoordinates,Original*
G04 #@! TF.FileFunction,Legend,Top*
G04 #@! TF.FilePolarity,Positive*
%FSLAX46Y46*%
G04 Gerber Fmt 4.6, Leading zero omitted, Abs format (unit mm)*
G04 Created by KiCad (PCBNEW 7.0.5-0) date 2023-05-30 07:39:27*
%MOMM*%
%LPD*%
G01*
G04 APERTURE LIST*
G04 Aperture macros list*
%AMRoundRect*
0 Rectangle with rounded corners*
0 $1 Rounding radius*
0 $2 $3 $4 $5 $6 $7 $8 $9 X,Y pos of 4 corners*
0 Add a 4 corners polygon primitive as box body*
4,1,4,$2,$3,$4,$5,$6,$7,$8,$9,$2,$3,0*
0 Add four circle primitives for the rounded corners*
1,1,$1+$1,$2,$3*
1,1,$1+$1,$4,$5*
1,1,$1+$1,$6,$7*
1,1,$1+$1,$8,$9*
0 Add four rect primitives between the rounded corners*
20,1,$1+$1,$2,$3,$4,$5,0*
20,1,$1+$1,$4,$5,$6,$7,0*
20,1,$1+$1,$6,$7,$8,$9,0*
20,1,$1+$1,$8,$9,$2,$3,0*%
G04 Aperture macros list end*
%ADD10C,0.150000*%
%ADD11C,0.100000*%
%ADD12C,0.120000*%
%ADD13RoundRect,0.200000X-0.200000X-0.275000X0.200000X-0.275000X0.200000X0.275000X-0.200000X0.275000X0*%
%ADD14C,2.200000*%
%ADD15R,3.000000X3.000000*%
%ADD16C,3.000000*%
%ADD17RoundRect,0.250000X-0.850000X-0.350000X0.850000X-0.350000X0.850000X0.350000X-0.850000X0.350000X0*%
%ADD18RoundRect,0.249997X-2.950003X-2.650003X2.950003X-2.650003X2.950003X2.650003X-2.950003X2.650003X0*%
%ADD19RoundRect,0.225000X-0.225000X-0.250000X0.225000X-0.250000X0.225000X0.250000X-0.225000X0.250000X0*%
%ADD20RoundRect,0.218750X0.218750X0.256250X-0.218750X0.256250X-0.218750X-0.256250X0.218750X-0.256250X0*%
%ADD21RoundRect,0.225000X-0.250000X0.225000X-0.250000X-0.225000X0.250000X-0.225000X0.250000X0.225000X0*%
%ADD22RoundRect,0.200000X0.275000X-0.200000X0.275000X0.200000X-0.275000X0.200000X-0.275000X-0.200000X0*%
%ADD23RoundRect,0.200000X-0.275000X0.200000X-0.275000X-0.200000X0.275000X-0.200000X0.275000X0.200000X0*%
%ADD24RoundRect,0.100000X0.637500X0.100000X-0.637500X0.100000X-0.637500X-0.100000X0.637500X-0.100000X0*%
%ADD25R,1.700000X1.700000*%
%ADD26O,1.700000X1.700000*%
%ADD27RoundRect,0.200000X0.200000X0.275000X-0.200000X0.275000X-0.200000X-0.275000X0.200000X-0.275000X0*%
%ADD28R,1.600000X2.400000*%
%ADD29O,1.600000X2.400000*%
%ADD30RoundRect,0.250000X0.650000X-1.000000X0.650000X1.000000X-0.650000X1.000000X-0.650000X-1.000000X0*%
%ADD31C,0.650000*%
%ADD32R,1.450000X0.600000*%
%ADD33R,1.450000X0.300000*%
%ADD34O,2.100000X1.000000*%
%ADD35O,1.600000X1.000000*%
%ADD36RoundRect,0.225000X0.225000X0.250000X-0.225000X0.250000X-0.225000X-0.250000X0.225000X-0.250000X0*%
G04 APERTURE END LIST*
D10*
X139065000Y-67945000D02*
X139065000Y-74295000D01*
X146685000Y-67945000D02*
X132775000Y-67945000D01*
X146685000Y-74295000D02*
X146685000Y-67945000D01*
X132775000Y-67945000D02*
X132775000Y-74295000D01*
X132775000Y-71755000D02*
X146685000Y-71755000D01*
X142875000Y-67945000D02*
X142875000Y-74295000D01*
X132775000Y-74295000D02*
X146685000Y-74295000D01*
X135315000Y-67945000D02*
X135315000Y-74295000D01*
X146685000Y-70485000D02*
X132775000Y-70485000D01*
X131953000Y-85344000D02*
G75*
G03*
X131953000Y-85344000I-381000J0D01*
G01*
X146685000Y-73025000D02*
X132775000Y-73025000D01*
X132775000Y-69215000D02*
X146685000Y-69215000D01*
X132775000Y-67945000D02*
X135315000Y-69215000D01*
D11*
X136531429Y-71484895D02*
X136531429Y-70684895D01*
X136531429Y-70684895D02*
X136988572Y-71484895D01*
X136988572Y-71484895D02*
X136988572Y-70684895D01*
X137826667Y-71408704D02*
X137788571Y-71446800D01*
X137788571Y-71446800D02*
X137674286Y-71484895D01*
X137674286Y-71484895D02*
X137598095Y-71484895D01*
X137598095Y-71484895D02*
X137483809Y-71446800D01*
X137483809Y-71446800D02*
X137407619Y-71370609D01*
X137407619Y-71370609D02*
X137369524Y-71294419D01*
X137369524Y-71294419D02*
X137331428Y-71142038D01*
X137331428Y-71142038D02*
X137331428Y-71027752D01*
X137331428Y-71027752D02*
X137369524Y-70875371D01*
X137369524Y-70875371D02*
X137407619Y-70799180D01*
X137407619Y-70799180D02*
X137483809Y-70722990D01*
X137483809Y-70722990D02*
X137598095Y-70684895D01*
X137598095Y-70684895D02*
X137674286Y-70684895D01*
X137674286Y-70684895D02*
X137788571Y-70722990D01*
X137788571Y-70722990D02*
X137826667Y-70761085D01*
X144303809Y-71484895D02*
X143846666Y-71484895D01*
X144075238Y-71484895D02*
X144075238Y-70684895D01*
X144075238Y-70684895D02*
X143999047Y-70799180D01*
X143999047Y-70799180D02*
X143922857Y-70875371D01*
X143922857Y-70875371D02*
X143846666Y-70913466D01*
X144799048Y-70684895D02*
X144875238Y-70684895D01*
X144875238Y-70684895D02*
X144951429Y-70722990D01*
X144951429Y-70722990D02*
X144989524Y-70761085D01*
X144989524Y-70761085D02*
X145027619Y-70837276D01*
X145027619Y-70837276D02*
X145065714Y-70989657D01*
X145065714Y-70989657D02*
X145065714Y-71180133D01*
X145065714Y-71180133D02*
X145027619Y-71332514D01*
X145027619Y-71332514D02*
X144989524Y-71408704D01*
X144989524Y-71408704D02*
X144951429Y-71446800D01*
X144951429Y-71446800D02*
X144875238Y-71484895D01*
X144875238Y-71484895D02*
X144799048Y-71484895D01*
X144799048Y-71484895D02*
X144722857Y-71446800D01*
X144722857Y-71446800D02*
X144684762Y-71408704D01*
X144684762Y-71408704D02*
X144646667Y-71332514D01*
X144646667Y-71332514D02*
X144608571Y-71180133D01*
X144608571Y-71180133D02*
X144608571Y-70989657D01*
X144608571Y-70989657D02*
X144646667Y-70837276D01*
X144646667Y-70837276D02*
X144684762Y-70761085D01*
X144684762Y-70761085D02*
X144722857Y-70722990D01*
X144722857Y-70722990D02*
X144799048Y-70684895D01*
X145408572Y-71484895D02*
X145408572Y-70684895D01*
X145484762Y-71180133D02*
X145713334Y-71484895D01*
X145713334Y-70951561D02*
X145408572Y-71256323D01*
X133032618Y-73301085D02*
X133070714Y-73262990D01*
X133070714Y-73262990D02*
X133146904Y-73224895D01*
X133146904Y-73224895D02*
X133337380Y-73224895D01*
X133337380Y-73224895D02*
X133413571Y-73262990D01*
X133413571Y-73262990D02*
X133451666Y-73301085D01*
X133451666Y-73301085D02*
X133489761Y-73377276D01*
X133489761Y-73377276D02*
X133489761Y-73453466D01*
X133489761Y-73453466D02*
X133451666Y-73567752D01*
X133451666Y-73567752D02*
X132994523Y-74024895D01*
X132994523Y-74024895D02*
X133489761Y-74024895D01*
X133985000Y-73224895D02*
X134061190Y-73224895D01*
X134061190Y-73224895D02*
X134137381Y-73262990D01*
X134137381Y-73262990D02*
X134175476Y-73301085D01*
X134175476Y-73301085D02*
X134213571Y-73377276D01*
X134213571Y-73377276D02*
X134251666Y-73529657D01*
X134251666Y-73529657D02*
X134251666Y-73720133D01*
X134251666Y-73720133D02*
X134213571Y-73872514D01*
X134213571Y-73872514D02*
X134175476Y-73948704D01*
X134175476Y-73948704D02*
X134137381Y-73986800D01*
X134137381Y-73986800D02*
X134061190Y-74024895D01*
X134061190Y-74024895D02*
X133985000Y-74024895D01*
X133985000Y-74024895D02*
X133908809Y-73986800D01*
X133908809Y-73986800D02*
X133870714Y-73948704D01*
X133870714Y-73948704D02*
X133832619Y-73872514D01*
X133832619Y-73872514D02*
X133794523Y-73720133D01*
X133794523Y-73720133D02*
X133794523Y-73529657D01*
X133794523Y-73529657D02*
X133832619Y-73377276D01*
X133832619Y-73377276D02*
X133870714Y-73301085D01*
X133870714Y-73301085D02*
X133908809Y-73262990D01*
X133908809Y-73262990D02*
X133985000Y-73224895D01*
X134480238Y-73224895D02*
X134746905Y-74024895D01*
X134746905Y-74024895D02*
X135013571Y-73224895D01*
X140341429Y-71484895D02*
X140341429Y-70684895D01*
X140341429Y-70684895D02*
X140798572Y-71484895D01*
X140798572Y-71484895D02*
X140798572Y-70684895D01*
X141636667Y-71408704D02*
X141598571Y-71446800D01*
X141598571Y-71446800D02*
X141484286Y-71484895D01*
X141484286Y-71484895D02*
X141408095Y-71484895D01*
X141408095Y-71484895D02*
X141293809Y-71446800D01*
X141293809Y-71446800D02*
X141217619Y-71370609D01*
X141217619Y-71370609D02*
X141179524Y-71294419D01*
X141179524Y-71294419D02*
X141141428Y-71142038D01*
X141141428Y-71142038D02*
X141141428Y-71027752D01*
X141141428Y-71027752D02*
X141179524Y-70875371D01*
X141179524Y-70875371D02*
X141217619Y-70799180D01*
X141217619Y-70799180D02*
X141293809Y-70722990D01*
X141293809Y-70722990D02*
X141408095Y-70684895D01*
X141408095Y-70684895D02*
X141484286Y-70684895D01*
X141484286Y-70684895D02*
X141598571Y-70722990D01*
X141598571Y-70722990D02*
X141636667Y-70761085D01*
X144151429Y-74024895D02*
X144151429Y-73224895D01*
X144151429Y-73224895D02*
X144608572Y-74024895D01*
X144608572Y-74024895D02*
X144608572Y-73224895D01*
X145446667Y-73948704D02*
X145408571Y-73986800D01*
X145408571Y-73986800D02*
X145294286Y-74024895D01*
X145294286Y-74024895D02*
X145218095Y-74024895D01*
X145218095Y-74024895D02*
X145103809Y-73986800D01*
X145103809Y-73986800D02*
X145027619Y-73910609D01*
X145027619Y-73910609D02*
X144989524Y-73834419D01*
X144989524Y-73834419D02*
X144951428Y-73682038D01*
X144951428Y-73682038D02*
X144951428Y-73567752D01*
X144951428Y-73567752D02*
X144989524Y-73415371D01*
X144989524Y-73415371D02*
X145027619Y-73339180D01*
X145027619Y-73339180D02*
X145103809Y-73262990D01*
X145103809Y-73262990D02*
X145218095Y-73224895D01*
X145218095Y-73224895D02*
X145294286Y-73224895D01*
X145294286Y-73224895D02*
X145408571Y-73262990D01*
X145408571Y-73262990D02*
X145446667Y-73301085D01*
X144151429Y-70214895D02*
X144151429Y-69414895D01*
X144151429Y-69414895D02*
X144608572Y-70214895D01*
X144608572Y-70214895D02*
X144608572Y-69414895D01*
X145446667Y-70138704D02*
X145408571Y-70176800D01*
X145408571Y-70176800D02*
X145294286Y-70214895D01*
X145294286Y-70214895D02*
X145218095Y-70214895D01*
X145218095Y-70214895D02*
X145103809Y-70176800D01*
X145103809Y-70176800D02*
X145027619Y-70100609D01*
X145027619Y-70100609D02*
X144989524Y-70024419D01*
X144989524Y-70024419D02*
X144951428Y-69872038D01*
X144951428Y-69872038D02*
X144951428Y-69757752D01*
X144951428Y-69757752D02*
X144989524Y-69605371D01*
X144989524Y-69605371D02*
X145027619Y-69529180D01*
X145027619Y-69529180D02*
X145103809Y-69452990D01*
X145103809Y-69452990D02*
X145218095Y-69414895D01*
X145218095Y-69414895D02*
X145294286Y-69414895D01*
X145294286Y-69414895D02*
X145408571Y-69452990D01*
X145408571Y-69452990D02*
X145446667Y-69491085D01*
X135745714Y-68144895D02*
X135945714Y-68944895D01*
X135945714Y-68944895D02*
X136145714Y-68144895D01*
X136688572Y-68868704D02*
X136660000Y-68906800D01*
X136660000Y-68906800D02*
X136574286Y-68944895D01*
X136574286Y-68944895D02*
X136517143Y-68944895D01*
X136517143Y-68944895D02*
X136431429Y-68906800D01*
X136431429Y-68906800D02*
X136374286Y-68830609D01*
X136374286Y-68830609D02*
X136345715Y-68754419D01*
X136345715Y-68754419D02*
X136317143Y-68602038D01*
X136317143Y-68602038D02*
X136317143Y-68487752D01*
X136317143Y-68487752D02*
X136345715Y-68335371D01*
X136345715Y-68335371D02*
X136374286Y-68259180D01*
X136374286Y-68259180D02*
X136431429Y-68182990D01*
X136431429Y-68182990D02*
X136517143Y-68144895D01*
X136517143Y-68144895D02*
X136574286Y-68144895D01*
X136574286Y-68144895D02*
X136660000Y-68182990D01*
X136660000Y-68182990D02*
X136688572Y-68221085D01*
X137060000Y-68144895D02*
X137174286Y-68144895D01*
X137174286Y-68144895D02*
X137231429Y-68182990D01*
X137231429Y-68182990D02*
X137288572Y-68259180D01*
X137288572Y-68259180D02*
X137317143Y-68411561D01*
X137317143Y-68411561D02*
X137317143Y-68678228D01*
X137317143Y-68678228D02*
X137288572Y-68830609D01*
X137288572Y-68830609D02*
X137231429Y-68906800D01*
X137231429Y-68906800D02*
X137174286Y-68944895D01*
X137174286Y-68944895D02*
X137060000Y-68944895D01*
X137060000Y-68944895D02*
X137002858Y-68906800D01*
X137002858Y-68906800D02*
X136945715Y-68830609D01*
X136945715Y-68830609D02*
X136917143Y-68678228D01*
X136917143Y-68678228D02*
X136917143Y-68411561D01*
X136917143Y-68411561D02*
X136945715Y-68259180D01*
X136945715Y-68259180D02*
X137002858Y-68182990D01*
X137002858Y-68182990D02*
X137060000Y-68144895D01*
X137574286Y-68944895D02*
X137574286Y-68144895D01*
X137574286Y-68144895D02*
X137917143Y-68944895D01*
X137917143Y-68944895D02*
X137917143Y-68144895D01*
X138174285Y-68221085D02*
X138202857Y-68182990D01*
X138202857Y-68182990D02*
X138260000Y-68144895D01*
X138260000Y-68144895D02*
X138402857Y-68144895D01*
X138402857Y-68144895D02*
X138460000Y-68182990D01*
X138460000Y-68182990D02*
X138488571Y-68221085D01*
X138488571Y-68221085D02*
X138517142Y-68297276D01*
X138517142Y-68297276D02*
X138517142Y-68373466D01*
X138517142Y-68373466D02*
X138488571Y-68487752D01*
X138488571Y-68487752D02*
X138145714Y-68944895D01*
X138145714Y-68944895D02*
X138517142Y-68944895D01*
D10*
X154746095Y-81798438D02*
X154650857Y-81750819D01*
X154650857Y-81750819D02*
X154508000Y-81750819D01*
X154508000Y-81750819D02*
X154365143Y-81798438D01*
X154365143Y-81798438D02*
X154269905Y-81893676D01*
X154269905Y-81893676D02*
X154222286Y-81988914D01*
X154222286Y-81988914D02*
X154174667Y-82179390D01*
X154174667Y-82179390D02*
X154174667Y-82322247D01*
X154174667Y-82322247D02*
X154222286Y-82512723D01*
X154222286Y-82512723D02*
X154269905Y-82607961D01*
X154269905Y-82607961D02*
X154365143Y-82703200D01*
X154365143Y-82703200D02*
X154508000Y-82750819D01*
X154508000Y-82750819D02*
X154603238Y-82750819D01*
X154603238Y-82750819D02*
X154746095Y-82703200D01*
X154746095Y-82703200D02*
X154793714Y-82655580D01*
X154793714Y-82655580D02*
X154793714Y-82322247D01*
X154793714Y-82322247D02*
X154603238Y-82322247D01*
X155222286Y-82750819D02*
X155222286Y-81750819D01*
X155222286Y-81750819D02*
X155793714Y-82750819D01*
X155793714Y-82750819D02*
X155793714Y-81750819D01*
X156269905Y-82750819D02*
X156269905Y-81750819D01*
X156269905Y-81750819D02*
X156508000Y-81750819D01*
X156508000Y-81750819D02*
X156650857Y-81798438D01*
X156650857Y-81798438D02*
X156746095Y-81893676D01*
X156746095Y-81893676D02*
X156793714Y-81988914D01*
X156793714Y-81988914D02*
X156841333Y-82179390D01*
X156841333Y-82179390D02*
X156841333Y-82322247D01*
X156841333Y-82322247D02*
X156793714Y-82512723D01*
X156793714Y-82512723D02*
X156746095Y-82607961D01*
X156746095Y-82607961D02*
X156650857Y-82703200D01*
X156650857Y-82703200D02*
X156508000Y-82750819D01*
X156508000Y-82750819D02*
X156269905Y-82750819D01*
X153674667Y-69558819D02*
X154008000Y-70558819D01*
X154008000Y-70558819D02*
X154341333Y-69558819D01*
X155008000Y-70035009D02*
X155150857Y-70082628D01*
X155150857Y-70082628D02*
X155198476Y-70130247D01*
X155198476Y-70130247D02*
X155246095Y-70225485D01*
X155246095Y-70225485D02*
X155246095Y-70368342D01*
X155246095Y-70368342D02*
X155198476Y-70463580D01*
X155198476Y-70463580D02*
X155150857Y-70511200D01*
X155150857Y-70511200D02*
X155055619Y-70558819D01*
X155055619Y-70558819D02*
X154674667Y-70558819D01*
X154674667Y-70558819D02*
X154674667Y-69558819D01*
X154674667Y-69558819D02*
X155008000Y-69558819D01*
X155008000Y-69558819D02*
X155103238Y-69606438D01*
X155103238Y-69606438D02*
X155150857Y-69654057D01*
X155150857Y-69654057D02*
X155198476Y-69749295D01*
X155198476Y-69749295D02*
X155198476Y-69844533D01*
X155198476Y-69844533D02*
X155150857Y-69939771D01*
X155150857Y-69939771D02*
X155103238Y-69987390D01*
X155103238Y-69987390D02*
X155008000Y-70035009D01*
X155008000Y-70035009D02*
X154674667Y-70035009D01*
X155674667Y-69558819D02*
X155674667Y-70368342D01*
X155674667Y-70368342D02*
X155722286Y-70463580D01*
X155722286Y-70463580D02*
X155769905Y-70511200D01*
X155769905Y-70511200D02*
X155865143Y-70558819D01*
X155865143Y-70558819D02*
X156055619Y-70558819D01*
X156055619Y-70558819D02*
X156150857Y-70511200D01*
X156150857Y-70511200D02*
X156198476Y-70463580D01*
X156198476Y-70463580D02*
X156246095Y-70368342D01*
X156246095Y-70368342D02*
X156246095Y-69558819D01*
X156674667Y-70511200D02*
X156817524Y-70558819D01*
X156817524Y-70558819D02*
X157055619Y-70558819D01*
X157055619Y-70558819D02*
X157150857Y-70511200D01*
X157150857Y-70511200D02*
X157198476Y-70463580D01*
X157198476Y-70463580D02*
X157246095Y-70368342D01*
X157246095Y-70368342D02*
X157246095Y-70273104D01*
X157246095Y-70273104D02*
X157198476Y-70177866D01*
X157198476Y-70177866D02*
X157150857Y-70130247D01*
X157150857Y-70130247D02*
X157055619Y-70082628D01*
X157055619Y-70082628D02*
X156865143Y-70035009D01*
X156865143Y-70035009D02*
X156769905Y-69987390D01*
X156769905Y-69987390D02*
X156722286Y-69939771D01*
X156722286Y-69939771D02*
X156674667Y-69844533D01*
X156674667Y-69844533D02*
X156674667Y-69749295D01*
X156674667Y-69749295D02*
X156722286Y-69654057D01*
X156722286Y-69654057D02*
X156769905Y-69606438D01*
X156769905Y-69606438D02*
X156865143Y-69558819D01*
X156865143Y-69558819D02*
X157103238Y-69558819D01*
X157103238Y-69558819D02*
X157246095Y-69606438D01*
D11*
X136614398Y-72754895D02*
X136614398Y-71954895D01*
X136614398Y-71954895D02*
X137071541Y-72754895D01*
X137071541Y-72754895D02*
X137071541Y-71954895D01*
X137909636Y-72678704D02*
X137871540Y-72716800D01*
X137871540Y-72716800D02*
X137757255Y-72754895D01*
X137757255Y-72754895D02*
X137681064Y-72754895D01*
X137681064Y-72754895D02*
X137566778Y-72716800D01*
X137566778Y-72716800D02*
X137490588Y-72640609D01*
X137490588Y-72640609D02*
X137452493Y-72564419D01*
X137452493Y-72564419D02*
X137414397Y-72412038D01*
X137414397Y-72412038D02*
X137414397Y-72297752D01*
X137414397Y-72297752D02*
X137452493Y-72145371D01*
X137452493Y-72145371D02*
X137490588Y-72069180D01*
X137490588Y-72069180D02*
X137566778Y-71992990D01*
X137566778Y-71992990D02*
X137681064Y-71954895D01*
X137681064Y-71954895D02*
X137757255Y-71954895D01*
X137757255Y-71954895D02*
X137871540Y-71992990D01*
X137871540Y-71992990D02*
X137909636Y-72031085D01*
X136683809Y-74024895D02*
X136226666Y-74024895D01*
X136455238Y-74024895D02*
X136455238Y-73224895D01*
X136455238Y-73224895D02*
X136379047Y-73339180D01*
X136379047Y-73339180D02*
X136302857Y-73415371D01*
X136302857Y-73415371D02*
X136226666Y-73453466D01*
X137179048Y-73224895D02*
X137255238Y-73224895D01*
X137255238Y-73224895D02*
X137331429Y-73262990D01*
X137331429Y-73262990D02*
X137369524Y-73301085D01*
X137369524Y-73301085D02*
X137407619Y-73377276D01*
X137407619Y-73377276D02*
X137445714Y-73529657D01*
X137445714Y-73529657D02*
X137445714Y-73720133D01*
X137445714Y-73720133D02*
X137407619Y-73872514D01*
X137407619Y-73872514D02*
X137369524Y-73948704D01*
X137369524Y-73948704D02*
X137331429Y-73986800D01*
X137331429Y-73986800D02*
X137255238Y-74024895D01*
X137255238Y-74024895D02*
X137179048Y-74024895D01*
X137179048Y-74024895D02*
X137102857Y-73986800D01*
X137102857Y-73986800D02*
X137064762Y-73948704D01*
X137064762Y-73948704D02*
X137026667Y-73872514D01*
X137026667Y-73872514D02*
X136988571Y-73720133D01*
X136988571Y-73720133D02*
X136988571Y-73529657D01*
X136988571Y-73529657D02*
X137026667Y-73377276D01*
X137026667Y-73377276D02*
X137064762Y-73301085D01*
X137064762Y-73301085D02*
X137102857Y-73262990D01*
X137102857Y-73262990D02*
X137179048Y-73224895D01*
X137788572Y-74024895D02*
X137788572Y-73224895D01*
X137864762Y-73720133D02*
X138093334Y-74024895D01*
X138093334Y-73491561D02*
X137788572Y-73796323D01*
X147773895Y-66871666D02*
X148573895Y-66604999D01*
X148573895Y-66604999D02*
X147773895Y-66338333D01*
X148154847Y-65805000D02*
X148192942Y-65690714D01*
X148192942Y-65690714D02*
X148231038Y-65652619D01*
X148231038Y-65652619D02*
X148307228Y-65614523D01*
X148307228Y-65614523D02*
X148421514Y-65614523D01*
X148421514Y-65614523D02*
X148497704Y-65652619D01*
X148497704Y-65652619D02*
X148535800Y-65690714D01*
X148535800Y-65690714D02*
X148573895Y-65766904D01*
X148573895Y-65766904D02*
X148573895Y-66071666D01*
X148573895Y-66071666D02*
X147773895Y-66071666D01*
X147773895Y-66071666D02*
X147773895Y-65805000D01*
X147773895Y-65805000D02*
X147811990Y-65728809D01*
X147811990Y-65728809D02*
X147850085Y-65690714D01*
X147850085Y-65690714D02*
X147926276Y-65652619D01*
X147926276Y-65652619D02*
X148002466Y-65652619D01*
X148002466Y-65652619D02*
X148078657Y-65690714D01*
X148078657Y-65690714D02*
X148116752Y-65728809D01*
X148116752Y-65728809D02*
X148154847Y-65805000D01*
X148154847Y-65805000D02*
X148154847Y-66071666D01*
X147773895Y-65271666D02*
X148421514Y-65271666D01*
X148421514Y-65271666D02*
X148497704Y-65233571D01*
X148497704Y-65233571D02*
X148535800Y-65195476D01*
X148535800Y-65195476D02*
X148573895Y-65119285D01*
X148573895Y-65119285D02*
X148573895Y-64966904D01*
X148573895Y-64966904D02*
X148535800Y-64890714D01*
X148535800Y-64890714D02*
X148497704Y-64852619D01*
X148497704Y-64852619D02*
X148421514Y-64814523D01*
X148421514Y-64814523D02*
X147773895Y-64814523D01*
X148535800Y-64471667D02*
X148573895Y-64357381D01*
X148573895Y-64357381D02*
X148573895Y-64166905D01*
X148573895Y-64166905D02*
X148535800Y-64090714D01*
X148535800Y-64090714D02*
X148497704Y-64052619D01*
X148497704Y-64052619D02*
X148421514Y-64014524D01*
X148421514Y-64014524D02*
X148345323Y-64014524D01*
X148345323Y-64014524D02*
X148269133Y-64052619D01*
X148269133Y-64052619D02*
X148231038Y-64090714D01*
X148231038Y-64090714D02*
X148192942Y-64166905D01*
X148192942Y-64166905D02*
X148154847Y-64319286D01*
X148154847Y-64319286D02*
X148116752Y-64395476D01*
X148116752Y-64395476D02*
X148078657Y-64433571D01*
X148078657Y-64433571D02*
X148002466Y-64471667D01*
X148002466Y-64471667D02*
X147926276Y-64471667D01*
X147926276Y-64471667D02*
X147850085Y-64433571D01*
X147850085Y-64433571D02*
X147811990Y-64395476D01*
X147811990Y-64395476D02*
X147773895Y-64319286D01*
X147773895Y-64319286D02*
X147773895Y-64128809D01*
X147773895Y-64128809D02*
X147811990Y-64014524D01*
X140341429Y-70214895D02*
X140341429Y-69414895D01*
X140341429Y-69414895D02*
X140798572Y-70214895D01*
X140798572Y-70214895D02*
X140798572Y-69414895D01*
X141636667Y-70138704D02*
X141598571Y-70176800D01*
X141598571Y-70176800D02*
X141484286Y-70214895D01*
X141484286Y-70214895D02*
X141408095Y-70214895D01*
X141408095Y-70214895D02*
X141293809Y-70176800D01*
X141293809Y-70176800D02*
X141217619Y-70100609D01*
X141217619Y-70100609D02*
X141179524Y-70024419D01*
X141179524Y-70024419D02*
X141141428Y-69872038D01*
X141141428Y-69872038D02*
X141141428Y-69757752D01*
X141141428Y-69757752D02*
X141179524Y-69605371D01*
X141179524Y-69605371D02*
X141217619Y-69529180D01*
X141217619Y-69529180D02*
X141293809Y-69452990D01*
X141293809Y-69452990D02*
X141408095Y-69414895D01*
X141408095Y-69414895D02*
X141484286Y-69414895D01*
X141484286Y-69414895D02*
X141598571Y-69452990D01*
X141598571Y-69452990D02*
X141636667Y-69491085D01*
X133549761Y-71484895D02*
X133092618Y-71484895D01*
X133321190Y-71484895D02*
X133321190Y-70684895D01*
X133321190Y-70684895D02*
X133244999Y-70799180D01*
X133244999Y-70799180D02*
X133168809Y-70875371D01*
X133168809Y-70875371D02*
X133092618Y-70913466D01*
X133854523Y-70761085D02*
X133892619Y-70722990D01*
X133892619Y-70722990D02*
X133968809Y-70684895D01*
X133968809Y-70684895D02*
X134159285Y-70684895D01*
X134159285Y-70684895D02*
X134235476Y-70722990D01*
X134235476Y-70722990D02*
X134273571Y-70761085D01*
X134273571Y-70761085D02*
X134311666Y-70837276D01*
X134311666Y-70837276D02*
X134311666Y-70913466D01*
X134311666Y-70913466D02*
X134273571Y-71027752D01*
X134273571Y-71027752D02*
X133816428Y-71484895D01*
X133816428Y-71484895D02*
X134311666Y-71484895D01*
X134540238Y-70684895D02*
X134806905Y-71484895D01*
X134806905Y-71484895D02*
X135073571Y-70684895D01*
X133489761Y-72754895D02*
X133032618Y-72754895D01*
X133261190Y-72754895D02*
X133261190Y-71954895D01*
X133261190Y-71954895D02*
X133184999Y-72069180D01*
X133184999Y-72069180D02*
X133108809Y-72145371D01*
X133108809Y-72145371D02*
X133032618Y-72183466D01*
X134213571Y-71954895D02*
X133832619Y-71954895D01*
X133832619Y-71954895D02*
X133794523Y-72335847D01*
X133794523Y-72335847D02*
X133832619Y-72297752D01*
X133832619Y-72297752D02*
X133908809Y-72259657D01*
X133908809Y-72259657D02*
X134099285Y-72259657D01*
X134099285Y-72259657D02*
X134175476Y-72297752D01*
X134175476Y-72297752D02*
X134213571Y-72335847D01*
X134213571Y-72335847D02*
X134251666Y-72412038D01*
X134251666Y-72412038D02*
X134251666Y-72602514D01*
X134251666Y-72602514D02*
X134213571Y-72678704D01*
X134213571Y-72678704D02*
X134175476Y-72716800D01*
X134175476Y-72716800D02*
X134099285Y-72754895D01*
X134099285Y-72754895D02*
X133908809Y-72754895D01*
X133908809Y-72754895D02*
X133832619Y-72716800D01*
X133832619Y-72716800D02*
X133794523Y-72678704D01*
X134480238Y-71954895D02*
X134746905Y-72754895D01*
X134746905Y-72754895D02*
X135013571Y-71954895D01*
X139555714Y-68144895D02*
X139755714Y-68944895D01*
X139755714Y-68944895D02*
X139955714Y-68144895D01*
X140498572Y-68868704D02*
X140470000Y-68906800D01*
X140470000Y-68906800D02*
X140384286Y-68944895D01*
X140384286Y-68944895D02*
X140327143Y-68944895D01*
X140327143Y-68944895D02*
X140241429Y-68906800D01*
X140241429Y-68906800D02*
X140184286Y-68830609D01*
X140184286Y-68830609D02*
X140155715Y-68754419D01*
X140155715Y-68754419D02*
X140127143Y-68602038D01*
X140127143Y-68602038D02*
X140127143Y-68487752D01*
X140127143Y-68487752D02*
X140155715Y-68335371D01*
X140155715Y-68335371D02*
X140184286Y-68259180D01*
X140184286Y-68259180D02*
X140241429Y-68182990D01*
X140241429Y-68182990D02*
X140327143Y-68144895D01*
X140327143Y-68144895D02*
X140384286Y-68144895D01*
X140384286Y-68144895D02*
X140470000Y-68182990D01*
X140470000Y-68182990D02*
X140498572Y-68221085D01*
X140870000Y-68144895D02*
X140984286Y-68144895D01*
X140984286Y-68144895D02*
X141041429Y-68182990D01*
X141041429Y-68182990D02*
X141098572Y-68259180D01*
X141098572Y-68259180D02*
X141127143Y-68411561D01*
X141127143Y-68411561D02*
X141127143Y-68678228D01*
X141127143Y-68678228D02*
X141098572Y-68830609D01*
X141098572Y-68830609D02*
X141041429Y-68906800D01*
X141041429Y-68906800D02*
X140984286Y-68944895D01*
X140984286Y-68944895D02*
X140870000Y-68944895D01*
X140870000Y-68944895D02*
X140812858Y-68906800D01*
X140812858Y-68906800D02*
X140755715Y-68830609D01*
X140755715Y-68830609D02*
X140727143Y-68678228D01*
X140727143Y-68678228D02*
X140727143Y-68411561D01*
X140727143Y-68411561D02*
X140755715Y-68259180D01*
X140755715Y-68259180D02*
X140812858Y-68182990D01*
X140812858Y-68182990D02*
X140870000Y-68144895D01*
X141384286Y-68944895D02*
X141384286Y-68144895D01*
X141384286Y-68144895D02*
X141727143Y-68944895D01*
X141727143Y-68944895D02*
X141727143Y-68144895D01*
X142327142Y-68944895D02*
X141984285Y-68944895D01*
X142155714Y-68944895D02*
X142155714Y-68144895D01*
X142155714Y-68144895D02*
X142098571Y-68259180D01*
X142098571Y-68259180D02*
X142041428Y-68335371D01*
X142041428Y-68335371D02*
X141984285Y-68373466D01*
X140341429Y-74024895D02*
X140341429Y-73224895D01*
X140341429Y-73224895D02*
X140798572Y-74024895D01*
X140798572Y-74024895D02*
X140798572Y-73224895D01*
X141636667Y-73948704D02*
X141598571Y-73986800D01*
X141598571Y-73986800D02*
X141484286Y-74024895D01*
X141484286Y-74024895D02*
X141408095Y-74024895D01*
X141408095Y-74024895D02*
X141293809Y-73986800D01*
X141293809Y-73986800D02*
X141217619Y-73910609D01*
X141217619Y-73910609D02*
X141179524Y-73834419D01*
X141179524Y-73834419D02*
X141141428Y-73682038D01*
X141141428Y-73682038D02*
X141141428Y-73567752D01*
X141141428Y-73567752D02*
X141179524Y-73415371D01*
X141179524Y-73415371D02*
X141217619Y-73339180D01*
X141217619Y-73339180D02*
X141293809Y-73262990D01*
X141293809Y-73262990D02*
X141408095Y-73224895D01*
X141408095Y-73224895D02*
X141484286Y-73224895D01*
X141484286Y-73224895D02*
X141598571Y-73262990D01*
X141598571Y-73262990D02*
X141636667Y-73301085D01*
D10*
X137990238Y-65193152D02*
X138228333Y-65859819D01*
X138228333Y-65859819D02*
X138466428Y-65193152D01*
X139228333Y-65812200D02*
X139133095Y-65859819D01*
X139133095Y-65859819D02*
X138942619Y-65859819D01*
X138942619Y-65859819D02*
X138847381Y-65812200D01*
X138847381Y-65812200D02*
X138799762Y-65716961D01*
X138799762Y-65716961D02*
X138799762Y-65336009D01*
X138799762Y-65336009D02*
X138847381Y-65240771D01*
X138847381Y-65240771D02*
X138942619Y-65193152D01*
X138942619Y-65193152D02*
X139133095Y-65193152D01*
X139133095Y-65193152D02*
X139228333Y-65240771D01*
X139228333Y-65240771D02*
X139275952Y-65336009D01*
X139275952Y-65336009D02*
X139275952Y-65431247D01*
X139275952Y-65431247D02*
X138799762Y-65526485D01*
X139704524Y-65859819D02*
X139704524Y-65193152D01*
X139704524Y-65383628D02*
X139752143Y-65288390D01*
X139752143Y-65288390D02*
X139799762Y-65240771D01*
X139799762Y-65240771D02*
X139895000Y-65193152D01*
X139895000Y-65193152D02*
X139990238Y-65193152D01*
X140323572Y-65764580D02*
X140371191Y-65812200D01*
X140371191Y-65812200D02*
X140323572Y-65859819D01*
X140323572Y-65859819D02*
X140275953Y-65812200D01*
X140275953Y-65812200D02*
X140323572Y-65764580D01*
X140323572Y-65764580D02*
X140323572Y-65859819D01*
X141323571Y-65859819D02*
X140752143Y-65859819D01*
X141037857Y-65859819D02*
X141037857Y-64859819D01*
X141037857Y-64859819D02*
X140942619Y-65002676D01*
X140942619Y-65002676D02*
X140847381Y-65097914D01*
X140847381Y-65097914D02*
X140752143Y-65145533D01*
X141752143Y-65764580D02*
X141799762Y-65812200D01*
X141799762Y-65812200D02*
X141752143Y-65859819D01*
X141752143Y-65859819D02*
X141704524Y-65812200D01*
X141704524Y-65812200D02*
X141752143Y-65764580D01*
X141752143Y-65764580D02*
X141752143Y-65859819D01*
X142418809Y-64859819D02*
X142514047Y-64859819D01*
X142514047Y-64859819D02*
X142609285Y-64907438D01*
X142609285Y-64907438D02*
X142656904Y-64955057D01*
X142656904Y-64955057D02*
X142704523Y-65050295D01*
X142704523Y-65050295D02*
X142752142Y-65240771D01*
X142752142Y-65240771D02*
X142752142Y-65478866D01*
X142752142Y-65478866D02*
X142704523Y-65669342D01*
X142704523Y-65669342D02*
X142656904Y-65764580D01*
X142656904Y-65764580D02*
X142609285Y-65812200D01*
X142609285Y-65812200D02*
X142514047Y-65859819D01*
X142514047Y-65859819D02*
X142418809Y-65859819D01*
X142418809Y-65859819D02*
X142323571Y-65812200D01*
X142323571Y-65812200D02*
X142275952Y-65764580D01*
X142275952Y-65764580D02*
X142228333Y-65669342D01*
X142228333Y-65669342D02*
X142180714Y-65478866D01*
X142180714Y-65478866D02*
X142180714Y-65240771D01*
X142180714Y-65240771D02*
X142228333Y-65050295D01*
X142228333Y-65050295D02*
X142275952Y-64955057D01*
X142275952Y-64955057D02*
X142323571Y-64907438D01*
X142323571Y-64907438D02*
X142418809Y-64859819D01*
D11*
X133549762Y-70214895D02*
X133702143Y-70214895D01*
X133702143Y-70214895D02*
X133778333Y-70176800D01*
X133778333Y-70176800D02*
X133816429Y-70138704D01*
X133816429Y-70138704D02*
X133892619Y-70024419D01*
X133892619Y-70024419D02*
X133930714Y-69872038D01*
X133930714Y-69872038D02*
X133930714Y-69567276D01*
X133930714Y-69567276D02*
X133892619Y-69491085D01*
X133892619Y-69491085D02*
X133854524Y-69452990D01*
X133854524Y-69452990D02*
X133778333Y-69414895D01*
X133778333Y-69414895D02*
X133625952Y-69414895D01*
X133625952Y-69414895D02*
X133549762Y-69452990D01*
X133549762Y-69452990D02*
X133511667Y-69491085D01*
X133511667Y-69491085D02*
X133473571Y-69567276D01*
X133473571Y-69567276D02*
X133473571Y-69757752D01*
X133473571Y-69757752D02*
X133511667Y-69833942D01*
X133511667Y-69833942D02*
X133549762Y-69872038D01*
X133549762Y-69872038D02*
X133625952Y-69910133D01*
X133625952Y-69910133D02*
X133778333Y-69910133D01*
X133778333Y-69910133D02*
X133854524Y-69872038D01*
X133854524Y-69872038D02*
X133892619Y-69833942D01*
X133892619Y-69833942D02*
X133930714Y-69757752D01*
X134159286Y-69414895D02*
X134425953Y-70214895D01*
X134425953Y-70214895D02*
X134692619Y-69414895D01*
X136591429Y-70214895D02*
X136591429Y-69414895D01*
X136591429Y-69414895D02*
X137048572Y-70214895D01*
X137048572Y-70214895D02*
X137048572Y-69414895D01*
X137886667Y-70138704D02*
X137848571Y-70176800D01*
X137848571Y-70176800D02*
X137734286Y-70214895D01*
X137734286Y-70214895D02*
X137658095Y-70214895D01*
X137658095Y-70214895D02*
X137543809Y-70176800D01*
X137543809Y-70176800D02*
X137467619Y-70100609D01*
X137467619Y-70100609D02*
X137429524Y-70024419D01*
X137429524Y-70024419D02*
X137391428Y-69872038D01*
X137391428Y-69872038D02*
X137391428Y-69757752D01*
X137391428Y-69757752D02*
X137429524Y-69605371D01*
X137429524Y-69605371D02*
X137467619Y-69529180D01*
X137467619Y-69529180D02*
X137543809Y-69452990D01*
X137543809Y-69452990D02*
X137658095Y-69414895D01*
X137658095Y-69414895D02*
X137734286Y-69414895D01*
X137734286Y-69414895D02*
X137848571Y-69452990D01*
X137848571Y-69452990D02*
X137886667Y-69491085D01*
X144151429Y-72754895D02*
X144151429Y-71954895D01*
X144151429Y-71954895D02*
X144608572Y-72754895D01*
X144608572Y-72754895D02*
X144608572Y-71954895D01*
X145446667Y-72678704D02*
X145408571Y-72716800D01*
X145408571Y-72716800D02*
X145294286Y-72754895D01*
X145294286Y-72754895D02*
X145218095Y-72754895D01*
X145218095Y-72754895D02*
X145103809Y-72716800D01*
X145103809Y-72716800D02*
X145027619Y-72640609D01*
X145027619Y-72640609D02*
X144989524Y-72564419D01*
X144989524Y-72564419D02*
X144951428Y-72412038D01*
X144951428Y-72412038D02*
X144951428Y-72297752D01*
X144951428Y-72297752D02*
X144989524Y-72145371D01*
X144989524Y-72145371D02*
X145027619Y-72069180D01*
X145027619Y-72069180D02*
X145103809Y-71992990D01*
X145103809Y-71992990D02*
X145218095Y-71954895D01*
X145218095Y-71954895D02*
X145294286Y-71954895D01*
X145294286Y-71954895D02*
X145408571Y-71992990D01*
X145408571Y-71992990D02*
X145446667Y-72031085D01*
D10*
X111821426Y-65859819D02*
X111345236Y-65859819D01*
X111345236Y-65859819D02*
X111345236Y-64859819D01*
X112154760Y-65859819D02*
X112154760Y-64859819D01*
X112154760Y-64859819D02*
X112392855Y-64859819D01*
X112392855Y-64859819D02*
X112535712Y-64907438D01*
X112535712Y-64907438D02*
X112630950Y-65002676D01*
X112630950Y-65002676D02*
X112678569Y-65097914D01*
X112678569Y-65097914D02*
X112726188Y-65288390D01*
X112726188Y-65288390D02*
X112726188Y-65431247D01*
X112726188Y-65431247D02*
X112678569Y-65621723D01*
X112678569Y-65621723D02*
X112630950Y-65716961D01*
X112630950Y-65716961D02*
X112535712Y-65812200D01*
X112535712Y-65812200D02*
X112392855Y-65859819D01*
X112392855Y-65859819D02*
X112154760Y-65859819D01*
X113726188Y-65859819D02*
X113392855Y-65383628D01*
X113154760Y-65859819D02*
X113154760Y-64859819D01*
X113154760Y-64859819D02*
X113535712Y-64859819D01*
X113535712Y-64859819D02*
X113630950Y-64907438D01*
X113630950Y-64907438D02*
X113678569Y-64955057D01*
X113678569Y-64955057D02*
X113726188Y-65050295D01*
X113726188Y-65050295D02*
X113726188Y-65193152D01*
X113726188Y-65193152D02*
X113678569Y-65288390D01*
X113678569Y-65288390D02*
X113630950Y-65336009D01*
X113630950Y-65336009D02*
X113535712Y-65383628D01*
X113535712Y-65383628D02*
X113154760Y-65383628D01*
X114583331Y-64859819D02*
X114392855Y-64859819D01*
X114392855Y-64859819D02*
X114297617Y-64907438D01*
X114297617Y-64907438D02*
X114249998Y-64955057D01*
X114249998Y-64955057D02*
X114154760Y-65097914D01*
X114154760Y-65097914D02*
X114107141Y-65288390D01*
X114107141Y-65288390D02*
X114107141Y-65669342D01*
X114107141Y-65669342D02*
X114154760Y-65764580D01*
X114154760Y-65764580D02*
X114202379Y-65812200D01*
X114202379Y-65812200D02*
X114297617Y-65859819D01*
X114297617Y-65859819D02*
X114488093Y-65859819D01*
X114488093Y-65859819D02*
X114583331Y-65812200D01*
X114583331Y-65812200D02*
X114630950Y-65764580D01*
X114630950Y-65764580D02*
X114678569Y-65669342D01*
X114678569Y-65669342D02*
X114678569Y-65431247D01*
X114678569Y-65431247D02*
X114630950Y-65336009D01*
X114630950Y-65336009D02*
X114583331Y-65288390D01*
X114583331Y-65288390D02*
X114488093Y-65240771D01*
X114488093Y-65240771D02*
X114297617Y-65240771D01*
X114297617Y-65240771D02*
X114202379Y-65288390D01*
X114202379Y-65288390D02*
X114154760Y-65336009D01*
X114154760Y-65336009D02*
X114107141Y-65431247D01*
X115011903Y-64859819D02*
X115630950Y-64859819D01*
X115630950Y-64859819D02*
X115297617Y-65240771D01*
X115297617Y-65240771D02*
X115440474Y-65240771D01*
X115440474Y-65240771D02*
X115535712Y-65288390D01*
X115535712Y-65288390D02*
X115583331Y-65336009D01*
X115583331Y-65336009D02*
X115630950Y-65431247D01*
X115630950Y-65431247D02*
X115630950Y-65669342D01*
X115630950Y-65669342D02*
X115583331Y-65764580D01*
X115583331Y-65764580D02*
X115535712Y-65812200D01*
X115535712Y-65812200D02*
X115440474Y-65859819D01*
X115440474Y-65859819D02*
X115154760Y-65859819D01*
X115154760Y-65859819D02*
X115059522Y-65812200D01*
X115059522Y-65812200D02*
X115011903Y-65764580D01*
X116011903Y-64955057D02*
X116059522Y-64907438D01*
X116059522Y-64907438D02*
X116154760Y-64859819D01*
X116154760Y-64859819D02*
X116392855Y-64859819D01*
X116392855Y-64859819D02*
X116488093Y-64907438D01*
X116488093Y-64907438D02*
X116535712Y-64955057D01*
X116535712Y-64955057D02*
X116583331Y-65050295D01*
X116583331Y-65050295D02*
X116583331Y-65145533D01*
X116583331Y-65145533D02*
X116535712Y-65288390D01*
X116535712Y-65288390D02*
X115964284Y-65859819D01*
X115964284Y-65859819D02*
X116583331Y-65859819D01*
X117535712Y-65859819D02*
X116964284Y-65859819D01*
X117249998Y-65859819D02*
X117249998Y-64859819D01*
X117249998Y-64859819D02*
X117154760Y-65002676D01*
X117154760Y-65002676D02*
X117059522Y-65097914D01*
X117059522Y-65097914D02*
X116964284Y-65145533D01*
X118726189Y-64859819D02*
X118726189Y-65669342D01*
X118726189Y-65669342D02*
X118773808Y-65764580D01*
X118773808Y-65764580D02*
X118821427Y-65812200D01*
X118821427Y-65812200D02*
X118916665Y-65859819D01*
X118916665Y-65859819D02*
X119107141Y-65859819D01*
X119107141Y-65859819D02*
X119202379Y-65812200D01*
X119202379Y-65812200D02*
X119249998Y-65764580D01*
X119249998Y-65764580D02*
X119297617Y-65669342D01*
X119297617Y-65669342D02*
X119297617Y-64859819D01*
X119726189Y-65812200D02*
X119869046Y-65859819D01*
X119869046Y-65859819D02*
X120107141Y-65859819D01*
X120107141Y-65859819D02*
X120202379Y-65812200D01*
X120202379Y-65812200D02*
X120249998Y-65764580D01*
X120249998Y-65764580D02*
X120297617Y-65669342D01*
X120297617Y-65669342D02*
X120297617Y-65574104D01*
X120297617Y-65574104D02*
X120249998Y-65478866D01*
X120249998Y-65478866D02*
X120202379Y-65431247D01*
X120202379Y-65431247D02*
X120107141Y-65383628D01*
X120107141Y-65383628D02*
X119916665Y-65336009D01*
X119916665Y-65336009D02*
X119821427Y-65288390D01*
X119821427Y-65288390D02*
X119773808Y-65240771D01*
X119773808Y-65240771D02*
X119726189Y-65145533D01*
X119726189Y-65145533D02*
X119726189Y-65050295D01*
X119726189Y-65050295D02*
X119773808Y-64955057D01*
X119773808Y-64955057D02*
X119821427Y-64907438D01*
X119821427Y-64907438D02*
X119916665Y-64859819D01*
X119916665Y-64859819D02*
X120154760Y-64859819D01*
X120154760Y-64859819D02*
X120297617Y-64907438D01*
X121059522Y-65336009D02*
X121202379Y-65383628D01*
X121202379Y-65383628D02*
X121249998Y-65431247D01*
X121249998Y-65431247D02*
X121297617Y-65526485D01*
X121297617Y-65526485D02*
X121297617Y-65669342D01*
X121297617Y-65669342D02*
X121249998Y-65764580D01*
X121249998Y-65764580D02*
X121202379Y-65812200D01*
X121202379Y-65812200D02*
X121107141Y-65859819D01*
X121107141Y-65859819D02*
X120726189Y-65859819D01*
X120726189Y-65859819D02*
X120726189Y-64859819D01*
X120726189Y-64859819D02*
X121059522Y-64859819D01*
X121059522Y-64859819D02*
X121154760Y-64907438D01*
X121154760Y-64907438D02*
X121202379Y-64955057D01*
X121202379Y-64955057D02*
X121249998Y-65050295D01*
X121249998Y-65050295D02*
X121249998Y-65145533D01*
X121249998Y-65145533D02*
X121202379Y-65240771D01*
X121202379Y-65240771D02*
X121154760Y-65288390D01*
X121154760Y-65288390D02*
X121059522Y-65336009D01*
X121059522Y-65336009D02*
X120726189Y-65336009D01*
X122488094Y-65859819D02*
X122488094Y-64859819D01*
X122488094Y-64859819D02*
X122869046Y-64859819D01*
X122869046Y-64859819D02*
X122964284Y-64907438D01*
X122964284Y-64907438D02*
X123011903Y-64955057D01*
X123011903Y-64955057D02*
X123059522Y-65050295D01*
X123059522Y-65050295D02*
X123059522Y-65193152D01*
X123059522Y-65193152D02*
X123011903Y-65288390D01*
X123011903Y-65288390D02*
X122964284Y-65336009D01*
X122964284Y-65336009D02*
X122869046Y-65383628D01*
X122869046Y-65383628D02*
X122488094Y-65383628D01*
X123488094Y-65859819D02*
X123488094Y-64859819D01*
X123488094Y-64859819D02*
X123726189Y-64859819D01*
X123726189Y-64859819D02*
X123869046Y-64907438D01*
X123869046Y-64907438D02*
X123964284Y-65002676D01*
X123964284Y-65002676D02*
X124011903Y-65097914D01*
X124011903Y-65097914D02*
X124059522Y-65288390D01*
X124059522Y-65288390D02*
X124059522Y-65431247D01*
X124059522Y-65431247D02*
X124011903Y-65621723D01*
X124011903Y-65621723D02*
X123964284Y-65716961D01*
X123964284Y-65716961D02*
X123869046Y-65812200D01*
X123869046Y-65812200D02*
X123726189Y-65859819D01*
X123726189Y-65859819D02*
X123488094Y-65859819D01*
X125107142Y-64859819D02*
X125678570Y-64859819D01*
X125392856Y-65859819D02*
X125392856Y-64859819D01*
X126011904Y-65859819D02*
X126011904Y-65193152D01*
X126011904Y-65383628D02*
X126059523Y-65288390D01*
X126059523Y-65288390D02*
X126107142Y-65240771D01*
X126107142Y-65240771D02*
X126202380Y-65193152D01*
X126202380Y-65193152D02*
X126297618Y-65193152D01*
X126630952Y-65859819D02*
X126630952Y-65193152D01*
X126630952Y-64859819D02*
X126583333Y-64907438D01*
X126583333Y-64907438D02*
X126630952Y-64955057D01*
X126630952Y-64955057D02*
X126678571Y-64907438D01*
X126678571Y-64907438D02*
X126630952Y-64859819D01*
X126630952Y-64859819D02*
X126630952Y-64955057D01*
X127535713Y-65193152D02*
X127535713Y-66002676D01*
X127535713Y-66002676D02*
X127488094Y-66097914D01*
X127488094Y-66097914D02*
X127440475Y-66145533D01*
X127440475Y-66145533D02*
X127345237Y-66193152D01*
X127345237Y-66193152D02*
X127202380Y-66193152D01*
X127202380Y-66193152D02*
X127107142Y-66145533D01*
X127535713Y-65812200D02*
X127440475Y-65859819D01*
X127440475Y-65859819D02*
X127249999Y-65859819D01*
X127249999Y-65859819D02*
X127154761Y-65812200D01*
X127154761Y-65812200D02*
X127107142Y-65764580D01*
X127107142Y-65764580D02*
X127059523Y-65669342D01*
X127059523Y-65669342D02*
X127059523Y-65383628D01*
X127059523Y-65383628D02*
X127107142Y-65288390D01*
X127107142Y-65288390D02*
X127154761Y-65240771D01*
X127154761Y-65240771D02*
X127249999Y-65193152D01*
X127249999Y-65193152D02*
X127440475Y-65193152D01*
X127440475Y-65193152D02*
X127535713Y-65240771D01*
X128440475Y-65193152D02*
X128440475Y-66002676D01*
X128440475Y-66002676D02*
X128392856Y-66097914D01*
X128392856Y-66097914D02*
X128345237Y-66145533D01*
X128345237Y-66145533D02*
X128249999Y-66193152D01*
X128249999Y-66193152D02*
X128107142Y-66193152D01*
X128107142Y-66193152D02*
X128011904Y-66145533D01*
X128440475Y-65812200D02*
X128345237Y-65859819D01*
X128345237Y-65859819D02*
X128154761Y-65859819D01*
X128154761Y-65859819D02*
X128059523Y-65812200D01*
X128059523Y-65812200D02*
X128011904Y-65764580D01*
X128011904Y-65764580D02*
X127964285Y-65669342D01*
X127964285Y-65669342D02*
X127964285Y-65383628D01*
X127964285Y-65383628D02*
X128011904Y-65288390D01*
X128011904Y-65288390D02*
X128059523Y-65240771D01*
X128059523Y-65240771D02*
X128154761Y-65193152D01*
X128154761Y-65193152D02*
X128345237Y-65193152D01*
X128345237Y-65193152D02*
X128440475Y-65240771D01*
X129297618Y-65812200D02*
X129202380Y-65859819D01*
X129202380Y-65859819D02*
X129011904Y-65859819D01*
X129011904Y-65859819D02*
X128916666Y-65812200D01*
X128916666Y-65812200D02*
X128869047Y-65716961D01*
X128869047Y-65716961D02*
X128869047Y-65336009D01*
X128869047Y-65336009D02*
X128916666Y-65240771D01*
X128916666Y-65240771D02*
X129011904Y-65193152D01*
X129011904Y-65193152D02*
X129202380Y-65193152D01*
X129202380Y-65193152D02*
X129297618Y-65240771D01*
X129297618Y-65240771D02*
X129345237Y-65336009D01*
X129345237Y-65336009D02*
X129345237Y-65431247D01*
X129345237Y-65431247D02*
X128869047Y-65526485D01*
X129773809Y-65859819D02*
X129773809Y-65193152D01*
X129773809Y-65383628D02*
X129821428Y-65288390D01*
X129821428Y-65288390D02*
X129869047Y-65240771D01*
X129869047Y-65240771D02*
X129964285Y-65193152D01*
X129964285Y-65193152D02*
X130059523Y-65193152D01*
X131011905Y-64859819D02*
X131583333Y-64859819D01*
X131297619Y-65859819D02*
X131297619Y-64859819D01*
X132297619Y-65812200D02*
X132202381Y-65859819D01*
X132202381Y-65859819D02*
X132011905Y-65859819D01*
X132011905Y-65859819D02*
X131916667Y-65812200D01*
X131916667Y-65812200D02*
X131869048Y-65716961D01*
X131869048Y-65716961D02*
X131869048Y-65336009D01*
X131869048Y-65336009D02*
X131916667Y-65240771D01*
X131916667Y-65240771D02*
X132011905Y-65193152D01*
X132011905Y-65193152D02*
X132202381Y-65193152D01*
X132202381Y-65193152D02*
X132297619Y-65240771D01*
X132297619Y-65240771D02*
X132345238Y-65336009D01*
X132345238Y-65336009D02*
X132345238Y-65431247D01*
X132345238Y-65431247D02*
X131869048Y-65526485D01*
X132726191Y-65812200D02*
X132821429Y-65859819D01*
X132821429Y-65859819D02*
X133011905Y-65859819D01*
X133011905Y-65859819D02*
X133107143Y-65812200D01*
X133107143Y-65812200D02*
X133154762Y-65716961D01*
X133154762Y-65716961D02*
X133154762Y-65669342D01*
X133154762Y-65669342D02*
X133107143Y-65574104D01*
X133107143Y-65574104D02*
X133011905Y-65526485D01*
X133011905Y-65526485D02*
X132869048Y-65526485D01*
X132869048Y-65526485D02*
X132773810Y-65478866D01*
X132773810Y-65478866D02*
X132726191Y-65383628D01*
X132726191Y-65383628D02*
X132726191Y-65336009D01*
X132726191Y-65336009D02*
X132773810Y-65240771D01*
X132773810Y-65240771D02*
X132869048Y-65193152D01*
X132869048Y-65193152D02*
X133011905Y-65193152D01*
X133011905Y-65193152D02*
X133107143Y-65240771D01*
X133440477Y-65193152D02*
X133821429Y-65193152D01*
X133583334Y-64859819D02*
X133583334Y-65716961D01*
X133583334Y-65716961D02*
X133630953Y-65812200D01*
X133630953Y-65812200D02*
X133726191Y-65859819D01*
X133726191Y-65859819D02*
X133821429Y-65859819D01*
X134535715Y-65812200D02*
X134440477Y-65859819D01*
X134440477Y-65859819D02*
X134250001Y-65859819D01*
X134250001Y-65859819D02*
X134154763Y-65812200D01*
X134154763Y-65812200D02*
X134107144Y-65716961D01*
X134107144Y-65716961D02*
X134107144Y-65336009D01*
X134107144Y-65336009D02*
X134154763Y-65240771D01*
X134154763Y-65240771D02*
X134250001Y-65193152D01*
X134250001Y-65193152D02*
X134440477Y-65193152D01*
X134440477Y-65193152D02*
X134535715Y-65240771D01*
X134535715Y-65240771D02*
X134583334Y-65336009D01*
X134583334Y-65336009D02*
X134583334Y-65431247D01*
X134583334Y-65431247D02*
X134107144Y-65526485D01*
X135011906Y-65859819D02*
X135011906Y-65193152D01*
X135011906Y-65383628D02*
X135059525Y-65288390D01*
X135059525Y-65288390D02*
X135107144Y-65240771D01*
X135107144Y-65240771D02*
X135202382Y-65193152D01*
X135202382Y-65193152D02*
X135297620Y-65193152D01*
D11*
X143365714Y-68144895D02*
X143565714Y-68944895D01*
X143565714Y-68944895D02*
X143765714Y-68144895D01*
X144308572Y-68868704D02*
X144280000Y-68906800D01*
X144280000Y-68906800D02*
X144194286Y-68944895D01*
X144194286Y-68944895D02*
X144137143Y-68944895D01*
X144137143Y-68944895D02*
X144051429Y-68906800D01*
X144051429Y-68906800D02*
X143994286Y-68830609D01*
X143994286Y-68830609D02*
X143965715Y-68754419D01*
X143965715Y-68754419D02*
X143937143Y-68602038D01*
X143937143Y-68602038D02*
X143937143Y-68487752D01*
X143937143Y-68487752D02*
X143965715Y-68335371D01*
X143965715Y-68335371D02*
X143994286Y-68259180D01*
X143994286Y-68259180D02*
X144051429Y-68182990D01*
X144051429Y-68182990D02*
X144137143Y-68144895D01*
X144137143Y-68144895D02*
X144194286Y-68144895D01*
X144194286Y-68144895D02*
X144280000Y-68182990D01*
X144280000Y-68182990D02*
X144308572Y-68221085D01*
X144680000Y-68144895D02*
X144794286Y-68144895D01*
X144794286Y-68144895D02*
X144851429Y-68182990D01*
X144851429Y-68182990D02*
X144908572Y-68259180D01*
X144908572Y-68259180D02*
X144937143Y-68411561D01*
X144937143Y-68411561D02*
X144937143Y-68678228D01*
X144937143Y-68678228D02*
X144908572Y-68830609D01*
X144908572Y-68830609D02*
X144851429Y-68906800D01*
X144851429Y-68906800D02*
X144794286Y-68944895D01*
X144794286Y-68944895D02*
X144680000Y-68944895D01*
X144680000Y-68944895D02*
X144622858Y-68906800D01*
X144622858Y-68906800D02*
X144565715Y-68830609D01*
X144565715Y-68830609D02*
X144537143Y-68678228D01*
X144537143Y-68678228D02*
X144537143Y-68411561D01*
X144537143Y-68411561D02*
X144565715Y-68259180D01*
X144565715Y-68259180D02*
X144622858Y-68182990D01*
X144622858Y-68182990D02*
X144680000Y-68144895D01*
X145194286Y-68944895D02*
X145194286Y-68144895D01*
X145194286Y-68144895D02*
X145537143Y-68944895D01*
X145537143Y-68944895D02*
X145537143Y-68144895D01*
X146137142Y-68944895D02*
X145794285Y-68944895D01*
X145965714Y-68944895D02*
X145965714Y-68144895D01*
X145965714Y-68144895D02*
X145908571Y-68259180D01*
X145908571Y-68259180D02*
X145851428Y-68335371D01*
X145851428Y-68335371D02*
X145794285Y-68373466D01*
X140493809Y-72754895D02*
X140036666Y-72754895D01*
X140265238Y-72754895D02*
X140265238Y-71954895D01*
X140265238Y-71954895D02*
X140189047Y-72069180D01*
X140189047Y-72069180D02*
X140112857Y-72145371D01*
X140112857Y-72145371D02*
X140036666Y-72183466D01*
X140989048Y-71954895D02*
X141065238Y-71954895D01*
X141065238Y-71954895D02*
X141141429Y-71992990D01*
X141141429Y-71992990D02*
X141179524Y-72031085D01*
X141179524Y-72031085D02*
X141217619Y-72107276D01*
X141217619Y-72107276D02*
X141255714Y-72259657D01*
X141255714Y-72259657D02*
X141255714Y-72450133D01*
X141255714Y-72450133D02*
X141217619Y-72602514D01*
X141217619Y-72602514D02*
X141179524Y-72678704D01*
X141179524Y-72678704D02*
X141141429Y-72716800D01*
X141141429Y-72716800D02*
X141065238Y-72754895D01*
X141065238Y-72754895D02*
X140989048Y-72754895D01*
X140989048Y-72754895D02*
X140912857Y-72716800D01*
X140912857Y-72716800D02*
X140874762Y-72678704D01*
X140874762Y-72678704D02*
X140836667Y-72602514D01*
X140836667Y-72602514D02*
X140798571Y-72450133D01*
X140798571Y-72450133D02*
X140798571Y-72259657D01*
X140798571Y-72259657D02*
X140836667Y-72107276D01*
X140836667Y-72107276D02*
X140874762Y-72031085D01*
X140874762Y-72031085D02*
X140912857Y-71992990D01*
X140912857Y-71992990D02*
X140989048Y-71954895D01*
X141598572Y-72754895D02*
X141598572Y-71954895D01*
X141674762Y-72450133D02*
X141903334Y-72754895D01*
X141903334Y-72221561D02*
X141598572Y-72526323D01*
X150605990Y-66141523D02*
X150567895Y-66217713D01*
X150567895Y-66217713D02*
X150567895Y-66331999D01*
X150567895Y-66331999D02*
X150605990Y-66446285D01*
X150605990Y-66446285D02*
X150682180Y-66522475D01*
X150682180Y-66522475D02*
X150758371Y-66560570D01*
X150758371Y-66560570D02*
X150910752Y-66598666D01*
X150910752Y-66598666D02*
X151025038Y-66598666D01*
X151025038Y-66598666D02*
X151177419Y-66560570D01*
X151177419Y-66560570D02*
X151253609Y-66522475D01*
X151253609Y-66522475D02*
X151329800Y-66446285D01*
X151329800Y-66446285D02*
X151367895Y-66331999D01*
X151367895Y-66331999D02*
X151367895Y-66255808D01*
X151367895Y-66255808D02*
X151329800Y-66141523D01*
X151329800Y-66141523D02*
X151291704Y-66103427D01*
X151291704Y-66103427D02*
X151025038Y-66103427D01*
X151025038Y-66103427D02*
X151025038Y-66255808D01*
X151367895Y-65760570D02*
X150567895Y-65760570D01*
X150567895Y-65760570D02*
X151367895Y-65303427D01*
X151367895Y-65303427D02*
X150567895Y-65303427D01*
X151367895Y-64922475D02*
X150567895Y-64922475D01*
X150567895Y-64922475D02*
X150567895Y-64731999D01*
X150567895Y-64731999D02*
X150605990Y-64617713D01*
X150605990Y-64617713D02*
X150682180Y-64541523D01*
X150682180Y-64541523D02*
X150758371Y-64503428D01*
X150758371Y-64503428D02*
X150910752Y-64465332D01*
X150910752Y-64465332D02*
X151025038Y-64465332D01*
X151025038Y-64465332D02*
X151177419Y-64503428D01*
X151177419Y-64503428D02*
X151253609Y-64541523D01*
X151253609Y-64541523D02*
X151329800Y-64617713D01*
X151329800Y-64617713D02*
X151367895Y-64731999D01*
X151367895Y-64731999D02*
X151367895Y-64922475D01*
D10*
X123183667Y-78835295D02*
X122917000Y-78454342D01*
X122726524Y-78835295D02*
X122726524Y-78035295D01*
X122726524Y-78035295D02*
X123031286Y-78035295D01*
X123031286Y-78035295D02*
X123107476Y-78073390D01*
X123107476Y-78073390D02*
X123145571Y-78111485D01*
X123145571Y-78111485D02*
X123183667Y-78187676D01*
X123183667Y-78187676D02*
X123183667Y-78301961D01*
X123183667Y-78301961D02*
X123145571Y-78378152D01*
X123145571Y-78378152D02*
X123107476Y-78416247D01*
X123107476Y-78416247D02*
X123031286Y-78454342D01*
X123031286Y-78454342D02*
X122726524Y-78454342D01*
X123907476Y-78035295D02*
X123526524Y-78035295D01*
X123526524Y-78035295D02*
X123488428Y-78416247D01*
X123488428Y-78416247D02*
X123526524Y-78378152D01*
X123526524Y-78378152D02*
X123602714Y-78340057D01*
X123602714Y-78340057D02*
X123793190Y-78340057D01*
X123793190Y-78340057D02*
X123869381Y-78378152D01*
X123869381Y-78378152D02*
X123907476Y-78416247D01*
X123907476Y-78416247D02*
X123945571Y-78492438D01*
X123945571Y-78492438D02*
X123945571Y-78682914D01*
X123945571Y-78682914D02*
X123907476Y-78759104D01*
X123907476Y-78759104D02*
X123869381Y-78797200D01*
X123869381Y-78797200D02*
X123793190Y-78835295D01*
X123793190Y-78835295D02*
X123602714Y-78835295D01*
X123602714Y-78835295D02*
X123526524Y-78797200D01*
X123526524Y-78797200D02*
X123488428Y-78759104D01*
X149120819Y-77041333D02*
X149835104Y-77041333D01*
X149835104Y-77041333D02*
X149977961Y-77088952D01*
X149977961Y-77088952D02*
X150073200Y-77184190D01*
X150073200Y-77184190D02*
X150120819Y-77327047D01*
X150120819Y-77327047D02*
X150120819Y-77422285D01*
X149216057Y-76612761D02*
X149168438Y-76565142D01*
X149168438Y-76565142D02*
X149120819Y-76469904D01*
X149120819Y-76469904D02*
X149120819Y-76231809D01*
X149120819Y-76231809D02*
X149168438Y-76136571D01*
X149168438Y-76136571D02*
X149216057Y-76088952D01*
X149216057Y-76088952D02*
X149311295Y-76041333D01*
X149311295Y-76041333D02*
X149406533Y-76041333D01*
X149406533Y-76041333D02*
X149549390Y-76088952D01*
X149549390Y-76088952D02*
X150120819Y-76660380D01*
X150120819Y-76660380D02*
X150120819Y-76041333D01*
X150361714Y-87103295D02*
X150095047Y-86722342D01*
X149904571Y-87103295D02*
X149904571Y-86303295D01*
X149904571Y-86303295D02*
X150209333Y-86303295D01*
X150209333Y-86303295D02*
X150285523Y-86341390D01*
X150285523Y-86341390D02*
X150323618Y-86379485D01*
X150323618Y-86379485D02*
X150361714Y-86455676D01*
X150361714Y-86455676D02*
X150361714Y-86569961D01*
X150361714Y-86569961D02*
X150323618Y-86646152D01*
X150323618Y-86646152D02*
X150285523Y-86684247D01*
X150285523Y-86684247D02*
X150209333Y-86722342D01*
X150209333Y-86722342D02*
X149904571Y-86722342D01*
X150666475Y-86379485D02*
X150704571Y-86341390D01*
X150704571Y-86341390D02*
X150780761Y-86303295D01*
X150780761Y-86303295D02*
X150971237Y-86303295D01*
X150971237Y-86303295D02*
X151047428Y-86341390D01*
X151047428Y-86341390D02*
X151085523Y-86379485D01*
X151085523Y-86379485D02*
X151123618Y-86455676D01*
X151123618Y-86455676D02*
X151123618Y-86531866D01*
X151123618Y-86531866D02*
X151085523Y-86646152D01*
X151085523Y-86646152D02*
X150628380Y-87103295D01*
X150628380Y-87103295D02*
X151123618Y-87103295D01*
X151428380Y-86379485D02*
X151466476Y-86341390D01*
X151466476Y-86341390D02*
X151542666Y-86303295D01*
X151542666Y-86303295D02*
X151733142Y-86303295D01*
X151733142Y-86303295D02*
X151809333Y-86341390D01*
X151809333Y-86341390D02*
X151847428Y-86379485D01*
X151847428Y-86379485D02*
X151885523Y-86455676D01*
X151885523Y-86455676D02*
X151885523Y-86531866D01*
X151885523Y-86531866D02*
X151847428Y-86646152D01*
X151847428Y-86646152D02*
X151390285Y-87103295D01*
X151390285Y-87103295D02*
X151885523Y-87103295D01*
X123063095Y-66256819D02*
X123063095Y-67066342D01*
X123063095Y-67066342D02*
X123110714Y-67161580D01*
X123110714Y-67161580D02*
X123158333Y-67209200D01*
X123158333Y-67209200D02*
X123253571Y-67256819D01*
X123253571Y-67256819D02*
X123444047Y-67256819D01*
X123444047Y-67256819D02*
X123539285Y-67209200D01*
X123539285Y-67209200D02*
X123586904Y-67161580D01*
X123586904Y-67161580D02*
X123634523Y-67066342D01*
X123634523Y-67066342D02*
X123634523Y-66256819D01*
X124634523Y-67256819D02*
X124063095Y-67256819D01*
X124348809Y-67256819D02*
X124348809Y-66256819D01*
X124348809Y-66256819D02*
X124253571Y-66399676D01*
X124253571Y-66399676D02*
X124158333Y-66494914D01*
X124158333Y-66494914D02*
X124063095Y-66542533D01*
X118611667Y-77121104D02*
X118573571Y-77159200D01*
X118573571Y-77159200D02*
X118459286Y-77197295D01*
X118459286Y-77197295D02*
X118383095Y-77197295D01*
X118383095Y-77197295D02*
X118268809Y-77159200D01*
X118268809Y-77159200D02*
X118192619Y-77083009D01*
X118192619Y-77083009D02*
X118154524Y-77006819D01*
X118154524Y-77006819D02*
X118116428Y-76854438D01*
X118116428Y-76854438D02*
X118116428Y-76740152D01*
X118116428Y-76740152D02*
X118154524Y-76587771D01*
X118154524Y-76587771D02*
X118192619Y-76511580D01*
X118192619Y-76511580D02*
X118268809Y-76435390D01*
X118268809Y-76435390D02*
X118383095Y-76397295D01*
X118383095Y-76397295D02*
X118459286Y-76397295D01*
X118459286Y-76397295D02*
X118573571Y-76435390D01*
X118573571Y-76435390D02*
X118611667Y-76473485D01*
X118878333Y-76397295D02*
X119373571Y-76397295D01*
X119373571Y-76397295D02*
X119106905Y-76702057D01*
X119106905Y-76702057D02*
X119221190Y-76702057D01*
X119221190Y-76702057D02*
X119297381Y-76740152D01*
X119297381Y-76740152D02*
X119335476Y-76778247D01*
X119335476Y-76778247D02*
X119373571Y-76854438D01*
X119373571Y-76854438D02*
X119373571Y-77044914D01*
X119373571Y-77044914D02*
X119335476Y-77121104D01*
X119335476Y-77121104D02*
X119297381Y-77159200D01*
X119297381Y-77159200D02*
X119221190Y-77197295D01*
X119221190Y-77197295D02*
X118992619Y-77197295D01*
X118992619Y-77197295D02*
X118916428Y-77159200D01*
X118916428Y-77159200D02*
X118878333Y-77121104D01*
X150869761Y-84309295D02*
X150488809Y-84309295D01*
X150488809Y-84309295D02*
X150488809Y-83509295D01*
X151136428Y-83890247D02*
X151403094Y-83890247D01*
X151517380Y-84309295D02*
X151136428Y-84309295D01*
X151136428Y-84309295D02*
X151136428Y-83509295D01*
X151136428Y-83509295D02*
X151517380Y-83509295D01*
X151860238Y-84309295D02*
X151860238Y-83509295D01*
X151860238Y-83509295D02*
X152050714Y-83509295D01*
X152050714Y-83509295D02*
X152165000Y-83547390D01*
X152165000Y-83547390D02*
X152241190Y-83623580D01*
X152241190Y-83623580D02*
X152279285Y-83699771D01*
X152279285Y-83699771D02*
X152317381Y-83852152D01*
X152317381Y-83852152D02*
X152317381Y-83966438D01*
X152317381Y-83966438D02*
X152279285Y-84118819D01*
X152279285Y-84118819D02*
X152241190Y-84195009D01*
X152241190Y-84195009D02*
X152165000Y-84271200D01*
X152165000Y-84271200D02*
X152050714Y-84309295D01*
X152050714Y-84309295D02*
X151860238Y-84309295D01*
X153079285Y-84309295D02*
X152622142Y-84309295D01*
X152850714Y-84309295D02*
X152850714Y-83509295D01*
X152850714Y-83509295D02*
X152774523Y-83623580D01*
X152774523Y-83623580D02*
X152698333Y-83699771D01*
X152698333Y-83699771D02*
X152622142Y-83737866D01*
X119920104Y-87750285D02*
X119958200Y-87788381D01*
X119958200Y-87788381D02*
X119996295Y-87902666D01*
X119996295Y-87902666D02*
X119996295Y-87978857D01*
X119996295Y-87978857D02*
X119958200Y-88093143D01*
X119958200Y-88093143D02*
X119882009Y-88169333D01*
X119882009Y-88169333D02*
X119805819Y-88207428D01*
X119805819Y-88207428D02*
X119653438Y-88245524D01*
X119653438Y-88245524D02*
X119539152Y-88245524D01*
X119539152Y-88245524D02*
X119386771Y-88207428D01*
X119386771Y-88207428D02*
X119310580Y-88169333D01*
X119310580Y-88169333D02*
X119234390Y-88093143D01*
X119234390Y-88093143D02*
X119196295Y-87978857D01*
X119196295Y-87978857D02*
X119196295Y-87902666D01*
X119196295Y-87902666D02*
X119234390Y-87788381D01*
X119234390Y-87788381D02*
X119272485Y-87750285D01*
X119996295Y-86988381D02*
X119996295Y-87445524D01*
X119996295Y-87216952D02*
X119196295Y-87216952D01*
X119196295Y-87216952D02*
X119310580Y-87293143D01*
X119310580Y-87293143D02*
X119386771Y-87369333D01*
X119386771Y-87369333D02*
X119424866Y-87445524D01*
X119996295Y-86226476D02*
X119996295Y-86683619D01*
X119996295Y-86455047D02*
X119196295Y-86455047D01*
X119196295Y-86455047D02*
X119310580Y-86531238D01*
X119310580Y-86531238D02*
X119386771Y-86607428D01*
X119386771Y-86607428D02*
X119424866Y-86683619D01*
X143618295Y-76841285D02*
X143237342Y-77107952D01*
X143618295Y-77298428D02*
X142818295Y-77298428D01*
X142818295Y-77298428D02*
X142818295Y-76993666D01*
X142818295Y-76993666D02*
X142856390Y-76917476D01*
X142856390Y-76917476D02*
X142894485Y-76879381D01*
X142894485Y-76879381D02*
X142970676Y-76841285D01*
X142970676Y-76841285D02*
X143084961Y-76841285D01*
X143084961Y-76841285D02*
X143161152Y-76879381D01*
X143161152Y-76879381D02*
X143199247Y-76917476D01*
X143199247Y-76917476D02*
X143237342Y-76993666D01*
X143237342Y-76993666D02*
X143237342Y-77298428D01*
X143618295Y-76079381D02*
X143618295Y-76536524D01*
X143618295Y-76307952D02*
X142818295Y-76307952D01*
X142818295Y-76307952D02*
X142932580Y-76384143D01*
X142932580Y-76384143D02*
X143008771Y-76460333D01*
X143008771Y-76460333D02*
X143046866Y-76536524D01*
X142894485Y-75774619D02*
X142856390Y-75736523D01*
X142856390Y-75736523D02*
X142818295Y-75660333D01*
X142818295Y-75660333D02*
X142818295Y-75469857D01*
X142818295Y-75469857D02*
X142856390Y-75393666D01*
X142856390Y-75393666D02*
X142894485Y-75355571D01*
X142894485Y-75355571D02*
X142970676Y-75317476D01*
X142970676Y-75317476D02*
X143046866Y-75317476D01*
X143046866Y-75317476D02*
X143161152Y-75355571D01*
X143161152Y-75355571D02*
X143618295Y-75812714D01*
X143618295Y-75812714D02*
X143618295Y-75317476D01*
X121405714Y-83928295D02*
X121139047Y-83547342D01*
X120948571Y-83928295D02*
X120948571Y-83128295D01*
X120948571Y-83128295D02*
X121253333Y-83128295D01*
X121253333Y-83128295D02*
X121329523Y-83166390D01*
X121329523Y-83166390D02*
X121367618Y-83204485D01*
X121367618Y-83204485D02*
X121405714Y-83280676D01*
X121405714Y-83280676D02*
X121405714Y-83394961D01*
X121405714Y-83394961D02*
X121367618Y-83471152D01*
X121367618Y-83471152D02*
X121329523Y-83509247D01*
X121329523Y-83509247D02*
X121253333Y-83547342D01*
X121253333Y-83547342D02*
X120948571Y-83547342D01*
X122167618Y-83928295D02*
X121710475Y-83928295D01*
X121939047Y-83928295D02*
X121939047Y-83128295D01*
X121939047Y-83128295D02*
X121862856Y-83242580D01*
X121862856Y-83242580D02*
X121786666Y-83318771D01*
X121786666Y-83318771D02*
X121710475Y-83356866D01*
X122853333Y-83394961D02*
X122853333Y-83928295D01*
X122662857Y-83090200D02*
X122472380Y-83661628D01*
X122472380Y-83661628D02*
X122967619Y-83661628D01*
X141078295Y-76651285D02*
X140697342Y-76917952D01*
X141078295Y-77108428D02*
X140278295Y-77108428D01*
X140278295Y-77108428D02*
X140278295Y-76803666D01*
X140278295Y-76803666D02*
X140316390Y-76727476D01*
X140316390Y-76727476D02*
X140354485Y-76689381D01*
X140354485Y-76689381D02*
X140430676Y-76651285D01*
X140430676Y-76651285D02*
X140544961Y-76651285D01*
X140544961Y-76651285D02*
X140621152Y-76689381D01*
X140621152Y-76689381D02*
X140659247Y-76727476D01*
X140659247Y-76727476D02*
X140697342Y-76803666D01*
X140697342Y-76803666D02*
X140697342Y-77108428D01*
X141078295Y-75889381D02*
X141078295Y-76346524D01*
X141078295Y-76117952D02*
X140278295Y-76117952D01*
X140278295Y-76117952D02*
X140392580Y-76194143D01*
X140392580Y-76194143D02*
X140468771Y-76270333D01*
X140468771Y-76270333D02*
X140506866Y-76346524D01*
X140278295Y-75622714D02*
X140278295Y-75127476D01*
X140278295Y-75127476D02*
X140583057Y-75394142D01*
X140583057Y-75394142D02*
X140583057Y-75279857D01*
X140583057Y-75279857D02*
X140621152Y-75203666D01*
X140621152Y-75203666D02*
X140659247Y-75165571D01*
X140659247Y-75165571D02*
X140735438Y-75127476D01*
X140735438Y-75127476D02*
X140925914Y-75127476D01*
X140925914Y-75127476D02*
X141002104Y-75165571D01*
X141002104Y-75165571D02*
X141040200Y-75203666D01*
X141040200Y-75203666D02*
X141078295Y-75279857D01*
X141078295Y-75279857D02*
X141078295Y-75508428D01*
X141078295Y-75508428D02*
X141040200Y-75584619D01*
X141040200Y-75584619D02*
X141002104Y-75622714D01*
X123171295Y-88144332D02*
X122790342Y-88410999D01*
X123171295Y-88601475D02*
X122371295Y-88601475D01*
X122371295Y-88601475D02*
X122371295Y-88296713D01*
X122371295Y-88296713D02*
X122409390Y-88220523D01*
X122409390Y-88220523D02*
X122447485Y-88182428D01*
X122447485Y-88182428D02*
X122523676Y-88144332D01*
X122523676Y-88144332D02*
X122637961Y-88144332D01*
X122637961Y-88144332D02*
X122714152Y-88182428D01*
X122714152Y-88182428D02*
X122752247Y-88220523D01*
X122752247Y-88220523D02*
X122790342Y-88296713D01*
X122790342Y-88296713D02*
X122790342Y-88601475D01*
X123171295Y-87382428D02*
X123171295Y-87839571D01*
X123171295Y-87610999D02*
X122371295Y-87610999D01*
X122371295Y-87610999D02*
X122485580Y-87687190D01*
X122485580Y-87687190D02*
X122561771Y-87763380D01*
X122561771Y-87763380D02*
X122599866Y-87839571D01*
X126746095Y-85070819D02*
X126746095Y-85880342D01*
X126746095Y-85880342D02*
X126793714Y-85975580D01*
X126793714Y-85975580D02*
X126841333Y-86023200D01*
X126841333Y-86023200D02*
X126936571Y-86070819D01*
X126936571Y-86070819D02*
X127127047Y-86070819D01*
X127127047Y-86070819D02*
X127222285Y-86023200D01*
X127222285Y-86023200D02*
X127269904Y-85975580D01*
X127269904Y-85975580D02*
X127317523Y-85880342D01*
X127317523Y-85880342D02*
X127317523Y-85070819D01*
X127746095Y-85166057D02*
X127793714Y-85118438D01*
X127793714Y-85118438D02*
X127888952Y-85070819D01*
X127888952Y-85070819D02*
X128127047Y-85070819D01*
X128127047Y-85070819D02*
X128222285Y-85118438D01*
X128222285Y-85118438D02*
X128269904Y-85166057D01*
X128269904Y-85166057D02*
X128317523Y-85261295D01*
X128317523Y-85261295D02*
X128317523Y-85356533D01*
X128317523Y-85356533D02*
X128269904Y-85499390D01*
X128269904Y-85499390D02*
X127698476Y-86070819D01*
X127698476Y-86070819D02*
X128317523Y-86070819D01*
X121825104Y-88144332D02*
X121863200Y-88182428D01*
X121863200Y-88182428D02*
X121901295Y-88296713D01*
X121901295Y-88296713D02*
X121901295Y-88372904D01*
X121901295Y-88372904D02*
X121863200Y-88487190D01*
X121863200Y-88487190D02*
X121787009Y-88563380D01*
X121787009Y-88563380D02*
X121710819Y-88601475D01*
X121710819Y-88601475D02*
X121558438Y-88639571D01*
X121558438Y-88639571D02*
X121444152Y-88639571D01*
X121444152Y-88639571D02*
X121291771Y-88601475D01*
X121291771Y-88601475D02*
X121215580Y-88563380D01*
X121215580Y-88563380D02*
X121139390Y-88487190D01*
X121139390Y-88487190D02*
X121101295Y-88372904D01*
X121101295Y-88372904D02*
X121101295Y-88296713D01*
X121101295Y-88296713D02*
X121139390Y-88182428D01*
X121139390Y-88182428D02*
X121177485Y-88144332D01*
X121101295Y-87877666D02*
X121101295Y-87344332D01*
X121101295Y-87344332D02*
X121901295Y-87687190D01*
X114840104Y-69221332D02*
X114878200Y-69259428D01*
X114878200Y-69259428D02*
X114916295Y-69373713D01*
X114916295Y-69373713D02*
X114916295Y-69449904D01*
X114916295Y-69449904D02*
X114878200Y-69564190D01*
X114878200Y-69564190D02*
X114802009Y-69640380D01*
X114802009Y-69640380D02*
X114725819Y-69678475D01*
X114725819Y-69678475D02*
X114573438Y-69716571D01*
X114573438Y-69716571D02*
X114459152Y-69716571D01*
X114459152Y-69716571D02*
X114306771Y-69678475D01*
X114306771Y-69678475D02*
X114230580Y-69640380D01*
X114230580Y-69640380D02*
X114154390Y-69564190D01*
X114154390Y-69564190D02*
X114116295Y-69449904D01*
X114116295Y-69449904D02*
X114116295Y-69373713D01*
X114116295Y-69373713D02*
X114154390Y-69259428D01*
X114154390Y-69259428D02*
X114192485Y-69221332D01*
X114116295Y-68535618D02*
X114116295Y-68687999D01*
X114116295Y-68687999D02*
X114154390Y-68764190D01*
X114154390Y-68764190D02*
X114192485Y-68802285D01*
X114192485Y-68802285D02*
X114306771Y-68878475D01*
X114306771Y-68878475D02*
X114459152Y-68916571D01*
X114459152Y-68916571D02*
X114763914Y-68916571D01*
X114763914Y-68916571D02*
X114840104Y-68878475D01*
X114840104Y-68878475D02*
X114878200Y-68840380D01*
X114878200Y-68840380D02*
X114916295Y-68764190D01*
X114916295Y-68764190D02*
X114916295Y-68611809D01*
X114916295Y-68611809D02*
X114878200Y-68535618D01*
X114878200Y-68535618D02*
X114840104Y-68497523D01*
X114840104Y-68497523D02*
X114763914Y-68459428D01*
X114763914Y-68459428D02*
X114573438Y-68459428D01*
X114573438Y-68459428D02*
X114497247Y-68497523D01*
X114497247Y-68497523D02*
X114459152Y-68535618D01*
X114459152Y-68535618D02*
X114421057Y-68611809D01*
X114421057Y-68611809D02*
X114421057Y-68764190D01*
X114421057Y-68764190D02*
X114459152Y-68840380D01*
X114459152Y-68840380D02*
X114497247Y-68878475D01*
X114497247Y-68878475D02*
X114573438Y-68916571D01*
X148824666Y-70574819D02*
X148824666Y-71289104D01*
X148824666Y-71289104D02*
X148777047Y-71431961D01*
X148777047Y-71431961D02*
X148681809Y-71527200D01*
X148681809Y-71527200D02*
X148538952Y-71574819D01*
X148538952Y-71574819D02*
X148443714Y-71574819D01*
X149205619Y-70574819D02*
X149824666Y-70574819D01*
X149824666Y-70574819D02*
X149491333Y-70955771D01*
X149491333Y-70955771D02*
X149634190Y-70955771D01*
X149634190Y-70955771D02*
X149729428Y-71003390D01*
X149729428Y-71003390D02*
X149777047Y-71051009D01*
X149777047Y-71051009D02*
X149824666Y-71146247D01*
X149824666Y-71146247D02*
X149824666Y-71384342D01*
X149824666Y-71384342D02*
X149777047Y-71479580D01*
X149777047Y-71479580D02*
X149729428Y-71527200D01*
X149729428Y-71527200D02*
X149634190Y-71574819D01*
X149634190Y-71574819D02*
X149348476Y-71574819D01*
X149348476Y-71574819D02*
X149253238Y-71527200D01*
X149253238Y-71527200D02*
X149205619Y-71479580D01*
X128898714Y-77565295D02*
X128632047Y-77184342D01*
X128441571Y-77565295D02*
X128441571Y-76765295D01*
X128441571Y-76765295D02*
X128746333Y-76765295D01*
X128746333Y-76765295D02*
X128822523Y-76803390D01*
X128822523Y-76803390D02*
X128860618Y-76841485D01*
X128860618Y-76841485D02*
X128898714Y-76917676D01*
X128898714Y-76917676D02*
X128898714Y-77031961D01*
X128898714Y-77031961D02*
X128860618Y-77108152D01*
X128860618Y-77108152D02*
X128822523Y-77146247D01*
X128822523Y-77146247D02*
X128746333Y-77184342D01*
X128746333Y-77184342D02*
X128441571Y-77184342D01*
X129660618Y-77565295D02*
X129203475Y-77565295D01*
X129432047Y-77565295D02*
X129432047Y-76765295D01*
X129432047Y-76765295D02*
X129355856Y-76879580D01*
X129355856Y-76879580D02*
X129279666Y-76955771D01*
X129279666Y-76955771D02*
X129203475Y-76993866D01*
X130155857Y-76765295D02*
X130232047Y-76765295D01*
X130232047Y-76765295D02*
X130308238Y-76803390D01*
X130308238Y-76803390D02*
X130346333Y-76841485D01*
X130346333Y-76841485D02*
X130384428Y-76917676D01*
X130384428Y-76917676D02*
X130422523Y-77070057D01*
X130422523Y-77070057D02*
X130422523Y-77260533D01*
X130422523Y-77260533D02*
X130384428Y-77412914D01*
X130384428Y-77412914D02*
X130346333Y-77489104D01*
X130346333Y-77489104D02*
X130308238Y-77527200D01*
X130308238Y-77527200D02*
X130232047Y-77565295D01*
X130232047Y-77565295D02*
X130155857Y-77565295D01*
X130155857Y-77565295D02*
X130079666Y-77527200D01*
X130079666Y-77527200D02*
X130041571Y-77489104D01*
X130041571Y-77489104D02*
X130003476Y-77412914D01*
X130003476Y-77412914D02*
X129965380Y-77260533D01*
X129965380Y-77260533D02*
X129965380Y-77070057D01*
X129965380Y-77070057D02*
X130003476Y-76917676D01*
X130003476Y-76917676D02*
X130041571Y-76841485D01*
X130041571Y-76841485D02*
X130079666Y-76803390D01*
X130079666Y-76803390D02*
X130155857Y-76765295D01*
X135502667Y-81883295D02*
X135236000Y-81502342D01*
X135045524Y-81883295D02*
X135045524Y-81083295D01*
X135045524Y-81083295D02*
X135350286Y-81083295D01*
X135350286Y-81083295D02*
X135426476Y-81121390D01*
X135426476Y-81121390D02*
X135464571Y-81159485D01*
X135464571Y-81159485D02*
X135502667Y-81235676D01*
X135502667Y-81235676D02*
X135502667Y-81349961D01*
X135502667Y-81349961D02*
X135464571Y-81426152D01*
X135464571Y-81426152D02*
X135426476Y-81464247D01*
X135426476Y-81464247D02*
X135350286Y-81502342D01*
X135350286Y-81502342D02*
X135045524Y-81502342D01*
X135769333Y-81083295D02*
X136264571Y-81083295D01*
X136264571Y-81083295D02*
X135997905Y-81388057D01*
X135997905Y-81388057D02*
X136112190Y-81388057D01*
X136112190Y-81388057D02*
X136188381Y-81426152D01*
X136188381Y-81426152D02*
X136226476Y-81464247D01*
X136226476Y-81464247D02*
X136264571Y-81540438D01*
X136264571Y-81540438D02*
X136264571Y-81730914D01*
X136264571Y-81730914D02*
X136226476Y-81807104D01*
X136226476Y-81807104D02*
X136188381Y-81845200D01*
X136188381Y-81845200D02*
X136112190Y-81883295D01*
X136112190Y-81883295D02*
X135883619Y-81883295D01*
X135883619Y-81883295D02*
X135807428Y-81845200D01*
X135807428Y-81845200D02*
X135769333Y-81807104D01*
X123183667Y-77311295D02*
X122917000Y-76930342D01*
X122726524Y-77311295D02*
X122726524Y-76511295D01*
X122726524Y-76511295D02*
X123031286Y-76511295D01*
X123031286Y-76511295D02*
X123107476Y-76549390D01*
X123107476Y-76549390D02*
X123145571Y-76587485D01*
X123145571Y-76587485D02*
X123183667Y-76663676D01*
X123183667Y-76663676D02*
X123183667Y-76777961D01*
X123183667Y-76777961D02*
X123145571Y-76854152D01*
X123145571Y-76854152D02*
X123107476Y-76892247D01*
X123107476Y-76892247D02*
X123031286Y-76930342D01*
X123031286Y-76930342D02*
X122726524Y-76930342D01*
X123869381Y-76511295D02*
X123717000Y-76511295D01*
X123717000Y-76511295D02*
X123640809Y-76549390D01*
X123640809Y-76549390D02*
X123602714Y-76587485D01*
X123602714Y-76587485D02*
X123526524Y-76701771D01*
X123526524Y-76701771D02*
X123488428Y-76854152D01*
X123488428Y-76854152D02*
X123488428Y-77158914D01*
X123488428Y-77158914D02*
X123526524Y-77235104D01*
X123526524Y-77235104D02*
X123564619Y-77273200D01*
X123564619Y-77273200D02*
X123640809Y-77311295D01*
X123640809Y-77311295D02*
X123793190Y-77311295D01*
X123793190Y-77311295D02*
X123869381Y-77273200D01*
X123869381Y-77273200D02*
X123907476Y-77235104D01*
X123907476Y-77235104D02*
X123945571Y-77158914D01*
X123945571Y-77158914D02*
X123945571Y-76968438D01*
X123945571Y-76968438D02*
X123907476Y-76892247D01*
X123907476Y-76892247D02*
X123869381Y-76854152D01*
X123869381Y-76854152D02*
X123793190Y-76816057D01*
X123793190Y-76816057D02*
X123640809Y-76816057D01*
X123640809Y-76816057D02*
X123564619Y-76854152D01*
X123564619Y-76854152D02*
X123526524Y-76892247D01*
X123526524Y-76892247D02*
X123488428Y-76968438D01*
X141922667Y-83592200D02*
X142065524Y-83639819D01*
X142065524Y-83639819D02*
X142303619Y-83639819D01*
X142303619Y-83639819D02*
X142398857Y-83592200D01*
X142398857Y-83592200D02*
X142446476Y-83544580D01*
X142446476Y-83544580D02*
X142494095Y-83449342D01*
X142494095Y-83449342D02*
X142494095Y-83354104D01*
X142494095Y-83354104D02*
X142446476Y-83258866D01*
X142446476Y-83258866D02*
X142398857Y-83211247D01*
X142398857Y-83211247D02*
X142303619Y-83163628D01*
X142303619Y-83163628D02*
X142113143Y-83116009D01*
X142113143Y-83116009D02*
X142017905Y-83068390D01*
X142017905Y-83068390D02*
X141970286Y-83020771D01*
X141970286Y-83020771D02*
X141922667Y-82925533D01*
X141922667Y-82925533D02*
X141922667Y-82830295D01*
X141922667Y-82830295D02*
X141970286Y-82735057D01*
X141970286Y-82735057D02*
X142017905Y-82687438D01*
X142017905Y-82687438D02*
X142113143Y-82639819D01*
X142113143Y-82639819D02*
X142351238Y-82639819D01*
X142351238Y-82639819D02*
X142494095Y-82687438D01*
X142827429Y-82639819D02*
X143065524Y-83639819D01*
X143065524Y-83639819D02*
X143256000Y-82925533D01*
X143256000Y-82925533D02*
X143446476Y-83639819D01*
X143446476Y-83639819D02*
X143684572Y-82639819D01*
X144589333Y-83639819D02*
X144017905Y-83639819D01*
X144303619Y-83639819D02*
X144303619Y-82639819D01*
X144303619Y-82639819D02*
X144208381Y-82782676D01*
X144208381Y-82782676D02*
X144113143Y-82877914D01*
X144113143Y-82877914D02*
X144017905Y-82925533D01*
X120135714Y-79610295D02*
X119869047Y-79229342D01*
X119678571Y-79610295D02*
X119678571Y-78810295D01*
X119678571Y-78810295D02*
X119983333Y-78810295D01*
X119983333Y-78810295D02*
X120059523Y-78848390D01*
X120059523Y-78848390D02*
X120097618Y-78886485D01*
X120097618Y-78886485D02*
X120135714Y-78962676D01*
X120135714Y-78962676D02*
X120135714Y-79076961D01*
X120135714Y-79076961D02*
X120097618Y-79153152D01*
X120097618Y-79153152D02*
X120059523Y-79191247D01*
X120059523Y-79191247D02*
X119983333Y-79229342D01*
X119983333Y-79229342D02*
X119678571Y-79229342D01*
X120897618Y-79610295D02*
X120440475Y-79610295D01*
X120669047Y-79610295D02*
X120669047Y-78810295D01*
X120669047Y-78810295D02*
X120592856Y-78924580D01*
X120592856Y-78924580D02*
X120516666Y-79000771D01*
X120516666Y-79000771D02*
X120440475Y-79038866D01*
X121621428Y-78810295D02*
X121240476Y-78810295D01*
X121240476Y-78810295D02*
X121202380Y-79191247D01*
X121202380Y-79191247D02*
X121240476Y-79153152D01*
X121240476Y-79153152D02*
X121316666Y-79115057D01*
X121316666Y-79115057D02*
X121507142Y-79115057D01*
X121507142Y-79115057D02*
X121583333Y-79153152D01*
X121583333Y-79153152D02*
X121621428Y-79191247D01*
X121621428Y-79191247D02*
X121659523Y-79267438D01*
X121659523Y-79267438D02*
X121659523Y-79457914D01*
X121659523Y-79457914D02*
X121621428Y-79534104D01*
X121621428Y-79534104D02*
X121583333Y-79572200D01*
X121583333Y-79572200D02*
X121507142Y-79610295D01*
X121507142Y-79610295D02*
X121316666Y-79610295D01*
X121316666Y-79610295D02*
X121240476Y-79572200D01*
X121240476Y-79572200D02*
X121202380Y-79534104D01*
X113143819Y-83288094D02*
X112143819Y-83288094D01*
X112143819Y-83288094D02*
X112143819Y-83049999D01*
X112143819Y-83049999D02*
X112191438Y-82907142D01*
X112191438Y-82907142D02*
X112286676Y-82811904D01*
X112286676Y-82811904D02*
X112381914Y-82764285D01*
X112381914Y-82764285D02*
X112572390Y-82716666D01*
X112572390Y-82716666D02*
X112715247Y-82716666D01*
X112715247Y-82716666D02*
X112905723Y-82764285D01*
X112905723Y-82764285D02*
X113000961Y-82811904D01*
X113000961Y-82811904D02*
X113096200Y-82907142D01*
X113096200Y-82907142D02*
X113143819Y-83049999D01*
X113143819Y-83049999D02*
X113143819Y-83288094D01*
X113143819Y-81764285D02*
X113143819Y-82335713D01*
X113143819Y-82049999D02*
X112143819Y-82049999D01*
X112143819Y-82049999D02*
X112286676Y-82145237D01*
X112286676Y-82145237D02*
X112381914Y-82240475D01*
X112381914Y-82240475D02*
X112429533Y-82335713D01*
X130631295Y-71253285D02*
X130250342Y-71519952D01*
X130631295Y-71710428D02*
X129831295Y-71710428D01*
X129831295Y-71710428D02*
X129831295Y-71405666D01*
X129831295Y-71405666D02*
X129869390Y-71329476D01*
X129869390Y-71329476D02*
X129907485Y-71291381D01*
X129907485Y-71291381D02*
X129983676Y-71253285D01*
X129983676Y-71253285D02*
X130097961Y-71253285D01*
X130097961Y-71253285D02*
X130174152Y-71291381D01*
X130174152Y-71291381D02*
X130212247Y-71329476D01*
X130212247Y-71329476D02*
X130250342Y-71405666D01*
X130250342Y-71405666D02*
X130250342Y-71710428D01*
X130631295Y-70491381D02*
X130631295Y-70948524D01*
X130631295Y-70719952D02*
X129831295Y-70719952D01*
X129831295Y-70719952D02*
X129945580Y-70796143D01*
X129945580Y-70796143D02*
X130021771Y-70872333D01*
X130021771Y-70872333D02*
X130059866Y-70948524D01*
X130174152Y-70034238D02*
X130136057Y-70110428D01*
X130136057Y-70110428D02*
X130097961Y-70148523D01*
X130097961Y-70148523D02*
X130021771Y-70186619D01*
X130021771Y-70186619D02*
X129983676Y-70186619D01*
X129983676Y-70186619D02*
X129907485Y-70148523D01*
X129907485Y-70148523D02*
X129869390Y-70110428D01*
X129869390Y-70110428D02*
X129831295Y-70034238D01*
X129831295Y-70034238D02*
X129831295Y-69881857D01*
X129831295Y-69881857D02*
X129869390Y-69805666D01*
X129869390Y-69805666D02*
X129907485Y-69767571D01*
X129907485Y-69767571D02*
X129983676Y-69729476D01*
X129983676Y-69729476D02*
X130021771Y-69729476D01*
X130021771Y-69729476D02*
X130097961Y-69767571D01*
X130097961Y-69767571D02*
X130136057Y-69805666D01*
X130136057Y-69805666D02*
X130174152Y-69881857D01*
X130174152Y-69881857D02*
X130174152Y-70034238D01*
X130174152Y-70034238D02*
X130212247Y-70110428D01*
X130212247Y-70110428D02*
X130250342Y-70148523D01*
X130250342Y-70148523D02*
X130326533Y-70186619D01*
X130326533Y-70186619D02*
X130478914Y-70186619D01*
X130478914Y-70186619D02*
X130555104Y-70148523D01*
X130555104Y-70148523D02*
X130593200Y-70110428D01*
X130593200Y-70110428D02*
X130631295Y-70034238D01*
X130631295Y-70034238D02*
X130631295Y-69881857D01*
X130631295Y-69881857D02*
X130593200Y-69805666D01*
X130593200Y-69805666D02*
X130555104Y-69767571D01*
X130555104Y-69767571D02*
X130478914Y-69729476D01*
X130478914Y-69729476D02*
X130326533Y-69729476D01*
X130326533Y-69729476D02*
X130250342Y-69767571D01*
X130250342Y-69767571D02*
X130212247Y-69805666D01*
X130212247Y-69805666D02*
X130174152Y-69881857D01*
X135502667Y-78848295D02*
X135236000Y-78467342D01*
X135045524Y-78848295D02*
X135045524Y-78048295D01*
X135045524Y-78048295D02*
X135350286Y-78048295D01*
X135350286Y-78048295D02*
X135426476Y-78086390D01*
X135426476Y-78086390D02*
X135464571Y-78124485D01*
X135464571Y-78124485D02*
X135502667Y-78200676D01*
X135502667Y-78200676D02*
X135502667Y-78314961D01*
X135502667Y-78314961D02*
X135464571Y-78391152D01*
X135464571Y-78391152D02*
X135426476Y-78429247D01*
X135426476Y-78429247D02*
X135350286Y-78467342D01*
X135350286Y-78467342D02*
X135045524Y-78467342D01*
X136188381Y-78314961D02*
X136188381Y-78848295D01*
X135997905Y-78010200D02*
X135807428Y-78581628D01*
X135807428Y-78581628D02*
X136302667Y-78581628D01*
X130631295Y-74428285D02*
X130250342Y-74694952D01*
X130631295Y-74885428D02*
X129831295Y-74885428D01*
X129831295Y-74885428D02*
X129831295Y-74580666D01*
X129831295Y-74580666D02*
X129869390Y-74504476D01*
X129869390Y-74504476D02*
X129907485Y-74466381D01*
X129907485Y-74466381D02*
X129983676Y-74428285D01*
X129983676Y-74428285D02*
X130097961Y-74428285D01*
X130097961Y-74428285D02*
X130174152Y-74466381D01*
X130174152Y-74466381D02*
X130212247Y-74504476D01*
X130212247Y-74504476D02*
X130250342Y-74580666D01*
X130250342Y-74580666D02*
X130250342Y-74885428D01*
X129907485Y-74123524D02*
X129869390Y-74085428D01*
X129869390Y-74085428D02*
X129831295Y-74009238D01*
X129831295Y-74009238D02*
X129831295Y-73818762D01*
X129831295Y-73818762D02*
X129869390Y-73742571D01*
X129869390Y-73742571D02*
X129907485Y-73704476D01*
X129907485Y-73704476D02*
X129983676Y-73666381D01*
X129983676Y-73666381D02*
X130059866Y-73666381D01*
X130059866Y-73666381D02*
X130174152Y-73704476D01*
X130174152Y-73704476D02*
X130631295Y-74161619D01*
X130631295Y-74161619D02*
X130631295Y-73666381D01*
X130631295Y-72904476D02*
X130631295Y-73361619D01*
X130631295Y-73133047D02*
X129831295Y-73133047D01*
X129831295Y-73133047D02*
X129945580Y-73209238D01*
X129945580Y-73209238D02*
X130021771Y-73285428D01*
X130021771Y-73285428D02*
X130059866Y-73361619D01*
X102638819Y-79461904D02*
X102638819Y-78890476D01*
X103638819Y-79176190D02*
X102638819Y-79176190D01*
X103162628Y-78366666D02*
X103638819Y-78366666D01*
X102638819Y-78699999D02*
X103162628Y-78366666D01*
X103162628Y-78366666D02*
X102638819Y-78033333D01*
X103638819Y-77699999D02*
X102638819Y-77699999D01*
X102638819Y-77699999D02*
X102638819Y-77319047D01*
X102638819Y-77319047D02*
X102686438Y-77223809D01*
X102686438Y-77223809D02*
X102734057Y-77176190D01*
X102734057Y-77176190D02*
X102829295Y-77128571D01*
X102829295Y-77128571D02*
X102972152Y-77128571D01*
X102972152Y-77128571D02*
X103067390Y-77176190D01*
X103067390Y-77176190D02*
X103115009Y-77223809D01*
X103115009Y-77223809D02*
X103162628Y-77319047D01*
X103162628Y-77319047D02*
X103162628Y-77699999D01*
X103115009Y-76699999D02*
X103115009Y-76366666D01*
X103638819Y-76223809D02*
X103638819Y-76699999D01*
X103638819Y-76699999D02*
X102638819Y-76699999D01*
X102638819Y-76699999D02*
X102638819Y-76223809D01*
X103257866Y-75795237D02*
X103257866Y-75033333D01*
X103543580Y-73985714D02*
X103591200Y-74033333D01*
X103591200Y-74033333D02*
X103638819Y-74176190D01*
X103638819Y-74176190D02*
X103638819Y-74271428D01*
X103638819Y-74271428D02*
X103591200Y-74414285D01*
X103591200Y-74414285D02*
X103495961Y-74509523D01*
X103495961Y-74509523D02*
X103400723Y-74557142D01*
X103400723Y-74557142D02*
X103210247Y-74604761D01*
X103210247Y-74604761D02*
X103067390Y-74604761D01*
X103067390Y-74604761D02*
X102876914Y-74557142D01*
X102876914Y-74557142D02*
X102781676Y-74509523D01*
X102781676Y-74509523D02*
X102686438Y-74414285D01*
X102686438Y-74414285D02*
X102638819Y-74271428D01*
X102638819Y-74271428D02*
X102638819Y-74176190D01*
X102638819Y-74176190D02*
X102686438Y-74033333D01*
X102686438Y-74033333D02*
X102734057Y-73985714D01*
X103638819Y-73033333D02*
X103638819Y-73604761D01*
X103638819Y-73319047D02*
X102638819Y-73319047D01*
X102638819Y-73319047D02*
X102781676Y-73414285D01*
X102781676Y-73414285D02*
X102876914Y-73509523D01*
X102876914Y-73509523D02*
X102924533Y-73604761D01*
X118396104Y-87750285D02*
X118434200Y-87788381D01*
X118434200Y-87788381D02*
X118472295Y-87902666D01*
X118472295Y-87902666D02*
X118472295Y-87978857D01*
X118472295Y-87978857D02*
X118434200Y-88093143D01*
X118434200Y-88093143D02*
X118358009Y-88169333D01*
X118358009Y-88169333D02*
X118281819Y-88207428D01*
X118281819Y-88207428D02*
X118129438Y-88245524D01*
X118129438Y-88245524D02*
X118015152Y-88245524D01*
X118015152Y-88245524D02*
X117862771Y-88207428D01*
X117862771Y-88207428D02*
X117786580Y-88169333D01*
X117786580Y-88169333D02*
X117710390Y-88093143D01*
X117710390Y-88093143D02*
X117672295Y-87978857D01*
X117672295Y-87978857D02*
X117672295Y-87902666D01*
X117672295Y-87902666D02*
X117710390Y-87788381D01*
X117710390Y-87788381D02*
X117748485Y-87750285D01*
X118472295Y-86988381D02*
X118472295Y-87445524D01*
X118472295Y-87216952D02*
X117672295Y-87216952D01*
X117672295Y-87216952D02*
X117786580Y-87293143D01*
X117786580Y-87293143D02*
X117862771Y-87369333D01*
X117862771Y-87369333D02*
X117900866Y-87445524D01*
X117672295Y-86493142D02*
X117672295Y-86416952D01*
X117672295Y-86416952D02*
X117710390Y-86340761D01*
X117710390Y-86340761D02*
X117748485Y-86302666D01*
X117748485Y-86302666D02*
X117824676Y-86264571D01*
X117824676Y-86264571D02*
X117977057Y-86226476D01*
X117977057Y-86226476D02*
X118167533Y-86226476D01*
X118167533Y-86226476D02*
X118319914Y-86264571D01*
X118319914Y-86264571D02*
X118396104Y-86302666D01*
X118396104Y-86302666D02*
X118434200Y-86340761D01*
X118434200Y-86340761D02*
X118472295Y-86416952D01*
X118472295Y-86416952D02*
X118472295Y-86493142D01*
X118472295Y-86493142D02*
X118434200Y-86569333D01*
X118434200Y-86569333D02*
X118396104Y-86607428D01*
X118396104Y-86607428D02*
X118319914Y-86645523D01*
X118319914Y-86645523D02*
X118167533Y-86683619D01*
X118167533Y-86683619D02*
X117977057Y-86683619D01*
X117977057Y-86683619D02*
X117824676Y-86645523D01*
X117824676Y-86645523D02*
X117748485Y-86607428D01*
X117748485Y-86607428D02*
X117710390Y-86569333D01*
X117710390Y-86569333D02*
X117672295Y-86493142D01*
X112007667Y-68485104D02*
X111969571Y-68523200D01*
X111969571Y-68523200D02*
X111855286Y-68561295D01*
X111855286Y-68561295D02*
X111779095Y-68561295D01*
X111779095Y-68561295D02*
X111664809Y-68523200D01*
X111664809Y-68523200D02*
X111588619Y-68447009D01*
X111588619Y-68447009D02*
X111550524Y-68370819D01*
X111550524Y-68370819D02*
X111512428Y-68218438D01*
X111512428Y-68218438D02*
X111512428Y-68104152D01*
X111512428Y-68104152D02*
X111550524Y-67951771D01*
X111550524Y-67951771D02*
X111588619Y-67875580D01*
X111588619Y-67875580D02*
X111664809Y-67799390D01*
X111664809Y-67799390D02*
X111779095Y-67761295D01*
X111779095Y-67761295D02*
X111855286Y-67761295D01*
X111855286Y-67761295D02*
X111969571Y-67799390D01*
X111969571Y-67799390D02*
X112007667Y-67837485D01*
X112769571Y-68561295D02*
X112312428Y-68561295D01*
X112541000Y-68561295D02*
X112541000Y-67761295D01*
X112541000Y-67761295D02*
X112464809Y-67875580D01*
X112464809Y-67875580D02*
X112388619Y-67951771D01*
X112388619Y-67951771D02*
X112312428Y-67989866D01*
X146158295Y-76841285D02*
X145777342Y-77107952D01*
X146158295Y-77298428D02*
X145358295Y-77298428D01*
X145358295Y-77298428D02*
X145358295Y-76993666D01*
X145358295Y-76993666D02*
X145396390Y-76917476D01*
X145396390Y-76917476D02*
X145434485Y-76879381D01*
X145434485Y-76879381D02*
X145510676Y-76841285D01*
X145510676Y-76841285D02*
X145624961Y-76841285D01*
X145624961Y-76841285D02*
X145701152Y-76879381D01*
X145701152Y-76879381D02*
X145739247Y-76917476D01*
X145739247Y-76917476D02*
X145777342Y-76993666D01*
X145777342Y-76993666D02*
X145777342Y-77298428D01*
X146158295Y-76079381D02*
X146158295Y-76536524D01*
X146158295Y-76307952D02*
X145358295Y-76307952D01*
X145358295Y-76307952D02*
X145472580Y-76384143D01*
X145472580Y-76384143D02*
X145548771Y-76460333D01*
X145548771Y-76460333D02*
X145586866Y-76536524D01*
X146158295Y-75317476D02*
X146158295Y-75774619D01*
X146158295Y-75546047D02*
X145358295Y-75546047D01*
X145358295Y-75546047D02*
X145472580Y-75622238D01*
X145472580Y-75622238D02*
X145548771Y-75698428D01*
X145548771Y-75698428D02*
X145586866Y-75774619D01*
X135502667Y-80359295D02*
X135236000Y-79978342D01*
X135045524Y-80359295D02*
X135045524Y-79559295D01*
X135045524Y-79559295D02*
X135350286Y-79559295D01*
X135350286Y-79559295D02*
X135426476Y-79597390D01*
X135426476Y-79597390D02*
X135464571Y-79635485D01*
X135464571Y-79635485D02*
X135502667Y-79711676D01*
X135502667Y-79711676D02*
X135502667Y-79825961D01*
X135502667Y-79825961D02*
X135464571Y-79902152D01*
X135464571Y-79902152D02*
X135426476Y-79940247D01*
X135426476Y-79940247D02*
X135350286Y-79978342D01*
X135350286Y-79978342D02*
X135045524Y-79978342D01*
X135883619Y-80359295D02*
X136036000Y-80359295D01*
X136036000Y-80359295D02*
X136112190Y-80321200D01*
X136112190Y-80321200D02*
X136150286Y-80283104D01*
X136150286Y-80283104D02*
X136226476Y-80168819D01*
X136226476Y-80168819D02*
X136264571Y-80016438D01*
X136264571Y-80016438D02*
X136264571Y-79711676D01*
X136264571Y-79711676D02*
X136226476Y-79635485D01*
X136226476Y-79635485D02*
X136188381Y-79597390D01*
X136188381Y-79597390D02*
X136112190Y-79559295D01*
X136112190Y-79559295D02*
X135959809Y-79559295D01*
X135959809Y-79559295D02*
X135883619Y-79597390D01*
X135883619Y-79597390D02*
X135845524Y-79635485D01*
X135845524Y-79635485D02*
X135807428Y-79711676D01*
X135807428Y-79711676D02*
X135807428Y-79902152D01*
X135807428Y-79902152D02*
X135845524Y-79978342D01*
X135845524Y-79978342D02*
X135883619Y-80016438D01*
X135883619Y-80016438D02*
X135959809Y-80054533D01*
X135959809Y-80054533D02*
X136112190Y-80054533D01*
X136112190Y-80054533D02*
X136188381Y-80016438D01*
X136188381Y-80016438D02*
X136226476Y-79978342D01*
X136226476Y-79978342D02*
X136264571Y-79902152D01*
D12*
X125365742Y-77950500D02*
X125840258Y-77950500D01*
X125365742Y-78995500D02*
X125840258Y-78995500D01*
X150682000Y-71120000D02*
X158556000Y-71120000D01*
X150682000Y-71120000D02*
X150682000Y-81280000D01*
X158556000Y-81280000D02*
X158556000Y-71120000D01*
X158556000Y-81280000D02*
X150682000Y-81280000D01*
X152460000Y-81280000D02*
X152460000Y-71120000D01*
X151400742Y-84821500D02*
X151875258Y-84821500D01*
X151400742Y-85866500D02*
X151875258Y-85866500D01*
X119753000Y-67543000D02*
X119753000Y-67813000D01*
X119753000Y-67813000D02*
X116923000Y-67813000D01*
X119753000Y-74173000D02*
X118653000Y-74173000D01*
X119753000Y-74443000D02*
X119753000Y-74173000D01*
X126173000Y-67543000D02*
X119753000Y-67543000D01*
X126173000Y-74443000D02*
X119753000Y-74443000D01*
X118604420Y-74928000D02*
X118885580Y-74928000D01*
X118604420Y-75948000D02*
X118885580Y-75948000D01*
X153250000Y-83285000D02*
X153250000Y-81815000D01*
X153250000Y-81815000D02*
X150965000Y-81815000D01*
X150965000Y-83285000D02*
X153250000Y-83285000D01*
X120144000Y-84428420D02*
X120144000Y-84709580D01*
X119124000Y-84428420D02*
X119124000Y-84709580D01*
X144003500Y-76564258D02*
X144003500Y-76089742D01*
X145048500Y-76564258D02*
X145048500Y-76089742D01*
X120412742Y-81646500D02*
X120887258Y-81646500D01*
X120412742Y-82691500D02*
X120887258Y-82691500D01*
X141463500Y-76564258D02*
X141463500Y-76089742D01*
X142508500Y-76564258D02*
X142508500Y-76089742D01*
X123331500Y-85487742D02*
X123331500Y-85962258D01*
X122286500Y-85487742D02*
X122286500Y-85962258D01*
X127508000Y-84901000D02*
X131108000Y-84901000D01*
X127508000Y-84901000D02*
X125308000Y-84901000D01*
X127508000Y-79431000D02*
X129708000Y-79431000D01*
X127508000Y-79431000D02*
X125308000Y-79431000D01*
X121795000Y-85584420D02*
X121795000Y-85865580D01*
X120775000Y-85584420D02*
X120775000Y-85865580D01*
X116334000Y-69074420D02*
X116334000Y-69355580D01*
X115314000Y-69074420D02*
X115314000Y-69355580D01*
X147061000Y-70164000D02*
X147061000Y-68834000D01*
X148391000Y-70164000D02*
X147061000Y-70164000D01*
X149661000Y-70164000D02*
X152261000Y-70164000D01*
X149661000Y-70164000D02*
X149661000Y-67504000D01*
X152261000Y-70164000D02*
X152261000Y-67504000D01*
X149661000Y-67504000D02*
X152261000Y-67504000D01*
X129650258Y-78995500D02*
X129175742Y-78995500D01*
X129650258Y-77950500D02*
X129175742Y-77950500D01*
X133460258Y-82043500D02*
X132985742Y-82043500D01*
X133460258Y-80998500D02*
X132985742Y-80998500D01*
X125840258Y-77471500D02*
X125365742Y-77471500D01*
X125840258Y-76426500D02*
X125365742Y-76426500D01*
X149606000Y-78105000D02*
X136906000Y-78105000D01*
X136906000Y-78105000D02*
X136906000Y-88265000D01*
X149606000Y-88265000D02*
X149606000Y-78105000D01*
X136906000Y-88265000D02*
X149606000Y-88265000D01*
X149606000Y-86995000D02*
X148336000Y-86995000D01*
X148336000Y-86995000D02*
X148336000Y-88265000D01*
X148336000Y-88265000D02*
X149606000Y-88265000D01*
X149606000Y-88265000D02*
X149606000Y-86995000D01*
G36*
X149606000Y-86995000D02*
G01*
X148336000Y-86995000D01*
X148336000Y-88265000D01*
X149606000Y-88265000D01*
X149606000Y-86995000D01*
G37*
X120412742Y-80122500D02*
X120887258Y-80122500D01*
X120412742Y-81167500D02*
X120887258Y-81167500D01*
X113539000Y-86060000D02*
X116839000Y-86060000D01*
X113539000Y-86060000D02*
X113539000Y-80550000D01*
X116839000Y-86060000D02*
X116839000Y-80550000D01*
X131176500Y-70976258D02*
X131176500Y-70501742D01*
X132221500Y-70976258D02*
X132221500Y-70501742D01*
X132985742Y-77950500D02*
X133460258Y-77950500D01*
X132985742Y-78995500D02*
X133460258Y-78995500D01*
X131176500Y-74151258D02*
X131176500Y-73676742D01*
X132221500Y-74151258D02*
X132221500Y-73676742D01*
X107624000Y-71500000D02*
X105624000Y-71500000D01*
X103724000Y-71500000D02*
X101824000Y-71500000D01*
X101824000Y-71500000D02*
X101824000Y-80900000D01*
X107624000Y-80900000D02*
X105624000Y-80900000D01*
X103724000Y-80900000D02*
X101824000Y-80900000D01*
X118620000Y-84428420D02*
X118620000Y-84709580D01*
X117600000Y-84428420D02*
X117600000Y-84709580D01*
X112281580Y-69979000D02*
X112000420Y-69979000D01*
X112281580Y-68959000D02*
X112000420Y-68959000D01*
X146543500Y-76564258D02*
X146543500Y-76089742D01*
X147588500Y-76564258D02*
X147588500Y-76089742D01*
X132985742Y-79474500D02*
X133460258Y-79474500D01*
X132985742Y-80519500D02*
X133460258Y-80519500D01*
%LPC*%
D13*
X124778000Y-78473000D03*
X126428000Y-78473000D03*
D14*
X156270000Y-66040000D03*
D15*
X155000000Y-73660000D03*
D16*
X155000000Y-78740000D03*
D14*
X156270000Y-86360000D03*
D13*
X150813000Y-85344000D03*
X152463000Y-85344000D03*
D17*
X118023000Y-68713000D03*
D18*
X124323000Y-70993000D03*
D17*
X118023000Y-73273000D03*
D19*
X117970000Y-75438000D03*
X119520000Y-75438000D03*
D20*
X152552500Y-82550000D03*
X150977500Y-82550000D03*
D21*
X119634000Y-83794000D03*
X119634000Y-85344000D03*
D22*
X144526000Y-77152000D03*
X144526000Y-75502000D03*
D13*
X119825000Y-82169000D03*
X121475000Y-82169000D03*
D22*
X141986000Y-77152000D03*
X141986000Y-75502000D03*
D23*
X122809000Y-84900000D03*
X122809000Y-86550000D03*
D24*
X130370500Y-84441000D03*
X130370500Y-83791000D03*
X130370500Y-83141000D03*
X130370500Y-82491000D03*
X130370500Y-81841000D03*
X130370500Y-81191000D03*
X130370500Y-80541000D03*
X130370500Y-79891000D03*
X124645500Y-79891000D03*
X124645500Y-80541000D03*
X124645500Y-81191000D03*
X124645500Y-81841000D03*
X124645500Y-82491000D03*
X124645500Y-83141000D03*
X124645500Y-83791000D03*
X124645500Y-84441000D03*
D21*
X121285000Y-84950000D03*
X121285000Y-86500000D03*
X115824000Y-68440000D03*
X115824000Y-69990000D03*
D25*
X148391000Y-68834000D03*
D26*
X150931000Y-68834000D03*
D14*
X104200000Y-86360000D03*
D27*
X130238000Y-78473000D03*
X128588000Y-78473000D03*
X134048000Y-81521000D03*
X132398000Y-81521000D03*
X126428000Y-76949000D03*
X124778000Y-76949000D03*
D28*
X147066000Y-79375000D03*
D29*
X144526000Y-79375000D03*
X141986000Y-79375000D03*
X139446000Y-79375000D03*
X139446000Y-86995000D03*
X141986000Y-86995000D03*
X144526000Y-86995000D03*
X147066000Y-86995000D03*
D13*
X119825000Y-80645000D03*
X121475000Y-80645000D03*
D30*
X115189000Y-84550000D03*
X115189000Y-80550000D03*
D22*
X131699000Y-71564000D03*
X131699000Y-69914000D03*
D13*
X132398000Y-78473000D03*
X134048000Y-78473000D03*
D22*
X131699000Y-74739000D03*
X131699000Y-73089000D03*
D14*
X104200000Y-66040000D03*
D31*
X108324000Y-73310000D03*
X108324000Y-79090000D03*
D32*
X109769000Y-72950000D03*
X109769000Y-73750000D03*
D33*
X109769000Y-74950000D03*
X109769000Y-75950000D03*
X109769000Y-76450000D03*
X109769000Y-77450000D03*
D32*
X109769000Y-78650000D03*
X109769000Y-79450000D03*
X109769000Y-79450000D03*
X109769000Y-78650000D03*
D33*
X109769000Y-77950000D03*
X109769000Y-76950000D03*
X109769000Y-75450000D03*
X109769000Y-74450000D03*
D32*
X109769000Y-73750000D03*
X109769000Y-72950000D03*
D34*
X108854000Y-71880000D03*
D35*
X104674000Y-71880000D03*
D34*
X108854000Y-80520000D03*
D35*
X104674000Y-80520000D03*
D21*
X118110000Y-83794000D03*
X118110000Y-85344000D03*
D36*
X112916000Y-69469000D03*
X111366000Y-69469000D03*
D22*
X147066000Y-77152000D03*
X147066000Y-75502000D03*
D13*
X132398000Y-79997000D03*
X134048000Y-79997000D03*
%LPD*%
M02*
