%TF.GenerationSoftware,KiCad,Pcbnew,7.0.5-0*%
%TF.CreationDate,2023-05-30T07:39:42+09:00*%
%TF.ProjectId,LDR6321_PD_Decoy,4c445236-3332-4315-9f50-445f4465636f,0.5*%
%TF.SameCoordinates,Original*%
%TF.FileFunction,Drillmap*%
%TF.FilePolarity,Positive*%
%FSLAX45Y45*%
G04 Gerber Fmt 4.5, Leading zero omitted, Abs format (unit mm)*
G04 Created by KiCad (PCBNEW 7.0.5-0) date 2023-05-30 07:39:42*
%MOMM*%
%LPD*%
G01*
G04 APERTURE LIST*
%ADD10C,0.100000*%
%ADD11C,0.200000*%
%ADD12C,0.040000*%
%ADD13C,0.060000*%
%ADD14C,0.080000*%
%ADD15C,0.152000*%
G04 APERTURE END LIST*
D10*
X15881000Y-6477000D02*
X15881000Y-8763000D01*
X15754000Y-8890000D02*
X10293000Y-8890000D01*
X10166000Y-8763000D02*
X10166000Y-6473803D01*
X15754000Y-8890000D02*
G75*
G03*
X15881000Y-8763000I0J127000D01*
G01*
X10166000Y-8763000D02*
G75*
G03*
X10293000Y-8890000I127000J0D01*
G01*
X15881000Y-6477000D02*
G75*
G03*
X15754000Y-6350000I-127000J0D01*
G01*
X10293000Y-6346803D02*
X15754000Y-6350000D01*
X10293000Y-6346800D02*
G75*
G03*
X10166000Y-6473803I0J-127000D01*
G01*
D11*
D12*
X10775000Y-6711000D02*
X10815000Y-6751000D01*
X10815000Y-6711000D02*
X10775000Y-6751000D01*
X10775000Y-6965000D02*
X10815000Y-7005000D01*
X10815000Y-6965000D02*
X10775000Y-7005000D01*
X10775000Y-8362000D02*
X10815000Y-8402000D01*
X10815000Y-8362000D02*
X10775000Y-8402000D01*
X10775000Y-8616000D02*
X10815000Y-8656000D01*
X10815000Y-8616000D02*
X10775000Y-8656000D01*
X11029000Y-8362000D02*
X11069000Y-8402000D01*
X11069000Y-8362000D02*
X11029000Y-8402000D01*
X11029000Y-8616000D02*
X11069000Y-8656000D01*
X11069000Y-8616000D02*
X11029000Y-8656000D01*
X11117900Y-7041200D02*
X11157900Y-7081200D01*
X11157900Y-7041200D02*
X11117900Y-7081200D01*
X11117900Y-7180900D02*
X11157900Y-7220900D01*
X11157900Y-7180900D02*
X11117900Y-7220900D01*
X11130600Y-7993700D02*
X11170600Y-8033700D01*
X11170600Y-7993700D02*
X11130600Y-8033700D01*
X11136600Y-7346000D02*
X11176600Y-7386000D01*
X11176600Y-7346000D02*
X11136600Y-7386000D01*
X11136600Y-7854000D02*
X11176600Y-7894000D01*
X11176600Y-7854000D02*
X11136600Y-7894000D01*
X11263600Y-7498400D02*
X11303600Y-7538400D01*
X11303600Y-7498400D02*
X11263600Y-7538400D01*
X11263600Y-7647450D02*
X11303600Y-7687450D01*
X11303600Y-7647450D02*
X11263600Y-7687450D01*
X11263600Y-7844500D02*
X11303600Y-7884500D01*
X11303600Y-7844500D02*
X11263600Y-7884500D01*
X11335981Y-7719900D02*
X11375981Y-7759900D01*
X11375981Y-7719900D02*
X11335981Y-7759900D01*
X11346500Y-8679500D02*
X11386500Y-8719500D01*
X11386500Y-8679500D02*
X11346500Y-8719500D01*
X11562400Y-7092000D02*
X11602400Y-7132000D01*
X11602400Y-7092000D02*
X11562400Y-7132000D01*
X11600500Y-8679500D02*
X11640500Y-8719500D01*
X11640500Y-8679500D02*
X11600500Y-8719500D01*
X11791000Y-8209600D02*
X11831000Y-8249600D01*
X11831000Y-8209600D02*
X11791000Y-8249600D01*
X11841800Y-8044500D02*
X11881800Y-8084500D01*
X11881800Y-8044500D02*
X11841800Y-8084500D01*
X11968800Y-7790500D02*
X12008800Y-7830500D01*
X12008800Y-7790500D02*
X11968800Y-7830500D01*
X12311700Y-8095300D02*
X12351700Y-8135300D01*
X12351700Y-8095300D02*
X12311700Y-8135300D01*
X12553000Y-8616000D02*
X12593000Y-8656000D01*
X12593000Y-8616000D02*
X12553000Y-8656000D01*
X12616500Y-7549200D02*
X12656500Y-7589200D01*
X12656500Y-7549200D02*
X12616500Y-7589200D01*
X12810750Y-7549200D02*
X12850750Y-7589200D01*
X12850750Y-7549200D02*
X12810750Y-7589200D01*
X12870500Y-6838000D02*
X12910500Y-6878000D01*
X12910500Y-6838000D02*
X12870500Y-6878000D01*
X12870500Y-7028500D02*
X12910500Y-7068500D01*
X12910500Y-7028500D02*
X12870500Y-7068500D01*
X12883200Y-7282500D02*
X12923200Y-7322500D01*
X12923200Y-7282500D02*
X12883200Y-7322500D01*
X12934000Y-8616000D02*
X12974000Y-8656000D01*
X12974000Y-8616000D02*
X12934000Y-8656000D01*
X13149900Y-7676200D02*
X13189900Y-7716200D01*
X13189900Y-7676200D02*
X13149900Y-7716200D01*
X13162600Y-8431550D02*
X13202600Y-8471550D01*
X13202600Y-8431550D02*
X13162600Y-8471550D01*
X13315000Y-8616000D02*
X13355000Y-8656000D01*
X13355000Y-8616000D02*
X13315000Y-8656000D01*
X13569000Y-7473000D02*
X13609000Y-7513000D01*
X13609000Y-7473000D02*
X13569000Y-7513000D01*
X13569000Y-7600000D02*
X13609000Y-7640000D01*
X13609000Y-7600000D02*
X13569000Y-7640000D01*
X13823000Y-7473000D02*
X13863000Y-7513000D01*
X13863000Y-7473000D02*
X13823000Y-7513000D01*
X13823000Y-7600000D02*
X13863000Y-7640000D01*
X13863000Y-7600000D02*
X13823000Y-7640000D01*
X14102400Y-8146100D02*
X14142400Y-8186100D01*
X14142400Y-8146100D02*
X14102400Y-8186100D01*
X14369100Y-8158800D02*
X14409100Y-8198800D01*
X14409100Y-8158800D02*
X14369100Y-8198800D01*
X14458000Y-6584000D02*
X14498000Y-6624000D01*
X14498000Y-6584000D02*
X14458000Y-6624000D01*
X14712000Y-6584000D02*
X14752000Y-6624000D01*
X14752000Y-6584000D02*
X14712000Y-6624000D01*
X14966000Y-6584000D02*
X15006000Y-6624000D01*
X15006000Y-6584000D02*
X14966000Y-6624000D01*
X15220000Y-6584000D02*
X15260000Y-6624000D01*
X15260000Y-6584000D02*
X15220000Y-6624000D01*
X15232700Y-8666800D02*
X15272700Y-8706800D01*
X15272700Y-8666800D02*
X15232700Y-8706800D01*
D13*
X10497400Y-7188000D02*
G75*
G03*
X10497400Y-7188000I-30000J0D01*
G01*
D11*
X10497400Y-7158000D02*
X10437400Y-7158000D01*
X10437400Y-7158000D02*
G75*
G03*
X10437400Y-7218000I0J-30000D01*
G01*
X10437400Y-7218000D02*
X10497400Y-7218000D01*
X10497400Y-7218000D02*
G75*
G03*
X10497400Y-7158000I0J30000D01*
G01*
D13*
X10497400Y-8052000D02*
G75*
G03*
X10497400Y-8052000I-30000J0D01*
G01*
D11*
X10497400Y-8022000D02*
X10437400Y-8022000D01*
X10437400Y-8022000D02*
G75*
G03*
X10437400Y-8082000I0J-30000D01*
G01*
X10437400Y-8082000D02*
X10497400Y-8082000D01*
X10497400Y-8082000D02*
G75*
G03*
X10497400Y-8022000I0J30000D01*
G01*
D13*
X10915400Y-7188000D02*
G75*
G03*
X10915400Y-7188000I-30000J0D01*
G01*
D11*
X10940400Y-7158000D02*
X10830400Y-7158000D01*
X10830400Y-7158000D02*
G75*
G03*
X10830400Y-7218000I0J-30000D01*
G01*
X10830400Y-7218000D02*
X10940400Y-7218000D01*
X10940400Y-7218000D02*
G75*
G03*
X10940400Y-7158000I0J30000D01*
G01*
D13*
X10915400Y-8052000D02*
G75*
G03*
X10915400Y-8052000I-30000J0D01*
G01*
D11*
X10940400Y-8022000D02*
X10830400Y-8022000D01*
X10830400Y-8022000D02*
G75*
G03*
X10830400Y-8082000I0J-30000D01*
G01*
X10830400Y-8082000D02*
X10940400Y-8082000D01*
X10940400Y-8082000D02*
G75*
G03*
X10940400Y-8022000I0J30000D01*
G01*
D14*
X13944600Y-7897500D02*
X13944600Y-7977500D01*
X13904600Y-7937500D02*
X13984600Y-7937500D01*
X13944600Y-8659500D02*
X13944600Y-8739500D01*
X13904600Y-8699500D02*
X13984600Y-8699500D01*
X14198600Y-7897500D02*
X14198600Y-7977500D01*
X14158600Y-7937500D02*
X14238600Y-7937500D01*
X14198600Y-8659500D02*
X14198600Y-8739500D01*
X14158600Y-8699500D02*
X14238600Y-8699500D01*
X14452600Y-7897500D02*
X14452600Y-7977500D01*
X14412600Y-7937500D02*
X14492600Y-7937500D01*
X14452600Y-8659500D02*
X14452600Y-8739500D01*
X14412600Y-8699500D02*
X14492600Y-8699500D01*
X14706600Y-7897500D02*
X14706600Y-7977500D01*
X14666600Y-7937500D02*
X14746600Y-7937500D01*
X14706600Y-8659500D02*
X14706600Y-8739500D01*
X14666600Y-8699500D02*
X14746600Y-8699500D01*
D10*
X14874456Y-6918756D02*
X14874456Y-6848044D01*
X14803744Y-6848044D01*
X14803744Y-6918756D01*
X14874456Y-6918756D01*
X15128456Y-6918756D02*
X15128456Y-6848044D01*
X15057744Y-6848044D01*
X15057744Y-6918756D01*
X15128456Y-6918756D01*
D15*
X15500000Y-7442000D02*
X15576000Y-7366000D01*
X15500000Y-7290000D01*
X15424000Y-7366000D01*
X15500000Y-7442000D01*
X15500000Y-7950000D02*
X15576000Y-7874000D01*
X15500000Y-7798000D01*
X15424000Y-7874000D01*
X15500000Y-7950000D01*
D11*
X10421777Y-9206484D02*
X10421777Y-9006484D01*
X10421777Y-9006484D02*
X10469396Y-9006484D01*
X10469396Y-9006484D02*
X10497967Y-9016008D01*
X10497967Y-9016008D02*
X10517015Y-9035055D01*
X10517015Y-9035055D02*
X10526539Y-9054103D01*
X10526539Y-9054103D02*
X10536063Y-9092198D01*
X10536063Y-9092198D02*
X10536063Y-9120770D01*
X10536063Y-9120770D02*
X10526539Y-9158865D01*
X10526539Y-9158865D02*
X10517015Y-9177912D01*
X10517015Y-9177912D02*
X10497967Y-9196960D01*
X10497967Y-9196960D02*
X10469396Y-9206484D01*
X10469396Y-9206484D02*
X10421777Y-9206484D01*
X10621777Y-9206484D02*
X10621777Y-9073150D01*
X10621777Y-9111246D02*
X10631301Y-9092198D01*
X10631301Y-9092198D02*
X10640824Y-9082674D01*
X10640824Y-9082674D02*
X10659872Y-9073150D01*
X10659872Y-9073150D02*
X10678920Y-9073150D01*
X10745586Y-9206484D02*
X10745586Y-9073150D01*
X10745586Y-9006484D02*
X10736063Y-9016008D01*
X10736063Y-9016008D02*
X10745586Y-9025531D01*
X10745586Y-9025531D02*
X10755110Y-9016008D01*
X10755110Y-9016008D02*
X10745586Y-9006484D01*
X10745586Y-9006484D02*
X10745586Y-9025531D01*
X10869396Y-9206484D02*
X10850348Y-9196960D01*
X10850348Y-9196960D02*
X10840824Y-9177912D01*
X10840824Y-9177912D02*
X10840824Y-9006484D01*
X10974158Y-9206484D02*
X10955110Y-9196960D01*
X10955110Y-9196960D02*
X10945586Y-9177912D01*
X10945586Y-9177912D02*
X10945586Y-9006484D01*
X11202729Y-9206484D02*
X11202729Y-9006484D01*
X11202729Y-9006484D02*
X11269396Y-9149341D01*
X11269396Y-9149341D02*
X11336062Y-9006484D01*
X11336062Y-9006484D02*
X11336062Y-9206484D01*
X11517015Y-9206484D02*
X11517015Y-9101722D01*
X11517015Y-9101722D02*
X11507491Y-9082674D01*
X11507491Y-9082674D02*
X11488443Y-9073150D01*
X11488443Y-9073150D02*
X11450348Y-9073150D01*
X11450348Y-9073150D02*
X11431301Y-9082674D01*
X11517015Y-9196960D02*
X11497967Y-9206484D01*
X11497967Y-9206484D02*
X11450348Y-9206484D01*
X11450348Y-9206484D02*
X11431301Y-9196960D01*
X11431301Y-9196960D02*
X11421777Y-9177912D01*
X11421777Y-9177912D02*
X11421777Y-9158865D01*
X11421777Y-9158865D02*
X11431301Y-9139817D01*
X11431301Y-9139817D02*
X11450348Y-9130293D01*
X11450348Y-9130293D02*
X11497967Y-9130293D01*
X11497967Y-9130293D02*
X11517015Y-9120770D01*
X11612253Y-9073150D02*
X11612253Y-9273150D01*
X11612253Y-9082674D02*
X11631301Y-9073150D01*
X11631301Y-9073150D02*
X11669396Y-9073150D01*
X11669396Y-9073150D02*
X11688443Y-9082674D01*
X11688443Y-9082674D02*
X11697967Y-9092198D01*
X11697967Y-9092198D02*
X11707491Y-9111246D01*
X11707491Y-9111246D02*
X11707491Y-9168389D01*
X11707491Y-9168389D02*
X11697967Y-9187436D01*
X11697967Y-9187436D02*
X11688443Y-9196960D01*
X11688443Y-9196960D02*
X11669396Y-9206484D01*
X11669396Y-9206484D02*
X11631301Y-9206484D01*
X11631301Y-9206484D02*
X11612253Y-9196960D01*
X11793205Y-9187436D02*
X11802729Y-9196960D01*
X11802729Y-9196960D02*
X11793205Y-9206484D01*
X11793205Y-9206484D02*
X11783682Y-9196960D01*
X11783682Y-9196960D02*
X11793205Y-9187436D01*
X11793205Y-9187436D02*
X11793205Y-9206484D01*
X11793205Y-9082674D02*
X11802729Y-9092198D01*
X11802729Y-9092198D02*
X11793205Y-9101722D01*
X11793205Y-9101722D02*
X11783682Y-9092198D01*
X11783682Y-9092198D02*
X11793205Y-9082674D01*
X11793205Y-9082674D02*
X11793205Y-9101722D01*
D12*
X10121000Y-9515000D02*
X10161000Y-9555000D01*
X10161000Y-9515000D02*
X10121000Y-9555000D01*
D11*
X10459872Y-9426484D02*
X10478920Y-9426484D01*
X10478920Y-9426484D02*
X10497967Y-9436008D01*
X10497967Y-9436008D02*
X10507491Y-9445531D01*
X10507491Y-9445531D02*
X10517015Y-9464579D01*
X10517015Y-9464579D02*
X10526539Y-9502674D01*
X10526539Y-9502674D02*
X10526539Y-9550293D01*
X10526539Y-9550293D02*
X10517015Y-9588389D01*
X10517015Y-9588389D02*
X10507491Y-9607436D01*
X10507491Y-9607436D02*
X10497967Y-9616960D01*
X10497967Y-9616960D02*
X10478920Y-9626484D01*
X10478920Y-9626484D02*
X10459872Y-9626484D01*
X10459872Y-9626484D02*
X10440824Y-9616960D01*
X10440824Y-9616960D02*
X10431301Y-9607436D01*
X10431301Y-9607436D02*
X10421777Y-9588389D01*
X10421777Y-9588389D02*
X10412253Y-9550293D01*
X10412253Y-9550293D02*
X10412253Y-9502674D01*
X10412253Y-9502674D02*
X10421777Y-9464579D01*
X10421777Y-9464579D02*
X10431301Y-9445531D01*
X10431301Y-9445531D02*
X10440824Y-9436008D01*
X10440824Y-9436008D02*
X10459872Y-9426484D01*
X10612253Y-9607436D02*
X10621777Y-9616960D01*
X10621777Y-9616960D02*
X10612253Y-9626484D01*
X10612253Y-9626484D02*
X10602729Y-9616960D01*
X10602729Y-9616960D02*
X10612253Y-9607436D01*
X10612253Y-9607436D02*
X10612253Y-9626484D01*
X10793205Y-9493150D02*
X10793205Y-9626484D01*
X10745586Y-9416960D02*
X10697967Y-9559817D01*
X10697967Y-9559817D02*
X10821777Y-9559817D01*
X10936063Y-9426484D02*
X10955110Y-9426484D01*
X10955110Y-9426484D02*
X10974158Y-9436008D01*
X10974158Y-9436008D02*
X10983682Y-9445531D01*
X10983682Y-9445531D02*
X10993205Y-9464579D01*
X10993205Y-9464579D02*
X11002729Y-9502674D01*
X11002729Y-9502674D02*
X11002729Y-9550293D01*
X11002729Y-9550293D02*
X10993205Y-9588389D01*
X10993205Y-9588389D02*
X10983682Y-9607436D01*
X10983682Y-9607436D02*
X10974158Y-9616960D01*
X10974158Y-9616960D02*
X10955110Y-9626484D01*
X10955110Y-9626484D02*
X10936063Y-9626484D01*
X10936063Y-9626484D02*
X10917015Y-9616960D01*
X10917015Y-9616960D02*
X10907491Y-9607436D01*
X10907491Y-9607436D02*
X10897967Y-9588389D01*
X10897967Y-9588389D02*
X10888444Y-9550293D01*
X10888444Y-9550293D02*
X10888444Y-9502674D01*
X10888444Y-9502674D02*
X10897967Y-9464579D01*
X10897967Y-9464579D02*
X10907491Y-9445531D01*
X10907491Y-9445531D02*
X10917015Y-9436008D01*
X10917015Y-9436008D02*
X10936063Y-9426484D01*
X11126539Y-9426484D02*
X11145586Y-9426484D01*
X11145586Y-9426484D02*
X11164634Y-9436008D01*
X11164634Y-9436008D02*
X11174158Y-9445531D01*
X11174158Y-9445531D02*
X11183682Y-9464579D01*
X11183682Y-9464579D02*
X11193205Y-9502674D01*
X11193205Y-9502674D02*
X11193205Y-9550293D01*
X11193205Y-9550293D02*
X11183682Y-9588389D01*
X11183682Y-9588389D02*
X11174158Y-9607436D01*
X11174158Y-9607436D02*
X11164634Y-9616960D01*
X11164634Y-9616960D02*
X11145586Y-9626484D01*
X11145586Y-9626484D02*
X11126539Y-9626484D01*
X11126539Y-9626484D02*
X11107491Y-9616960D01*
X11107491Y-9616960D02*
X11097967Y-9607436D01*
X11097967Y-9607436D02*
X11088444Y-9588389D01*
X11088444Y-9588389D02*
X11078920Y-9550293D01*
X11078920Y-9550293D02*
X11078920Y-9502674D01*
X11078920Y-9502674D02*
X11088444Y-9464579D01*
X11088444Y-9464579D02*
X11097967Y-9445531D01*
X11097967Y-9445531D02*
X11107491Y-9436008D01*
X11107491Y-9436008D02*
X11126539Y-9426484D01*
X11278920Y-9626484D02*
X11278920Y-9493150D01*
X11278920Y-9512198D02*
X11288443Y-9502674D01*
X11288443Y-9502674D02*
X11307491Y-9493150D01*
X11307491Y-9493150D02*
X11336063Y-9493150D01*
X11336063Y-9493150D02*
X11355110Y-9502674D01*
X11355110Y-9502674D02*
X11364634Y-9521722D01*
X11364634Y-9521722D02*
X11364634Y-9626484D01*
X11364634Y-9521722D02*
X11374158Y-9502674D01*
X11374158Y-9502674D02*
X11393205Y-9493150D01*
X11393205Y-9493150D02*
X11421777Y-9493150D01*
X11421777Y-9493150D02*
X11440824Y-9502674D01*
X11440824Y-9502674D02*
X11450348Y-9521722D01*
X11450348Y-9521722D02*
X11450348Y-9626484D01*
X11545586Y-9626484D02*
X11545586Y-9493150D01*
X11545586Y-9512198D02*
X11555110Y-9502674D01*
X11555110Y-9502674D02*
X11574158Y-9493150D01*
X11574158Y-9493150D02*
X11602729Y-9493150D01*
X11602729Y-9493150D02*
X11621777Y-9502674D01*
X11621777Y-9502674D02*
X11631301Y-9521722D01*
X11631301Y-9521722D02*
X11631301Y-9626484D01*
X11631301Y-9521722D02*
X11640824Y-9502674D01*
X11640824Y-9502674D02*
X11659872Y-9493150D01*
X11659872Y-9493150D02*
X11688443Y-9493150D01*
X11688443Y-9493150D02*
X11707491Y-9502674D01*
X11707491Y-9502674D02*
X11717015Y-9521722D01*
X11717015Y-9521722D02*
X11717015Y-9626484D01*
X12107491Y-9416960D02*
X11936063Y-9674103D01*
X12364634Y-9426484D02*
X12383682Y-9426484D01*
X12383682Y-9426484D02*
X12402729Y-9436008D01*
X12402729Y-9436008D02*
X12412253Y-9445531D01*
X12412253Y-9445531D02*
X12421777Y-9464579D01*
X12421777Y-9464579D02*
X12431301Y-9502674D01*
X12431301Y-9502674D02*
X12431301Y-9550293D01*
X12431301Y-9550293D02*
X12421777Y-9588389D01*
X12421777Y-9588389D02*
X12412253Y-9607436D01*
X12412253Y-9607436D02*
X12402729Y-9616960D01*
X12402729Y-9616960D02*
X12383682Y-9626484D01*
X12383682Y-9626484D02*
X12364634Y-9626484D01*
X12364634Y-9626484D02*
X12345586Y-9616960D01*
X12345586Y-9616960D02*
X12336063Y-9607436D01*
X12336063Y-9607436D02*
X12326539Y-9588389D01*
X12326539Y-9588389D02*
X12317015Y-9550293D01*
X12317015Y-9550293D02*
X12317015Y-9502674D01*
X12317015Y-9502674D02*
X12326539Y-9464579D01*
X12326539Y-9464579D02*
X12336063Y-9445531D01*
X12336063Y-9445531D02*
X12345586Y-9436008D01*
X12345586Y-9436008D02*
X12364634Y-9426484D01*
X12517015Y-9607436D02*
X12526539Y-9616960D01*
X12526539Y-9616960D02*
X12517015Y-9626484D01*
X12517015Y-9626484D02*
X12507491Y-9616960D01*
X12507491Y-9616960D02*
X12517015Y-9607436D01*
X12517015Y-9607436D02*
X12517015Y-9626484D01*
X12650348Y-9426484D02*
X12669396Y-9426484D01*
X12669396Y-9426484D02*
X12688444Y-9436008D01*
X12688444Y-9436008D02*
X12697967Y-9445531D01*
X12697967Y-9445531D02*
X12707491Y-9464579D01*
X12707491Y-9464579D02*
X12717015Y-9502674D01*
X12717015Y-9502674D02*
X12717015Y-9550293D01*
X12717015Y-9550293D02*
X12707491Y-9588389D01*
X12707491Y-9588389D02*
X12697967Y-9607436D01*
X12697967Y-9607436D02*
X12688444Y-9616960D01*
X12688444Y-9616960D02*
X12669396Y-9626484D01*
X12669396Y-9626484D02*
X12650348Y-9626484D01*
X12650348Y-9626484D02*
X12631301Y-9616960D01*
X12631301Y-9616960D02*
X12621777Y-9607436D01*
X12621777Y-9607436D02*
X12612253Y-9588389D01*
X12612253Y-9588389D02*
X12602729Y-9550293D01*
X12602729Y-9550293D02*
X12602729Y-9502674D01*
X12602729Y-9502674D02*
X12612253Y-9464579D01*
X12612253Y-9464579D02*
X12621777Y-9445531D01*
X12621777Y-9445531D02*
X12631301Y-9436008D01*
X12631301Y-9436008D02*
X12650348Y-9426484D01*
X12907491Y-9626484D02*
X12793206Y-9626484D01*
X12850348Y-9626484D02*
X12850348Y-9426484D01*
X12850348Y-9426484D02*
X12831301Y-9455055D01*
X12831301Y-9455055D02*
X12812253Y-9474103D01*
X12812253Y-9474103D02*
X12793206Y-9483627D01*
X13088444Y-9426484D02*
X12993206Y-9426484D01*
X12993206Y-9426484D02*
X12983682Y-9521722D01*
X12983682Y-9521722D02*
X12993206Y-9512198D01*
X12993206Y-9512198D02*
X13012253Y-9502674D01*
X13012253Y-9502674D02*
X13059872Y-9502674D01*
X13059872Y-9502674D02*
X13078920Y-9512198D01*
X13078920Y-9512198D02*
X13088444Y-9521722D01*
X13088444Y-9521722D02*
X13097967Y-9540770D01*
X13097967Y-9540770D02*
X13097967Y-9588389D01*
X13097967Y-9588389D02*
X13088444Y-9607436D01*
X13088444Y-9607436D02*
X13078920Y-9616960D01*
X13078920Y-9616960D02*
X13059872Y-9626484D01*
X13059872Y-9626484D02*
X13012253Y-9626484D01*
X13012253Y-9626484D02*
X12993206Y-9616960D01*
X12993206Y-9616960D02*
X12983682Y-9607436D01*
X13164634Y-9426484D02*
X13297967Y-9426484D01*
X13297967Y-9426484D02*
X13212253Y-9626484D01*
X13364634Y-9426484D02*
X13364634Y-9464579D01*
X13440825Y-9426484D02*
X13440825Y-9464579D01*
X13736063Y-9702674D02*
X13726539Y-9693150D01*
X13726539Y-9693150D02*
X13707491Y-9664579D01*
X13707491Y-9664579D02*
X13697968Y-9645531D01*
X13697968Y-9645531D02*
X13688444Y-9616960D01*
X13688444Y-9616960D02*
X13678920Y-9569341D01*
X13678920Y-9569341D02*
X13678920Y-9531246D01*
X13678920Y-9531246D02*
X13688444Y-9483627D01*
X13688444Y-9483627D02*
X13697968Y-9455055D01*
X13697968Y-9455055D02*
X13707491Y-9436008D01*
X13707491Y-9436008D02*
X13726539Y-9407436D01*
X13726539Y-9407436D02*
X13736063Y-9397912D01*
X13897968Y-9493150D02*
X13897968Y-9626484D01*
X13850348Y-9416960D02*
X13802729Y-9559817D01*
X13802729Y-9559817D02*
X13926539Y-9559817D01*
X13983682Y-9426484D02*
X14107491Y-9426484D01*
X14107491Y-9426484D02*
X14040825Y-9502674D01*
X14040825Y-9502674D02*
X14069396Y-9502674D01*
X14069396Y-9502674D02*
X14088444Y-9512198D01*
X14088444Y-9512198D02*
X14097968Y-9521722D01*
X14097968Y-9521722D02*
X14107491Y-9540770D01*
X14107491Y-9540770D02*
X14107491Y-9588389D01*
X14107491Y-9588389D02*
X14097968Y-9607436D01*
X14097968Y-9607436D02*
X14088444Y-9616960D01*
X14088444Y-9616960D02*
X14069396Y-9626484D01*
X14069396Y-9626484D02*
X14012253Y-9626484D01*
X14012253Y-9626484D02*
X13993206Y-9616960D01*
X13993206Y-9616960D02*
X13983682Y-9607436D01*
X14345587Y-9626484D02*
X14345587Y-9426484D01*
X14431301Y-9626484D02*
X14431301Y-9521722D01*
X14431301Y-9521722D02*
X14421777Y-9502674D01*
X14421777Y-9502674D02*
X14402730Y-9493150D01*
X14402730Y-9493150D02*
X14374158Y-9493150D01*
X14374158Y-9493150D02*
X14355110Y-9502674D01*
X14355110Y-9502674D02*
X14345587Y-9512198D01*
X14555110Y-9626484D02*
X14536063Y-9616960D01*
X14536063Y-9616960D02*
X14526539Y-9607436D01*
X14526539Y-9607436D02*
X14517015Y-9588389D01*
X14517015Y-9588389D02*
X14517015Y-9531246D01*
X14517015Y-9531246D02*
X14526539Y-9512198D01*
X14526539Y-9512198D02*
X14536063Y-9502674D01*
X14536063Y-9502674D02*
X14555110Y-9493150D01*
X14555110Y-9493150D02*
X14583682Y-9493150D01*
X14583682Y-9493150D02*
X14602730Y-9502674D01*
X14602730Y-9502674D02*
X14612253Y-9512198D01*
X14612253Y-9512198D02*
X14621777Y-9531246D01*
X14621777Y-9531246D02*
X14621777Y-9588389D01*
X14621777Y-9588389D02*
X14612253Y-9607436D01*
X14612253Y-9607436D02*
X14602730Y-9616960D01*
X14602730Y-9616960D02*
X14583682Y-9626484D01*
X14583682Y-9626484D02*
X14555110Y-9626484D01*
X14736063Y-9626484D02*
X14717015Y-9616960D01*
X14717015Y-9616960D02*
X14707491Y-9597912D01*
X14707491Y-9597912D02*
X14707491Y-9426484D01*
X14888444Y-9616960D02*
X14869396Y-9626484D01*
X14869396Y-9626484D02*
X14831301Y-9626484D01*
X14831301Y-9626484D02*
X14812253Y-9616960D01*
X14812253Y-9616960D02*
X14802730Y-9597912D01*
X14802730Y-9597912D02*
X14802730Y-9521722D01*
X14802730Y-9521722D02*
X14812253Y-9502674D01*
X14812253Y-9502674D02*
X14831301Y-9493150D01*
X14831301Y-9493150D02*
X14869396Y-9493150D01*
X14869396Y-9493150D02*
X14888444Y-9502674D01*
X14888444Y-9502674D02*
X14897968Y-9521722D01*
X14897968Y-9521722D02*
X14897968Y-9540770D01*
X14897968Y-9540770D02*
X14802730Y-9559817D01*
X14974158Y-9616960D02*
X14993206Y-9626484D01*
X14993206Y-9626484D02*
X15031301Y-9626484D01*
X15031301Y-9626484D02*
X15050349Y-9616960D01*
X15050349Y-9616960D02*
X15059872Y-9597912D01*
X15059872Y-9597912D02*
X15059872Y-9588389D01*
X15059872Y-9588389D02*
X15050349Y-9569341D01*
X15050349Y-9569341D02*
X15031301Y-9559817D01*
X15031301Y-9559817D02*
X15002730Y-9559817D01*
X15002730Y-9559817D02*
X14983682Y-9550293D01*
X14983682Y-9550293D02*
X14974158Y-9531246D01*
X14974158Y-9531246D02*
X14974158Y-9521722D01*
X14974158Y-9521722D02*
X14983682Y-9502674D01*
X14983682Y-9502674D02*
X15002730Y-9493150D01*
X15002730Y-9493150D02*
X15031301Y-9493150D01*
X15031301Y-9493150D02*
X15050349Y-9502674D01*
X15126539Y-9702674D02*
X15136063Y-9693150D01*
X15136063Y-9693150D02*
X15155111Y-9664579D01*
X15155111Y-9664579D02*
X15164634Y-9645531D01*
X15164634Y-9645531D02*
X15174158Y-9616960D01*
X15174158Y-9616960D02*
X15183682Y-9569341D01*
X15183682Y-9569341D02*
X15183682Y-9531246D01*
X15183682Y-9531246D02*
X15174158Y-9483627D01*
X15174158Y-9483627D02*
X15164634Y-9455055D01*
X15164634Y-9455055D02*
X15155111Y-9436008D01*
X15155111Y-9436008D02*
X15136063Y-9407436D01*
X15136063Y-9407436D02*
X15126539Y-9397912D01*
D13*
X10161000Y-9799000D02*
G75*
G03*
X10161000Y-9799000I-30000J0D01*
G01*
D11*
X10459872Y-9690484D02*
X10478920Y-9690484D01*
X10478920Y-9690484D02*
X10497967Y-9700008D01*
X10497967Y-9700008D02*
X10507491Y-9709531D01*
X10507491Y-9709531D02*
X10517015Y-9728579D01*
X10517015Y-9728579D02*
X10526539Y-9766674D01*
X10526539Y-9766674D02*
X10526539Y-9814293D01*
X10526539Y-9814293D02*
X10517015Y-9852389D01*
X10517015Y-9852389D02*
X10507491Y-9871436D01*
X10507491Y-9871436D02*
X10497967Y-9880960D01*
X10497967Y-9880960D02*
X10478920Y-9890484D01*
X10478920Y-9890484D02*
X10459872Y-9890484D01*
X10459872Y-9890484D02*
X10440824Y-9880960D01*
X10440824Y-9880960D02*
X10431301Y-9871436D01*
X10431301Y-9871436D02*
X10421777Y-9852389D01*
X10421777Y-9852389D02*
X10412253Y-9814293D01*
X10412253Y-9814293D02*
X10412253Y-9766674D01*
X10412253Y-9766674D02*
X10421777Y-9728579D01*
X10421777Y-9728579D02*
X10431301Y-9709531D01*
X10431301Y-9709531D02*
X10440824Y-9700008D01*
X10440824Y-9700008D02*
X10459872Y-9690484D01*
X10612253Y-9871436D02*
X10621777Y-9880960D01*
X10621777Y-9880960D02*
X10612253Y-9890484D01*
X10612253Y-9890484D02*
X10602729Y-9880960D01*
X10602729Y-9880960D02*
X10612253Y-9871436D01*
X10612253Y-9871436D02*
X10612253Y-9890484D01*
X10793205Y-9690484D02*
X10755110Y-9690484D01*
X10755110Y-9690484D02*
X10736063Y-9700008D01*
X10736063Y-9700008D02*
X10726539Y-9709531D01*
X10726539Y-9709531D02*
X10707491Y-9738103D01*
X10707491Y-9738103D02*
X10697967Y-9776198D01*
X10697967Y-9776198D02*
X10697967Y-9852389D01*
X10697967Y-9852389D02*
X10707491Y-9871436D01*
X10707491Y-9871436D02*
X10717015Y-9880960D01*
X10717015Y-9880960D02*
X10736063Y-9890484D01*
X10736063Y-9890484D02*
X10774158Y-9890484D01*
X10774158Y-9890484D02*
X10793205Y-9880960D01*
X10793205Y-9880960D02*
X10802729Y-9871436D01*
X10802729Y-9871436D02*
X10812253Y-9852389D01*
X10812253Y-9852389D02*
X10812253Y-9804770D01*
X10812253Y-9804770D02*
X10802729Y-9785722D01*
X10802729Y-9785722D02*
X10793205Y-9776198D01*
X10793205Y-9776198D02*
X10774158Y-9766674D01*
X10774158Y-9766674D02*
X10736063Y-9766674D01*
X10736063Y-9766674D02*
X10717015Y-9776198D01*
X10717015Y-9776198D02*
X10707491Y-9785722D01*
X10707491Y-9785722D02*
X10697967Y-9804770D01*
X10936063Y-9690484D02*
X10955110Y-9690484D01*
X10955110Y-9690484D02*
X10974158Y-9700008D01*
X10974158Y-9700008D02*
X10983682Y-9709531D01*
X10983682Y-9709531D02*
X10993205Y-9728579D01*
X10993205Y-9728579D02*
X11002729Y-9766674D01*
X11002729Y-9766674D02*
X11002729Y-9814293D01*
X11002729Y-9814293D02*
X10993205Y-9852389D01*
X10993205Y-9852389D02*
X10983682Y-9871436D01*
X10983682Y-9871436D02*
X10974158Y-9880960D01*
X10974158Y-9880960D02*
X10955110Y-9890484D01*
X10955110Y-9890484D02*
X10936063Y-9890484D01*
X10936063Y-9890484D02*
X10917015Y-9880960D01*
X10917015Y-9880960D02*
X10907491Y-9871436D01*
X10907491Y-9871436D02*
X10897967Y-9852389D01*
X10897967Y-9852389D02*
X10888444Y-9814293D01*
X10888444Y-9814293D02*
X10888444Y-9766674D01*
X10888444Y-9766674D02*
X10897967Y-9728579D01*
X10897967Y-9728579D02*
X10907491Y-9709531D01*
X10907491Y-9709531D02*
X10917015Y-9700008D01*
X10917015Y-9700008D02*
X10936063Y-9690484D01*
X11126539Y-9690484D02*
X11145586Y-9690484D01*
X11145586Y-9690484D02*
X11164634Y-9700008D01*
X11164634Y-9700008D02*
X11174158Y-9709531D01*
X11174158Y-9709531D02*
X11183682Y-9728579D01*
X11183682Y-9728579D02*
X11193205Y-9766674D01*
X11193205Y-9766674D02*
X11193205Y-9814293D01*
X11193205Y-9814293D02*
X11183682Y-9852389D01*
X11183682Y-9852389D02*
X11174158Y-9871436D01*
X11174158Y-9871436D02*
X11164634Y-9880960D01*
X11164634Y-9880960D02*
X11145586Y-9890484D01*
X11145586Y-9890484D02*
X11126539Y-9890484D01*
X11126539Y-9890484D02*
X11107491Y-9880960D01*
X11107491Y-9880960D02*
X11097967Y-9871436D01*
X11097967Y-9871436D02*
X11088444Y-9852389D01*
X11088444Y-9852389D02*
X11078920Y-9814293D01*
X11078920Y-9814293D02*
X11078920Y-9766674D01*
X11078920Y-9766674D02*
X11088444Y-9728579D01*
X11088444Y-9728579D02*
X11097967Y-9709531D01*
X11097967Y-9709531D02*
X11107491Y-9700008D01*
X11107491Y-9700008D02*
X11126539Y-9690484D01*
X11278920Y-9890484D02*
X11278920Y-9757150D01*
X11278920Y-9776198D02*
X11288443Y-9766674D01*
X11288443Y-9766674D02*
X11307491Y-9757150D01*
X11307491Y-9757150D02*
X11336063Y-9757150D01*
X11336063Y-9757150D02*
X11355110Y-9766674D01*
X11355110Y-9766674D02*
X11364634Y-9785722D01*
X11364634Y-9785722D02*
X11364634Y-9890484D01*
X11364634Y-9785722D02*
X11374158Y-9766674D01*
X11374158Y-9766674D02*
X11393205Y-9757150D01*
X11393205Y-9757150D02*
X11421777Y-9757150D01*
X11421777Y-9757150D02*
X11440824Y-9766674D01*
X11440824Y-9766674D02*
X11450348Y-9785722D01*
X11450348Y-9785722D02*
X11450348Y-9890484D01*
X11545586Y-9890484D02*
X11545586Y-9757150D01*
X11545586Y-9776198D02*
X11555110Y-9766674D01*
X11555110Y-9766674D02*
X11574158Y-9757150D01*
X11574158Y-9757150D02*
X11602729Y-9757150D01*
X11602729Y-9757150D02*
X11621777Y-9766674D01*
X11621777Y-9766674D02*
X11631301Y-9785722D01*
X11631301Y-9785722D02*
X11631301Y-9890484D01*
X11631301Y-9785722D02*
X11640824Y-9766674D01*
X11640824Y-9766674D02*
X11659872Y-9757150D01*
X11659872Y-9757150D02*
X11688443Y-9757150D01*
X11688443Y-9757150D02*
X11707491Y-9766674D01*
X11707491Y-9766674D02*
X11717015Y-9785722D01*
X11717015Y-9785722D02*
X11717015Y-9890484D01*
X12107491Y-9680960D02*
X11936063Y-9938103D01*
X12364634Y-9690484D02*
X12383682Y-9690484D01*
X12383682Y-9690484D02*
X12402729Y-9700008D01*
X12402729Y-9700008D02*
X12412253Y-9709531D01*
X12412253Y-9709531D02*
X12421777Y-9728579D01*
X12421777Y-9728579D02*
X12431301Y-9766674D01*
X12431301Y-9766674D02*
X12431301Y-9814293D01*
X12431301Y-9814293D02*
X12421777Y-9852389D01*
X12421777Y-9852389D02*
X12412253Y-9871436D01*
X12412253Y-9871436D02*
X12402729Y-9880960D01*
X12402729Y-9880960D02*
X12383682Y-9890484D01*
X12383682Y-9890484D02*
X12364634Y-9890484D01*
X12364634Y-9890484D02*
X12345586Y-9880960D01*
X12345586Y-9880960D02*
X12336063Y-9871436D01*
X12336063Y-9871436D02*
X12326539Y-9852389D01*
X12326539Y-9852389D02*
X12317015Y-9814293D01*
X12317015Y-9814293D02*
X12317015Y-9766674D01*
X12317015Y-9766674D02*
X12326539Y-9728579D01*
X12326539Y-9728579D02*
X12336063Y-9709531D01*
X12336063Y-9709531D02*
X12345586Y-9700008D01*
X12345586Y-9700008D02*
X12364634Y-9690484D01*
X12517015Y-9871436D02*
X12526539Y-9880960D01*
X12526539Y-9880960D02*
X12517015Y-9890484D01*
X12517015Y-9890484D02*
X12507491Y-9880960D01*
X12507491Y-9880960D02*
X12517015Y-9871436D01*
X12517015Y-9871436D02*
X12517015Y-9890484D01*
X12650348Y-9690484D02*
X12669396Y-9690484D01*
X12669396Y-9690484D02*
X12688444Y-9700008D01*
X12688444Y-9700008D02*
X12697967Y-9709531D01*
X12697967Y-9709531D02*
X12707491Y-9728579D01*
X12707491Y-9728579D02*
X12717015Y-9766674D01*
X12717015Y-9766674D02*
X12717015Y-9814293D01*
X12717015Y-9814293D02*
X12707491Y-9852389D01*
X12707491Y-9852389D02*
X12697967Y-9871436D01*
X12697967Y-9871436D02*
X12688444Y-9880960D01*
X12688444Y-9880960D02*
X12669396Y-9890484D01*
X12669396Y-9890484D02*
X12650348Y-9890484D01*
X12650348Y-9890484D02*
X12631301Y-9880960D01*
X12631301Y-9880960D02*
X12621777Y-9871436D01*
X12621777Y-9871436D02*
X12612253Y-9852389D01*
X12612253Y-9852389D02*
X12602729Y-9814293D01*
X12602729Y-9814293D02*
X12602729Y-9766674D01*
X12602729Y-9766674D02*
X12612253Y-9728579D01*
X12612253Y-9728579D02*
X12621777Y-9709531D01*
X12621777Y-9709531D02*
X12631301Y-9700008D01*
X12631301Y-9700008D02*
X12650348Y-9690484D01*
X12793206Y-9709531D02*
X12802729Y-9700008D01*
X12802729Y-9700008D02*
X12821777Y-9690484D01*
X12821777Y-9690484D02*
X12869396Y-9690484D01*
X12869396Y-9690484D02*
X12888444Y-9700008D01*
X12888444Y-9700008D02*
X12897967Y-9709531D01*
X12897967Y-9709531D02*
X12907491Y-9728579D01*
X12907491Y-9728579D02*
X12907491Y-9747627D01*
X12907491Y-9747627D02*
X12897967Y-9776198D01*
X12897967Y-9776198D02*
X12783682Y-9890484D01*
X12783682Y-9890484D02*
X12907491Y-9890484D01*
X12974158Y-9690484D02*
X13097967Y-9690484D01*
X13097967Y-9690484D02*
X13031301Y-9766674D01*
X13031301Y-9766674D02*
X13059872Y-9766674D01*
X13059872Y-9766674D02*
X13078920Y-9776198D01*
X13078920Y-9776198D02*
X13088444Y-9785722D01*
X13088444Y-9785722D02*
X13097967Y-9804770D01*
X13097967Y-9804770D02*
X13097967Y-9852389D01*
X13097967Y-9852389D02*
X13088444Y-9871436D01*
X13088444Y-9871436D02*
X13078920Y-9880960D01*
X13078920Y-9880960D02*
X13059872Y-9890484D01*
X13059872Y-9890484D02*
X13002729Y-9890484D01*
X13002729Y-9890484D02*
X12983682Y-9880960D01*
X12983682Y-9880960D02*
X12974158Y-9871436D01*
X13269396Y-9690484D02*
X13231301Y-9690484D01*
X13231301Y-9690484D02*
X13212253Y-9700008D01*
X13212253Y-9700008D02*
X13202729Y-9709531D01*
X13202729Y-9709531D02*
X13183682Y-9738103D01*
X13183682Y-9738103D02*
X13174158Y-9776198D01*
X13174158Y-9776198D02*
X13174158Y-9852389D01*
X13174158Y-9852389D02*
X13183682Y-9871436D01*
X13183682Y-9871436D02*
X13193206Y-9880960D01*
X13193206Y-9880960D02*
X13212253Y-9890484D01*
X13212253Y-9890484D02*
X13250348Y-9890484D01*
X13250348Y-9890484D02*
X13269396Y-9880960D01*
X13269396Y-9880960D02*
X13278920Y-9871436D01*
X13278920Y-9871436D02*
X13288444Y-9852389D01*
X13288444Y-9852389D02*
X13288444Y-9804770D01*
X13288444Y-9804770D02*
X13278920Y-9785722D01*
X13278920Y-9785722D02*
X13269396Y-9776198D01*
X13269396Y-9776198D02*
X13250348Y-9766674D01*
X13250348Y-9766674D02*
X13212253Y-9766674D01*
X13212253Y-9766674D02*
X13193206Y-9776198D01*
X13193206Y-9776198D02*
X13183682Y-9785722D01*
X13183682Y-9785722D02*
X13174158Y-9804770D01*
X13364634Y-9690484D02*
X13364634Y-9728579D01*
X13440825Y-9690484D02*
X13440825Y-9728579D01*
X13736063Y-9966674D02*
X13726539Y-9957150D01*
X13726539Y-9957150D02*
X13707491Y-9928579D01*
X13707491Y-9928579D02*
X13697968Y-9909531D01*
X13697968Y-9909531D02*
X13688444Y-9880960D01*
X13688444Y-9880960D02*
X13678920Y-9833341D01*
X13678920Y-9833341D02*
X13678920Y-9795246D01*
X13678920Y-9795246D02*
X13688444Y-9747627D01*
X13688444Y-9747627D02*
X13697968Y-9719055D01*
X13697968Y-9719055D02*
X13707491Y-9700008D01*
X13707491Y-9700008D02*
X13726539Y-9671436D01*
X13726539Y-9671436D02*
X13736063Y-9661912D01*
X13850348Y-9690484D02*
X13869396Y-9690484D01*
X13869396Y-9690484D02*
X13888444Y-9700008D01*
X13888444Y-9700008D02*
X13897968Y-9709531D01*
X13897968Y-9709531D02*
X13907491Y-9728579D01*
X13907491Y-9728579D02*
X13917015Y-9766674D01*
X13917015Y-9766674D02*
X13917015Y-9814293D01*
X13917015Y-9814293D02*
X13907491Y-9852389D01*
X13907491Y-9852389D02*
X13897968Y-9871436D01*
X13897968Y-9871436D02*
X13888444Y-9880960D01*
X13888444Y-9880960D02*
X13869396Y-9890484D01*
X13869396Y-9890484D02*
X13850348Y-9890484D01*
X13850348Y-9890484D02*
X13831301Y-9880960D01*
X13831301Y-9880960D02*
X13821777Y-9871436D01*
X13821777Y-9871436D02*
X13812253Y-9852389D01*
X13812253Y-9852389D02*
X13802729Y-9814293D01*
X13802729Y-9814293D02*
X13802729Y-9766674D01*
X13802729Y-9766674D02*
X13812253Y-9728579D01*
X13812253Y-9728579D02*
X13821777Y-9709531D01*
X13821777Y-9709531D02*
X13831301Y-9700008D01*
X13831301Y-9700008D02*
X13850348Y-9690484D01*
X14155110Y-9890484D02*
X14155110Y-9690484D01*
X14240825Y-9890484D02*
X14240825Y-9785722D01*
X14240825Y-9785722D02*
X14231301Y-9766674D01*
X14231301Y-9766674D02*
X14212253Y-9757150D01*
X14212253Y-9757150D02*
X14183682Y-9757150D01*
X14183682Y-9757150D02*
X14164634Y-9766674D01*
X14164634Y-9766674D02*
X14155110Y-9776198D01*
X14364634Y-9890484D02*
X14345587Y-9880960D01*
X14345587Y-9880960D02*
X14336063Y-9871436D01*
X14336063Y-9871436D02*
X14326539Y-9852389D01*
X14326539Y-9852389D02*
X14326539Y-9795246D01*
X14326539Y-9795246D02*
X14336063Y-9776198D01*
X14336063Y-9776198D02*
X14345587Y-9766674D01*
X14345587Y-9766674D02*
X14364634Y-9757150D01*
X14364634Y-9757150D02*
X14393206Y-9757150D01*
X14393206Y-9757150D02*
X14412253Y-9766674D01*
X14412253Y-9766674D02*
X14421777Y-9776198D01*
X14421777Y-9776198D02*
X14431301Y-9795246D01*
X14431301Y-9795246D02*
X14431301Y-9852389D01*
X14431301Y-9852389D02*
X14421777Y-9871436D01*
X14421777Y-9871436D02*
X14412253Y-9880960D01*
X14412253Y-9880960D02*
X14393206Y-9890484D01*
X14393206Y-9890484D02*
X14364634Y-9890484D01*
X14545587Y-9890484D02*
X14526539Y-9880960D01*
X14526539Y-9880960D02*
X14517015Y-9861912D01*
X14517015Y-9861912D02*
X14517015Y-9690484D01*
X14697968Y-9880960D02*
X14678920Y-9890484D01*
X14678920Y-9890484D02*
X14640825Y-9890484D01*
X14640825Y-9890484D02*
X14621777Y-9880960D01*
X14621777Y-9880960D02*
X14612253Y-9861912D01*
X14612253Y-9861912D02*
X14612253Y-9785722D01*
X14612253Y-9785722D02*
X14621777Y-9766674D01*
X14621777Y-9766674D02*
X14640825Y-9757150D01*
X14640825Y-9757150D02*
X14678920Y-9757150D01*
X14678920Y-9757150D02*
X14697968Y-9766674D01*
X14697968Y-9766674D02*
X14707491Y-9785722D01*
X14707491Y-9785722D02*
X14707491Y-9804770D01*
X14707491Y-9804770D02*
X14612253Y-9823817D01*
X14783682Y-9880960D02*
X14802730Y-9890484D01*
X14802730Y-9890484D02*
X14840825Y-9890484D01*
X14840825Y-9890484D02*
X14859872Y-9880960D01*
X14859872Y-9880960D02*
X14869396Y-9861912D01*
X14869396Y-9861912D02*
X14869396Y-9852389D01*
X14869396Y-9852389D02*
X14859872Y-9833341D01*
X14859872Y-9833341D02*
X14840825Y-9823817D01*
X14840825Y-9823817D02*
X14812253Y-9823817D01*
X14812253Y-9823817D02*
X14793206Y-9814293D01*
X14793206Y-9814293D02*
X14783682Y-9795246D01*
X14783682Y-9795246D02*
X14783682Y-9785722D01*
X14783682Y-9785722D02*
X14793206Y-9766674D01*
X14793206Y-9766674D02*
X14812253Y-9757150D01*
X14812253Y-9757150D02*
X14840825Y-9757150D01*
X14840825Y-9757150D02*
X14859872Y-9766674D01*
X15107492Y-9814293D02*
X15259873Y-9814293D01*
X15183682Y-9890484D02*
X15183682Y-9738103D01*
X15593206Y-9757150D02*
X15593206Y-9890484D01*
X15545587Y-9680960D02*
X15497968Y-9823817D01*
X15497968Y-9823817D02*
X15621777Y-9823817D01*
X15840825Y-9880960D02*
X15859873Y-9890484D01*
X15859873Y-9890484D02*
X15897968Y-9890484D01*
X15897968Y-9890484D02*
X15917015Y-9880960D01*
X15917015Y-9880960D02*
X15926539Y-9861912D01*
X15926539Y-9861912D02*
X15926539Y-9852389D01*
X15926539Y-9852389D02*
X15917015Y-9833341D01*
X15917015Y-9833341D02*
X15897968Y-9823817D01*
X15897968Y-9823817D02*
X15869396Y-9823817D01*
X15869396Y-9823817D02*
X15850349Y-9814293D01*
X15850349Y-9814293D02*
X15840825Y-9795246D01*
X15840825Y-9795246D02*
X15840825Y-9785722D01*
X15840825Y-9785722D02*
X15850349Y-9766674D01*
X15850349Y-9766674D02*
X15869396Y-9757150D01*
X15869396Y-9757150D02*
X15897968Y-9757150D01*
X15897968Y-9757150D02*
X15917015Y-9766674D01*
X16040825Y-9890484D02*
X16021777Y-9880960D01*
X16021777Y-9880960D02*
X16012254Y-9861912D01*
X16012254Y-9861912D02*
X16012254Y-9690484D01*
X16145587Y-9890484D02*
X16126539Y-9880960D01*
X16126539Y-9880960D02*
X16117015Y-9871436D01*
X16117015Y-9871436D02*
X16107492Y-9852389D01*
X16107492Y-9852389D02*
X16107492Y-9795246D01*
X16107492Y-9795246D02*
X16117015Y-9776198D01*
X16117015Y-9776198D02*
X16126539Y-9766674D01*
X16126539Y-9766674D02*
X16145587Y-9757150D01*
X16145587Y-9757150D02*
X16174158Y-9757150D01*
X16174158Y-9757150D02*
X16193206Y-9766674D01*
X16193206Y-9766674D02*
X16202730Y-9776198D01*
X16202730Y-9776198D02*
X16212254Y-9795246D01*
X16212254Y-9795246D02*
X16212254Y-9852389D01*
X16212254Y-9852389D02*
X16202730Y-9871436D01*
X16202730Y-9871436D02*
X16193206Y-9880960D01*
X16193206Y-9880960D02*
X16174158Y-9890484D01*
X16174158Y-9890484D02*
X16145587Y-9890484D01*
X16269396Y-9757150D02*
X16345587Y-9757150D01*
X16297968Y-9690484D02*
X16297968Y-9861912D01*
X16297968Y-9861912D02*
X16307492Y-9880960D01*
X16307492Y-9880960D02*
X16326539Y-9890484D01*
X16326539Y-9890484D02*
X16345587Y-9890484D01*
X16402730Y-9880960D02*
X16421777Y-9890484D01*
X16421777Y-9890484D02*
X16459873Y-9890484D01*
X16459873Y-9890484D02*
X16478920Y-9880960D01*
X16478920Y-9880960D02*
X16488444Y-9861912D01*
X16488444Y-9861912D02*
X16488444Y-9852389D01*
X16488444Y-9852389D02*
X16478920Y-9833341D01*
X16478920Y-9833341D02*
X16459873Y-9823817D01*
X16459873Y-9823817D02*
X16431301Y-9823817D01*
X16431301Y-9823817D02*
X16412254Y-9814293D01*
X16412254Y-9814293D02*
X16402730Y-9795246D01*
X16402730Y-9795246D02*
X16402730Y-9785722D01*
X16402730Y-9785722D02*
X16412254Y-9766674D01*
X16412254Y-9766674D02*
X16431301Y-9757150D01*
X16431301Y-9757150D02*
X16459873Y-9757150D01*
X16459873Y-9757150D02*
X16478920Y-9766674D01*
X16555111Y-9966674D02*
X16564635Y-9957150D01*
X16564635Y-9957150D02*
X16583682Y-9928579D01*
X16583682Y-9928579D02*
X16593206Y-9909531D01*
X16593206Y-9909531D02*
X16602730Y-9880960D01*
X16602730Y-9880960D02*
X16612254Y-9833341D01*
X16612254Y-9833341D02*
X16612254Y-9795246D01*
X16612254Y-9795246D02*
X16602730Y-9747627D01*
X16602730Y-9747627D02*
X16593206Y-9719055D01*
X16593206Y-9719055D02*
X16583682Y-9700008D01*
X16583682Y-9700008D02*
X16564635Y-9671436D01*
X16564635Y-9671436D02*
X16555111Y-9661912D01*
D14*
X10121000Y-10023000D02*
X10121000Y-10103000D01*
X10081000Y-10063000D02*
X10161000Y-10063000D01*
D11*
X10459872Y-9954484D02*
X10478920Y-9954484D01*
X10478920Y-9954484D02*
X10497967Y-9964008D01*
X10497967Y-9964008D02*
X10507491Y-9973531D01*
X10507491Y-9973531D02*
X10517015Y-9992579D01*
X10517015Y-9992579D02*
X10526539Y-10030674D01*
X10526539Y-10030674D02*
X10526539Y-10078293D01*
X10526539Y-10078293D02*
X10517015Y-10116389D01*
X10517015Y-10116389D02*
X10507491Y-10135436D01*
X10507491Y-10135436D02*
X10497967Y-10144960D01*
X10497967Y-10144960D02*
X10478920Y-10154484D01*
X10478920Y-10154484D02*
X10459872Y-10154484D01*
X10459872Y-10154484D02*
X10440824Y-10144960D01*
X10440824Y-10144960D02*
X10431301Y-10135436D01*
X10431301Y-10135436D02*
X10421777Y-10116389D01*
X10421777Y-10116389D02*
X10412253Y-10078293D01*
X10412253Y-10078293D02*
X10412253Y-10030674D01*
X10412253Y-10030674D02*
X10421777Y-9992579D01*
X10421777Y-9992579D02*
X10431301Y-9973531D01*
X10431301Y-9973531D02*
X10440824Y-9964008D01*
X10440824Y-9964008D02*
X10459872Y-9954484D01*
X10612253Y-10135436D02*
X10621777Y-10144960D01*
X10621777Y-10144960D02*
X10612253Y-10154484D01*
X10612253Y-10154484D02*
X10602729Y-10144960D01*
X10602729Y-10144960D02*
X10612253Y-10135436D01*
X10612253Y-10135436D02*
X10612253Y-10154484D01*
X10736063Y-10040198D02*
X10717015Y-10030674D01*
X10717015Y-10030674D02*
X10707491Y-10021150D01*
X10707491Y-10021150D02*
X10697967Y-10002103D01*
X10697967Y-10002103D02*
X10697967Y-9992579D01*
X10697967Y-9992579D02*
X10707491Y-9973531D01*
X10707491Y-9973531D02*
X10717015Y-9964008D01*
X10717015Y-9964008D02*
X10736063Y-9954484D01*
X10736063Y-9954484D02*
X10774158Y-9954484D01*
X10774158Y-9954484D02*
X10793205Y-9964008D01*
X10793205Y-9964008D02*
X10802729Y-9973531D01*
X10802729Y-9973531D02*
X10812253Y-9992579D01*
X10812253Y-9992579D02*
X10812253Y-10002103D01*
X10812253Y-10002103D02*
X10802729Y-10021150D01*
X10802729Y-10021150D02*
X10793205Y-10030674D01*
X10793205Y-10030674D02*
X10774158Y-10040198D01*
X10774158Y-10040198D02*
X10736063Y-10040198D01*
X10736063Y-10040198D02*
X10717015Y-10049722D01*
X10717015Y-10049722D02*
X10707491Y-10059246D01*
X10707491Y-10059246D02*
X10697967Y-10078293D01*
X10697967Y-10078293D02*
X10697967Y-10116389D01*
X10697967Y-10116389D02*
X10707491Y-10135436D01*
X10707491Y-10135436D02*
X10717015Y-10144960D01*
X10717015Y-10144960D02*
X10736063Y-10154484D01*
X10736063Y-10154484D02*
X10774158Y-10154484D01*
X10774158Y-10154484D02*
X10793205Y-10144960D01*
X10793205Y-10144960D02*
X10802729Y-10135436D01*
X10802729Y-10135436D02*
X10812253Y-10116389D01*
X10812253Y-10116389D02*
X10812253Y-10078293D01*
X10812253Y-10078293D02*
X10802729Y-10059246D01*
X10802729Y-10059246D02*
X10793205Y-10049722D01*
X10793205Y-10049722D02*
X10774158Y-10040198D01*
X10936063Y-9954484D02*
X10955110Y-9954484D01*
X10955110Y-9954484D02*
X10974158Y-9964008D01*
X10974158Y-9964008D02*
X10983682Y-9973531D01*
X10983682Y-9973531D02*
X10993205Y-9992579D01*
X10993205Y-9992579D02*
X11002729Y-10030674D01*
X11002729Y-10030674D02*
X11002729Y-10078293D01*
X11002729Y-10078293D02*
X10993205Y-10116389D01*
X10993205Y-10116389D02*
X10983682Y-10135436D01*
X10983682Y-10135436D02*
X10974158Y-10144960D01*
X10974158Y-10144960D02*
X10955110Y-10154484D01*
X10955110Y-10154484D02*
X10936063Y-10154484D01*
X10936063Y-10154484D02*
X10917015Y-10144960D01*
X10917015Y-10144960D02*
X10907491Y-10135436D01*
X10907491Y-10135436D02*
X10897967Y-10116389D01*
X10897967Y-10116389D02*
X10888444Y-10078293D01*
X10888444Y-10078293D02*
X10888444Y-10030674D01*
X10888444Y-10030674D02*
X10897967Y-9992579D01*
X10897967Y-9992579D02*
X10907491Y-9973531D01*
X10907491Y-9973531D02*
X10917015Y-9964008D01*
X10917015Y-9964008D02*
X10936063Y-9954484D01*
X11126539Y-9954484D02*
X11145586Y-9954484D01*
X11145586Y-9954484D02*
X11164634Y-9964008D01*
X11164634Y-9964008D02*
X11174158Y-9973531D01*
X11174158Y-9973531D02*
X11183682Y-9992579D01*
X11183682Y-9992579D02*
X11193205Y-10030674D01*
X11193205Y-10030674D02*
X11193205Y-10078293D01*
X11193205Y-10078293D02*
X11183682Y-10116389D01*
X11183682Y-10116389D02*
X11174158Y-10135436D01*
X11174158Y-10135436D02*
X11164634Y-10144960D01*
X11164634Y-10144960D02*
X11145586Y-10154484D01*
X11145586Y-10154484D02*
X11126539Y-10154484D01*
X11126539Y-10154484D02*
X11107491Y-10144960D01*
X11107491Y-10144960D02*
X11097967Y-10135436D01*
X11097967Y-10135436D02*
X11088444Y-10116389D01*
X11088444Y-10116389D02*
X11078920Y-10078293D01*
X11078920Y-10078293D02*
X11078920Y-10030674D01*
X11078920Y-10030674D02*
X11088444Y-9992579D01*
X11088444Y-9992579D02*
X11097967Y-9973531D01*
X11097967Y-9973531D02*
X11107491Y-9964008D01*
X11107491Y-9964008D02*
X11126539Y-9954484D01*
X11278920Y-10154484D02*
X11278920Y-10021150D01*
X11278920Y-10040198D02*
X11288443Y-10030674D01*
X11288443Y-10030674D02*
X11307491Y-10021150D01*
X11307491Y-10021150D02*
X11336063Y-10021150D01*
X11336063Y-10021150D02*
X11355110Y-10030674D01*
X11355110Y-10030674D02*
X11364634Y-10049722D01*
X11364634Y-10049722D02*
X11364634Y-10154484D01*
X11364634Y-10049722D02*
X11374158Y-10030674D01*
X11374158Y-10030674D02*
X11393205Y-10021150D01*
X11393205Y-10021150D02*
X11421777Y-10021150D01*
X11421777Y-10021150D02*
X11440824Y-10030674D01*
X11440824Y-10030674D02*
X11450348Y-10049722D01*
X11450348Y-10049722D02*
X11450348Y-10154484D01*
X11545586Y-10154484D02*
X11545586Y-10021150D01*
X11545586Y-10040198D02*
X11555110Y-10030674D01*
X11555110Y-10030674D02*
X11574158Y-10021150D01*
X11574158Y-10021150D02*
X11602729Y-10021150D01*
X11602729Y-10021150D02*
X11621777Y-10030674D01*
X11621777Y-10030674D02*
X11631301Y-10049722D01*
X11631301Y-10049722D02*
X11631301Y-10154484D01*
X11631301Y-10049722D02*
X11640824Y-10030674D01*
X11640824Y-10030674D02*
X11659872Y-10021150D01*
X11659872Y-10021150D02*
X11688443Y-10021150D01*
X11688443Y-10021150D02*
X11707491Y-10030674D01*
X11707491Y-10030674D02*
X11717015Y-10049722D01*
X11717015Y-10049722D02*
X11717015Y-10154484D01*
X12107491Y-9944960D02*
X11936063Y-10202103D01*
X12364634Y-9954484D02*
X12383682Y-9954484D01*
X12383682Y-9954484D02*
X12402729Y-9964008D01*
X12402729Y-9964008D02*
X12412253Y-9973531D01*
X12412253Y-9973531D02*
X12421777Y-9992579D01*
X12421777Y-9992579D02*
X12431301Y-10030674D01*
X12431301Y-10030674D02*
X12431301Y-10078293D01*
X12431301Y-10078293D02*
X12421777Y-10116389D01*
X12421777Y-10116389D02*
X12412253Y-10135436D01*
X12412253Y-10135436D02*
X12402729Y-10144960D01*
X12402729Y-10144960D02*
X12383682Y-10154484D01*
X12383682Y-10154484D02*
X12364634Y-10154484D01*
X12364634Y-10154484D02*
X12345586Y-10144960D01*
X12345586Y-10144960D02*
X12336063Y-10135436D01*
X12336063Y-10135436D02*
X12326539Y-10116389D01*
X12326539Y-10116389D02*
X12317015Y-10078293D01*
X12317015Y-10078293D02*
X12317015Y-10030674D01*
X12317015Y-10030674D02*
X12326539Y-9992579D01*
X12326539Y-9992579D02*
X12336063Y-9973531D01*
X12336063Y-9973531D02*
X12345586Y-9964008D01*
X12345586Y-9964008D02*
X12364634Y-9954484D01*
X12517015Y-10135436D02*
X12526539Y-10144960D01*
X12526539Y-10144960D02*
X12517015Y-10154484D01*
X12517015Y-10154484D02*
X12507491Y-10144960D01*
X12507491Y-10144960D02*
X12517015Y-10135436D01*
X12517015Y-10135436D02*
X12517015Y-10154484D01*
X12650348Y-9954484D02*
X12669396Y-9954484D01*
X12669396Y-9954484D02*
X12688444Y-9964008D01*
X12688444Y-9964008D02*
X12697967Y-9973531D01*
X12697967Y-9973531D02*
X12707491Y-9992579D01*
X12707491Y-9992579D02*
X12717015Y-10030674D01*
X12717015Y-10030674D02*
X12717015Y-10078293D01*
X12717015Y-10078293D02*
X12707491Y-10116389D01*
X12707491Y-10116389D02*
X12697967Y-10135436D01*
X12697967Y-10135436D02*
X12688444Y-10144960D01*
X12688444Y-10144960D02*
X12669396Y-10154484D01*
X12669396Y-10154484D02*
X12650348Y-10154484D01*
X12650348Y-10154484D02*
X12631301Y-10144960D01*
X12631301Y-10144960D02*
X12621777Y-10135436D01*
X12621777Y-10135436D02*
X12612253Y-10116389D01*
X12612253Y-10116389D02*
X12602729Y-10078293D01*
X12602729Y-10078293D02*
X12602729Y-10030674D01*
X12602729Y-10030674D02*
X12612253Y-9992579D01*
X12612253Y-9992579D02*
X12621777Y-9973531D01*
X12621777Y-9973531D02*
X12631301Y-9964008D01*
X12631301Y-9964008D02*
X12650348Y-9954484D01*
X12783682Y-9954484D02*
X12907491Y-9954484D01*
X12907491Y-9954484D02*
X12840825Y-10030674D01*
X12840825Y-10030674D02*
X12869396Y-10030674D01*
X12869396Y-10030674D02*
X12888444Y-10040198D01*
X12888444Y-10040198D02*
X12897967Y-10049722D01*
X12897967Y-10049722D02*
X12907491Y-10068770D01*
X12907491Y-10068770D02*
X12907491Y-10116389D01*
X12907491Y-10116389D02*
X12897967Y-10135436D01*
X12897967Y-10135436D02*
X12888444Y-10144960D01*
X12888444Y-10144960D02*
X12869396Y-10154484D01*
X12869396Y-10154484D02*
X12812253Y-10154484D01*
X12812253Y-10154484D02*
X12793206Y-10144960D01*
X12793206Y-10144960D02*
X12783682Y-10135436D01*
X13097967Y-10154484D02*
X12983682Y-10154484D01*
X13040825Y-10154484D02*
X13040825Y-9954484D01*
X13040825Y-9954484D02*
X13021777Y-9983055D01*
X13021777Y-9983055D02*
X13002729Y-10002103D01*
X13002729Y-10002103D02*
X12983682Y-10011627D01*
X13278920Y-9954484D02*
X13183682Y-9954484D01*
X13183682Y-9954484D02*
X13174158Y-10049722D01*
X13174158Y-10049722D02*
X13183682Y-10040198D01*
X13183682Y-10040198D02*
X13202729Y-10030674D01*
X13202729Y-10030674D02*
X13250348Y-10030674D01*
X13250348Y-10030674D02*
X13269396Y-10040198D01*
X13269396Y-10040198D02*
X13278920Y-10049722D01*
X13278920Y-10049722D02*
X13288444Y-10068770D01*
X13288444Y-10068770D02*
X13288444Y-10116389D01*
X13288444Y-10116389D02*
X13278920Y-10135436D01*
X13278920Y-10135436D02*
X13269396Y-10144960D01*
X13269396Y-10144960D02*
X13250348Y-10154484D01*
X13250348Y-10154484D02*
X13202729Y-10154484D01*
X13202729Y-10154484D02*
X13183682Y-10144960D01*
X13183682Y-10144960D02*
X13174158Y-10135436D01*
X13364634Y-9954484D02*
X13364634Y-9992579D01*
X13440825Y-9954484D02*
X13440825Y-9992579D01*
X13736063Y-10230674D02*
X13726539Y-10221150D01*
X13726539Y-10221150D02*
X13707491Y-10192579D01*
X13707491Y-10192579D02*
X13697968Y-10173531D01*
X13697968Y-10173531D02*
X13688444Y-10144960D01*
X13688444Y-10144960D02*
X13678920Y-10097341D01*
X13678920Y-10097341D02*
X13678920Y-10059246D01*
X13678920Y-10059246D02*
X13688444Y-10011627D01*
X13688444Y-10011627D02*
X13697968Y-9983055D01*
X13697968Y-9983055D02*
X13707491Y-9964008D01*
X13707491Y-9964008D02*
X13726539Y-9935436D01*
X13726539Y-9935436D02*
X13736063Y-9925912D01*
X13840825Y-10040198D02*
X13821777Y-10030674D01*
X13821777Y-10030674D02*
X13812253Y-10021150D01*
X13812253Y-10021150D02*
X13802729Y-10002103D01*
X13802729Y-10002103D02*
X13802729Y-9992579D01*
X13802729Y-9992579D02*
X13812253Y-9973531D01*
X13812253Y-9973531D02*
X13821777Y-9964008D01*
X13821777Y-9964008D02*
X13840825Y-9954484D01*
X13840825Y-9954484D02*
X13878920Y-9954484D01*
X13878920Y-9954484D02*
X13897968Y-9964008D01*
X13897968Y-9964008D02*
X13907491Y-9973531D01*
X13907491Y-9973531D02*
X13917015Y-9992579D01*
X13917015Y-9992579D02*
X13917015Y-10002103D01*
X13917015Y-10002103D02*
X13907491Y-10021150D01*
X13907491Y-10021150D02*
X13897968Y-10030674D01*
X13897968Y-10030674D02*
X13878920Y-10040198D01*
X13878920Y-10040198D02*
X13840825Y-10040198D01*
X13840825Y-10040198D02*
X13821777Y-10049722D01*
X13821777Y-10049722D02*
X13812253Y-10059246D01*
X13812253Y-10059246D02*
X13802729Y-10078293D01*
X13802729Y-10078293D02*
X13802729Y-10116389D01*
X13802729Y-10116389D02*
X13812253Y-10135436D01*
X13812253Y-10135436D02*
X13821777Y-10144960D01*
X13821777Y-10144960D02*
X13840825Y-10154484D01*
X13840825Y-10154484D02*
X13878920Y-10154484D01*
X13878920Y-10154484D02*
X13897968Y-10144960D01*
X13897968Y-10144960D02*
X13907491Y-10135436D01*
X13907491Y-10135436D02*
X13917015Y-10116389D01*
X13917015Y-10116389D02*
X13917015Y-10078293D01*
X13917015Y-10078293D02*
X13907491Y-10059246D01*
X13907491Y-10059246D02*
X13897968Y-10049722D01*
X13897968Y-10049722D02*
X13878920Y-10040198D01*
X14155110Y-10154484D02*
X14155110Y-9954484D01*
X14240825Y-10154484D02*
X14240825Y-10049722D01*
X14240825Y-10049722D02*
X14231301Y-10030674D01*
X14231301Y-10030674D02*
X14212253Y-10021150D01*
X14212253Y-10021150D02*
X14183682Y-10021150D01*
X14183682Y-10021150D02*
X14164634Y-10030674D01*
X14164634Y-10030674D02*
X14155110Y-10040198D01*
X14364634Y-10154484D02*
X14345587Y-10144960D01*
X14345587Y-10144960D02*
X14336063Y-10135436D01*
X14336063Y-10135436D02*
X14326539Y-10116389D01*
X14326539Y-10116389D02*
X14326539Y-10059246D01*
X14326539Y-10059246D02*
X14336063Y-10040198D01*
X14336063Y-10040198D02*
X14345587Y-10030674D01*
X14345587Y-10030674D02*
X14364634Y-10021150D01*
X14364634Y-10021150D02*
X14393206Y-10021150D01*
X14393206Y-10021150D02*
X14412253Y-10030674D01*
X14412253Y-10030674D02*
X14421777Y-10040198D01*
X14421777Y-10040198D02*
X14431301Y-10059246D01*
X14431301Y-10059246D02*
X14431301Y-10116389D01*
X14431301Y-10116389D02*
X14421777Y-10135436D01*
X14421777Y-10135436D02*
X14412253Y-10144960D01*
X14412253Y-10144960D02*
X14393206Y-10154484D01*
X14393206Y-10154484D02*
X14364634Y-10154484D01*
X14545587Y-10154484D02*
X14526539Y-10144960D01*
X14526539Y-10144960D02*
X14517015Y-10125912D01*
X14517015Y-10125912D02*
X14517015Y-9954484D01*
X14697968Y-10144960D02*
X14678920Y-10154484D01*
X14678920Y-10154484D02*
X14640825Y-10154484D01*
X14640825Y-10154484D02*
X14621777Y-10144960D01*
X14621777Y-10144960D02*
X14612253Y-10125912D01*
X14612253Y-10125912D02*
X14612253Y-10049722D01*
X14612253Y-10049722D02*
X14621777Y-10030674D01*
X14621777Y-10030674D02*
X14640825Y-10021150D01*
X14640825Y-10021150D02*
X14678920Y-10021150D01*
X14678920Y-10021150D02*
X14697968Y-10030674D01*
X14697968Y-10030674D02*
X14707491Y-10049722D01*
X14707491Y-10049722D02*
X14707491Y-10068770D01*
X14707491Y-10068770D02*
X14612253Y-10087817D01*
X14783682Y-10144960D02*
X14802730Y-10154484D01*
X14802730Y-10154484D02*
X14840825Y-10154484D01*
X14840825Y-10154484D02*
X14859872Y-10144960D01*
X14859872Y-10144960D02*
X14869396Y-10125912D01*
X14869396Y-10125912D02*
X14869396Y-10116389D01*
X14869396Y-10116389D02*
X14859872Y-10097341D01*
X14859872Y-10097341D02*
X14840825Y-10087817D01*
X14840825Y-10087817D02*
X14812253Y-10087817D01*
X14812253Y-10087817D02*
X14793206Y-10078293D01*
X14793206Y-10078293D02*
X14783682Y-10059246D01*
X14783682Y-10059246D02*
X14783682Y-10049722D01*
X14783682Y-10049722D02*
X14793206Y-10030674D01*
X14793206Y-10030674D02*
X14812253Y-10021150D01*
X14812253Y-10021150D02*
X14840825Y-10021150D01*
X14840825Y-10021150D02*
X14859872Y-10030674D01*
X14936063Y-10230674D02*
X14945587Y-10221150D01*
X14945587Y-10221150D02*
X14964634Y-10192579D01*
X14964634Y-10192579D02*
X14974158Y-10173531D01*
X14974158Y-10173531D02*
X14983682Y-10144960D01*
X14983682Y-10144960D02*
X14993206Y-10097341D01*
X14993206Y-10097341D02*
X14993206Y-10059246D01*
X14993206Y-10059246D02*
X14983682Y-10011627D01*
X14983682Y-10011627D02*
X14974158Y-9983055D01*
X14974158Y-9983055D02*
X14964634Y-9964008D01*
X14964634Y-9964008D02*
X14945587Y-9935436D01*
X14945587Y-9935436D02*
X14936063Y-9925912D01*
D10*
X10146356Y-10362356D02*
X10146356Y-10291644D01*
X10075644Y-10291644D01*
X10075644Y-10362356D01*
X10146356Y-10362356D01*
D11*
X10526539Y-10418484D02*
X10412253Y-10418484D01*
X10469396Y-10418484D02*
X10469396Y-10218484D01*
X10469396Y-10218484D02*
X10450348Y-10247055D01*
X10450348Y-10247055D02*
X10431301Y-10266103D01*
X10431301Y-10266103D02*
X10412253Y-10275627D01*
X10612253Y-10399436D02*
X10621777Y-10408960D01*
X10621777Y-10408960D02*
X10612253Y-10418484D01*
X10612253Y-10418484D02*
X10602729Y-10408960D01*
X10602729Y-10408960D02*
X10612253Y-10399436D01*
X10612253Y-10399436D02*
X10612253Y-10418484D01*
X10745586Y-10218484D02*
X10764634Y-10218484D01*
X10764634Y-10218484D02*
X10783682Y-10228008D01*
X10783682Y-10228008D02*
X10793205Y-10237531D01*
X10793205Y-10237531D02*
X10802729Y-10256579D01*
X10802729Y-10256579D02*
X10812253Y-10294674D01*
X10812253Y-10294674D02*
X10812253Y-10342293D01*
X10812253Y-10342293D02*
X10802729Y-10380389D01*
X10802729Y-10380389D02*
X10793205Y-10399436D01*
X10793205Y-10399436D02*
X10783682Y-10408960D01*
X10783682Y-10408960D02*
X10764634Y-10418484D01*
X10764634Y-10418484D02*
X10745586Y-10418484D01*
X10745586Y-10418484D02*
X10726539Y-10408960D01*
X10726539Y-10408960D02*
X10717015Y-10399436D01*
X10717015Y-10399436D02*
X10707491Y-10380389D01*
X10707491Y-10380389D02*
X10697967Y-10342293D01*
X10697967Y-10342293D02*
X10697967Y-10294674D01*
X10697967Y-10294674D02*
X10707491Y-10256579D01*
X10707491Y-10256579D02*
X10717015Y-10237531D01*
X10717015Y-10237531D02*
X10726539Y-10228008D01*
X10726539Y-10228008D02*
X10745586Y-10218484D01*
X10936063Y-10218484D02*
X10955110Y-10218484D01*
X10955110Y-10218484D02*
X10974158Y-10228008D01*
X10974158Y-10228008D02*
X10983682Y-10237531D01*
X10983682Y-10237531D02*
X10993205Y-10256579D01*
X10993205Y-10256579D02*
X11002729Y-10294674D01*
X11002729Y-10294674D02*
X11002729Y-10342293D01*
X11002729Y-10342293D02*
X10993205Y-10380389D01*
X10993205Y-10380389D02*
X10983682Y-10399436D01*
X10983682Y-10399436D02*
X10974158Y-10408960D01*
X10974158Y-10408960D02*
X10955110Y-10418484D01*
X10955110Y-10418484D02*
X10936063Y-10418484D01*
X10936063Y-10418484D02*
X10917015Y-10408960D01*
X10917015Y-10408960D02*
X10907491Y-10399436D01*
X10907491Y-10399436D02*
X10897967Y-10380389D01*
X10897967Y-10380389D02*
X10888444Y-10342293D01*
X10888444Y-10342293D02*
X10888444Y-10294674D01*
X10888444Y-10294674D02*
X10897967Y-10256579D01*
X10897967Y-10256579D02*
X10907491Y-10237531D01*
X10907491Y-10237531D02*
X10917015Y-10228008D01*
X10917015Y-10228008D02*
X10936063Y-10218484D01*
X11126539Y-10218484D02*
X11145586Y-10218484D01*
X11145586Y-10218484D02*
X11164634Y-10228008D01*
X11164634Y-10228008D02*
X11174158Y-10237531D01*
X11174158Y-10237531D02*
X11183682Y-10256579D01*
X11183682Y-10256579D02*
X11193205Y-10294674D01*
X11193205Y-10294674D02*
X11193205Y-10342293D01*
X11193205Y-10342293D02*
X11183682Y-10380389D01*
X11183682Y-10380389D02*
X11174158Y-10399436D01*
X11174158Y-10399436D02*
X11164634Y-10408960D01*
X11164634Y-10408960D02*
X11145586Y-10418484D01*
X11145586Y-10418484D02*
X11126539Y-10418484D01*
X11126539Y-10418484D02*
X11107491Y-10408960D01*
X11107491Y-10408960D02*
X11097967Y-10399436D01*
X11097967Y-10399436D02*
X11088444Y-10380389D01*
X11088444Y-10380389D02*
X11078920Y-10342293D01*
X11078920Y-10342293D02*
X11078920Y-10294674D01*
X11078920Y-10294674D02*
X11088444Y-10256579D01*
X11088444Y-10256579D02*
X11097967Y-10237531D01*
X11097967Y-10237531D02*
X11107491Y-10228008D01*
X11107491Y-10228008D02*
X11126539Y-10218484D01*
X11278920Y-10418484D02*
X11278920Y-10285150D01*
X11278920Y-10304198D02*
X11288443Y-10294674D01*
X11288443Y-10294674D02*
X11307491Y-10285150D01*
X11307491Y-10285150D02*
X11336063Y-10285150D01*
X11336063Y-10285150D02*
X11355110Y-10294674D01*
X11355110Y-10294674D02*
X11364634Y-10313722D01*
X11364634Y-10313722D02*
X11364634Y-10418484D01*
X11364634Y-10313722D02*
X11374158Y-10294674D01*
X11374158Y-10294674D02*
X11393205Y-10285150D01*
X11393205Y-10285150D02*
X11421777Y-10285150D01*
X11421777Y-10285150D02*
X11440824Y-10294674D01*
X11440824Y-10294674D02*
X11450348Y-10313722D01*
X11450348Y-10313722D02*
X11450348Y-10418484D01*
X11545586Y-10418484D02*
X11545586Y-10285150D01*
X11545586Y-10304198D02*
X11555110Y-10294674D01*
X11555110Y-10294674D02*
X11574158Y-10285150D01*
X11574158Y-10285150D02*
X11602729Y-10285150D01*
X11602729Y-10285150D02*
X11621777Y-10294674D01*
X11621777Y-10294674D02*
X11631301Y-10313722D01*
X11631301Y-10313722D02*
X11631301Y-10418484D01*
X11631301Y-10313722D02*
X11640824Y-10294674D01*
X11640824Y-10294674D02*
X11659872Y-10285150D01*
X11659872Y-10285150D02*
X11688443Y-10285150D01*
X11688443Y-10285150D02*
X11707491Y-10294674D01*
X11707491Y-10294674D02*
X11717015Y-10313722D01*
X11717015Y-10313722D02*
X11717015Y-10418484D01*
X12107491Y-10208960D02*
X11936063Y-10466103D01*
X12364634Y-10218484D02*
X12383682Y-10218484D01*
X12383682Y-10218484D02*
X12402729Y-10228008D01*
X12402729Y-10228008D02*
X12412253Y-10237531D01*
X12412253Y-10237531D02*
X12421777Y-10256579D01*
X12421777Y-10256579D02*
X12431301Y-10294674D01*
X12431301Y-10294674D02*
X12431301Y-10342293D01*
X12431301Y-10342293D02*
X12421777Y-10380389D01*
X12421777Y-10380389D02*
X12412253Y-10399436D01*
X12412253Y-10399436D02*
X12402729Y-10408960D01*
X12402729Y-10408960D02*
X12383682Y-10418484D01*
X12383682Y-10418484D02*
X12364634Y-10418484D01*
X12364634Y-10418484D02*
X12345586Y-10408960D01*
X12345586Y-10408960D02*
X12336063Y-10399436D01*
X12336063Y-10399436D02*
X12326539Y-10380389D01*
X12326539Y-10380389D02*
X12317015Y-10342293D01*
X12317015Y-10342293D02*
X12317015Y-10294674D01*
X12317015Y-10294674D02*
X12326539Y-10256579D01*
X12326539Y-10256579D02*
X12336063Y-10237531D01*
X12336063Y-10237531D02*
X12345586Y-10228008D01*
X12345586Y-10228008D02*
X12364634Y-10218484D01*
X12517015Y-10399436D02*
X12526539Y-10408960D01*
X12526539Y-10408960D02*
X12517015Y-10418484D01*
X12517015Y-10418484D02*
X12507491Y-10408960D01*
X12507491Y-10408960D02*
X12517015Y-10399436D01*
X12517015Y-10399436D02*
X12517015Y-10418484D01*
X12650348Y-10218484D02*
X12669396Y-10218484D01*
X12669396Y-10218484D02*
X12688444Y-10228008D01*
X12688444Y-10228008D02*
X12697967Y-10237531D01*
X12697967Y-10237531D02*
X12707491Y-10256579D01*
X12707491Y-10256579D02*
X12717015Y-10294674D01*
X12717015Y-10294674D02*
X12717015Y-10342293D01*
X12717015Y-10342293D02*
X12707491Y-10380389D01*
X12707491Y-10380389D02*
X12697967Y-10399436D01*
X12697967Y-10399436D02*
X12688444Y-10408960D01*
X12688444Y-10408960D02*
X12669396Y-10418484D01*
X12669396Y-10418484D02*
X12650348Y-10418484D01*
X12650348Y-10418484D02*
X12631301Y-10408960D01*
X12631301Y-10408960D02*
X12621777Y-10399436D01*
X12621777Y-10399436D02*
X12612253Y-10380389D01*
X12612253Y-10380389D02*
X12602729Y-10342293D01*
X12602729Y-10342293D02*
X12602729Y-10294674D01*
X12602729Y-10294674D02*
X12612253Y-10256579D01*
X12612253Y-10256579D02*
X12621777Y-10237531D01*
X12621777Y-10237531D02*
X12631301Y-10228008D01*
X12631301Y-10228008D02*
X12650348Y-10218484D01*
X12783682Y-10218484D02*
X12907491Y-10218484D01*
X12907491Y-10218484D02*
X12840825Y-10294674D01*
X12840825Y-10294674D02*
X12869396Y-10294674D01*
X12869396Y-10294674D02*
X12888444Y-10304198D01*
X12888444Y-10304198D02*
X12897967Y-10313722D01*
X12897967Y-10313722D02*
X12907491Y-10332770D01*
X12907491Y-10332770D02*
X12907491Y-10380389D01*
X12907491Y-10380389D02*
X12897967Y-10399436D01*
X12897967Y-10399436D02*
X12888444Y-10408960D01*
X12888444Y-10408960D02*
X12869396Y-10418484D01*
X12869396Y-10418484D02*
X12812253Y-10418484D01*
X12812253Y-10418484D02*
X12793206Y-10408960D01*
X12793206Y-10408960D02*
X12783682Y-10399436D01*
X13002729Y-10418484D02*
X13040825Y-10418484D01*
X13040825Y-10418484D02*
X13059872Y-10408960D01*
X13059872Y-10408960D02*
X13069396Y-10399436D01*
X13069396Y-10399436D02*
X13088444Y-10370865D01*
X13088444Y-10370865D02*
X13097967Y-10332770D01*
X13097967Y-10332770D02*
X13097967Y-10256579D01*
X13097967Y-10256579D02*
X13088444Y-10237531D01*
X13088444Y-10237531D02*
X13078920Y-10228008D01*
X13078920Y-10228008D02*
X13059872Y-10218484D01*
X13059872Y-10218484D02*
X13021777Y-10218484D01*
X13021777Y-10218484D02*
X13002729Y-10228008D01*
X13002729Y-10228008D02*
X12993206Y-10237531D01*
X12993206Y-10237531D02*
X12983682Y-10256579D01*
X12983682Y-10256579D02*
X12983682Y-10304198D01*
X12983682Y-10304198D02*
X12993206Y-10323246D01*
X12993206Y-10323246D02*
X13002729Y-10332770D01*
X13002729Y-10332770D02*
X13021777Y-10342293D01*
X13021777Y-10342293D02*
X13059872Y-10342293D01*
X13059872Y-10342293D02*
X13078920Y-10332770D01*
X13078920Y-10332770D02*
X13088444Y-10323246D01*
X13088444Y-10323246D02*
X13097967Y-10304198D01*
X13269396Y-10285150D02*
X13269396Y-10418484D01*
X13221777Y-10208960D02*
X13174158Y-10351817D01*
X13174158Y-10351817D02*
X13297967Y-10351817D01*
X13364634Y-10218484D02*
X13364634Y-10256579D01*
X13440825Y-10218484D02*
X13440825Y-10256579D01*
X13736063Y-10494674D02*
X13726539Y-10485150D01*
X13726539Y-10485150D02*
X13707491Y-10456579D01*
X13707491Y-10456579D02*
X13697968Y-10437531D01*
X13697968Y-10437531D02*
X13688444Y-10408960D01*
X13688444Y-10408960D02*
X13678920Y-10361341D01*
X13678920Y-10361341D02*
X13678920Y-10323246D01*
X13678920Y-10323246D02*
X13688444Y-10275627D01*
X13688444Y-10275627D02*
X13697968Y-10247055D01*
X13697968Y-10247055D02*
X13707491Y-10228008D01*
X13707491Y-10228008D02*
X13726539Y-10199436D01*
X13726539Y-10199436D02*
X13736063Y-10189912D01*
X13802729Y-10237531D02*
X13812253Y-10228008D01*
X13812253Y-10228008D02*
X13831301Y-10218484D01*
X13831301Y-10218484D02*
X13878920Y-10218484D01*
X13878920Y-10218484D02*
X13897968Y-10228008D01*
X13897968Y-10228008D02*
X13907491Y-10237531D01*
X13907491Y-10237531D02*
X13917015Y-10256579D01*
X13917015Y-10256579D02*
X13917015Y-10275627D01*
X13917015Y-10275627D02*
X13907491Y-10304198D01*
X13907491Y-10304198D02*
X13793206Y-10418484D01*
X13793206Y-10418484D02*
X13917015Y-10418484D01*
X14155110Y-10418484D02*
X14155110Y-10218484D01*
X14240825Y-10418484D02*
X14240825Y-10313722D01*
X14240825Y-10313722D02*
X14231301Y-10294674D01*
X14231301Y-10294674D02*
X14212253Y-10285150D01*
X14212253Y-10285150D02*
X14183682Y-10285150D01*
X14183682Y-10285150D02*
X14164634Y-10294674D01*
X14164634Y-10294674D02*
X14155110Y-10304198D01*
X14364634Y-10418484D02*
X14345587Y-10408960D01*
X14345587Y-10408960D02*
X14336063Y-10399436D01*
X14336063Y-10399436D02*
X14326539Y-10380389D01*
X14326539Y-10380389D02*
X14326539Y-10323246D01*
X14326539Y-10323246D02*
X14336063Y-10304198D01*
X14336063Y-10304198D02*
X14345587Y-10294674D01*
X14345587Y-10294674D02*
X14364634Y-10285150D01*
X14364634Y-10285150D02*
X14393206Y-10285150D01*
X14393206Y-10285150D02*
X14412253Y-10294674D01*
X14412253Y-10294674D02*
X14421777Y-10304198D01*
X14421777Y-10304198D02*
X14431301Y-10323246D01*
X14431301Y-10323246D02*
X14431301Y-10380389D01*
X14431301Y-10380389D02*
X14421777Y-10399436D01*
X14421777Y-10399436D02*
X14412253Y-10408960D01*
X14412253Y-10408960D02*
X14393206Y-10418484D01*
X14393206Y-10418484D02*
X14364634Y-10418484D01*
X14545587Y-10418484D02*
X14526539Y-10408960D01*
X14526539Y-10408960D02*
X14517015Y-10389912D01*
X14517015Y-10389912D02*
X14517015Y-10218484D01*
X14697968Y-10408960D02*
X14678920Y-10418484D01*
X14678920Y-10418484D02*
X14640825Y-10418484D01*
X14640825Y-10418484D02*
X14621777Y-10408960D01*
X14621777Y-10408960D02*
X14612253Y-10389912D01*
X14612253Y-10389912D02*
X14612253Y-10313722D01*
X14612253Y-10313722D02*
X14621777Y-10294674D01*
X14621777Y-10294674D02*
X14640825Y-10285150D01*
X14640825Y-10285150D02*
X14678920Y-10285150D01*
X14678920Y-10285150D02*
X14697968Y-10294674D01*
X14697968Y-10294674D02*
X14707491Y-10313722D01*
X14707491Y-10313722D02*
X14707491Y-10332770D01*
X14707491Y-10332770D02*
X14612253Y-10351817D01*
X14783682Y-10408960D02*
X14802730Y-10418484D01*
X14802730Y-10418484D02*
X14840825Y-10418484D01*
X14840825Y-10418484D02*
X14859872Y-10408960D01*
X14859872Y-10408960D02*
X14869396Y-10389912D01*
X14869396Y-10389912D02*
X14869396Y-10380389D01*
X14869396Y-10380389D02*
X14859872Y-10361341D01*
X14859872Y-10361341D02*
X14840825Y-10351817D01*
X14840825Y-10351817D02*
X14812253Y-10351817D01*
X14812253Y-10351817D02*
X14793206Y-10342293D01*
X14793206Y-10342293D02*
X14783682Y-10323246D01*
X14783682Y-10323246D02*
X14783682Y-10313722D01*
X14783682Y-10313722D02*
X14793206Y-10294674D01*
X14793206Y-10294674D02*
X14812253Y-10285150D01*
X14812253Y-10285150D02*
X14840825Y-10285150D01*
X14840825Y-10285150D02*
X14859872Y-10294674D01*
X14936063Y-10494674D02*
X14945587Y-10485150D01*
X14945587Y-10485150D02*
X14964634Y-10456579D01*
X14964634Y-10456579D02*
X14974158Y-10437531D01*
X14974158Y-10437531D02*
X14983682Y-10408960D01*
X14983682Y-10408960D02*
X14993206Y-10361341D01*
X14993206Y-10361341D02*
X14993206Y-10323246D01*
X14993206Y-10323246D02*
X14983682Y-10275627D01*
X14983682Y-10275627D02*
X14974158Y-10247055D01*
X14974158Y-10247055D02*
X14964634Y-10228008D01*
X14964634Y-10228008D02*
X14945587Y-10199436D01*
X14945587Y-10199436D02*
X14936063Y-10189912D01*
D15*
X10085000Y-10667000D02*
X10161000Y-10591000D01*
X10085000Y-10515000D01*
X10009000Y-10591000D01*
X10085000Y-10667000D01*
D11*
X10526539Y-10682484D02*
X10412253Y-10682484D01*
X10469396Y-10682484D02*
X10469396Y-10482484D01*
X10469396Y-10482484D02*
X10450348Y-10511055D01*
X10450348Y-10511055D02*
X10431301Y-10530103D01*
X10431301Y-10530103D02*
X10412253Y-10539627D01*
X10612253Y-10663436D02*
X10621777Y-10672960D01*
X10621777Y-10672960D02*
X10612253Y-10682484D01*
X10612253Y-10682484D02*
X10602729Y-10672960D01*
X10602729Y-10672960D02*
X10612253Y-10663436D01*
X10612253Y-10663436D02*
X10612253Y-10682484D01*
X10802729Y-10482484D02*
X10707491Y-10482484D01*
X10707491Y-10482484D02*
X10697967Y-10577722D01*
X10697967Y-10577722D02*
X10707491Y-10568198D01*
X10707491Y-10568198D02*
X10726539Y-10558674D01*
X10726539Y-10558674D02*
X10774158Y-10558674D01*
X10774158Y-10558674D02*
X10793205Y-10568198D01*
X10793205Y-10568198D02*
X10802729Y-10577722D01*
X10802729Y-10577722D02*
X10812253Y-10596770D01*
X10812253Y-10596770D02*
X10812253Y-10644389D01*
X10812253Y-10644389D02*
X10802729Y-10663436D01*
X10802729Y-10663436D02*
X10793205Y-10672960D01*
X10793205Y-10672960D02*
X10774158Y-10682484D01*
X10774158Y-10682484D02*
X10726539Y-10682484D01*
X10726539Y-10682484D02*
X10707491Y-10672960D01*
X10707491Y-10672960D02*
X10697967Y-10663436D01*
X10888444Y-10501531D02*
X10897967Y-10492008D01*
X10897967Y-10492008D02*
X10917015Y-10482484D01*
X10917015Y-10482484D02*
X10964634Y-10482484D01*
X10964634Y-10482484D02*
X10983682Y-10492008D01*
X10983682Y-10492008D02*
X10993205Y-10501531D01*
X10993205Y-10501531D02*
X11002729Y-10520579D01*
X11002729Y-10520579D02*
X11002729Y-10539627D01*
X11002729Y-10539627D02*
X10993205Y-10568198D01*
X10993205Y-10568198D02*
X10878920Y-10682484D01*
X10878920Y-10682484D02*
X11002729Y-10682484D01*
X11126539Y-10482484D02*
X11145586Y-10482484D01*
X11145586Y-10482484D02*
X11164634Y-10492008D01*
X11164634Y-10492008D02*
X11174158Y-10501531D01*
X11174158Y-10501531D02*
X11183682Y-10520579D01*
X11183682Y-10520579D02*
X11193205Y-10558674D01*
X11193205Y-10558674D02*
X11193205Y-10606293D01*
X11193205Y-10606293D02*
X11183682Y-10644389D01*
X11183682Y-10644389D02*
X11174158Y-10663436D01*
X11174158Y-10663436D02*
X11164634Y-10672960D01*
X11164634Y-10672960D02*
X11145586Y-10682484D01*
X11145586Y-10682484D02*
X11126539Y-10682484D01*
X11126539Y-10682484D02*
X11107491Y-10672960D01*
X11107491Y-10672960D02*
X11097967Y-10663436D01*
X11097967Y-10663436D02*
X11088444Y-10644389D01*
X11088444Y-10644389D02*
X11078920Y-10606293D01*
X11078920Y-10606293D02*
X11078920Y-10558674D01*
X11078920Y-10558674D02*
X11088444Y-10520579D01*
X11088444Y-10520579D02*
X11097967Y-10501531D01*
X11097967Y-10501531D02*
X11107491Y-10492008D01*
X11107491Y-10492008D02*
X11126539Y-10482484D01*
X11278920Y-10682484D02*
X11278920Y-10549150D01*
X11278920Y-10568198D02*
X11288443Y-10558674D01*
X11288443Y-10558674D02*
X11307491Y-10549150D01*
X11307491Y-10549150D02*
X11336063Y-10549150D01*
X11336063Y-10549150D02*
X11355110Y-10558674D01*
X11355110Y-10558674D02*
X11364634Y-10577722D01*
X11364634Y-10577722D02*
X11364634Y-10682484D01*
X11364634Y-10577722D02*
X11374158Y-10558674D01*
X11374158Y-10558674D02*
X11393205Y-10549150D01*
X11393205Y-10549150D02*
X11421777Y-10549150D01*
X11421777Y-10549150D02*
X11440824Y-10558674D01*
X11440824Y-10558674D02*
X11450348Y-10577722D01*
X11450348Y-10577722D02*
X11450348Y-10682484D01*
X11545586Y-10682484D02*
X11545586Y-10549150D01*
X11545586Y-10568198D02*
X11555110Y-10558674D01*
X11555110Y-10558674D02*
X11574158Y-10549150D01*
X11574158Y-10549150D02*
X11602729Y-10549150D01*
X11602729Y-10549150D02*
X11621777Y-10558674D01*
X11621777Y-10558674D02*
X11631301Y-10577722D01*
X11631301Y-10577722D02*
X11631301Y-10682484D01*
X11631301Y-10577722D02*
X11640824Y-10558674D01*
X11640824Y-10558674D02*
X11659872Y-10549150D01*
X11659872Y-10549150D02*
X11688443Y-10549150D01*
X11688443Y-10549150D02*
X11707491Y-10558674D01*
X11707491Y-10558674D02*
X11717015Y-10577722D01*
X11717015Y-10577722D02*
X11717015Y-10682484D01*
X12107491Y-10472960D02*
X11936063Y-10730103D01*
X12364634Y-10482484D02*
X12383682Y-10482484D01*
X12383682Y-10482484D02*
X12402729Y-10492008D01*
X12402729Y-10492008D02*
X12412253Y-10501531D01*
X12412253Y-10501531D02*
X12421777Y-10520579D01*
X12421777Y-10520579D02*
X12431301Y-10558674D01*
X12431301Y-10558674D02*
X12431301Y-10606293D01*
X12431301Y-10606293D02*
X12421777Y-10644389D01*
X12421777Y-10644389D02*
X12412253Y-10663436D01*
X12412253Y-10663436D02*
X12402729Y-10672960D01*
X12402729Y-10672960D02*
X12383682Y-10682484D01*
X12383682Y-10682484D02*
X12364634Y-10682484D01*
X12364634Y-10682484D02*
X12345586Y-10672960D01*
X12345586Y-10672960D02*
X12336063Y-10663436D01*
X12336063Y-10663436D02*
X12326539Y-10644389D01*
X12326539Y-10644389D02*
X12317015Y-10606293D01*
X12317015Y-10606293D02*
X12317015Y-10558674D01*
X12317015Y-10558674D02*
X12326539Y-10520579D01*
X12326539Y-10520579D02*
X12336063Y-10501531D01*
X12336063Y-10501531D02*
X12345586Y-10492008D01*
X12345586Y-10492008D02*
X12364634Y-10482484D01*
X12517015Y-10663436D02*
X12526539Y-10672960D01*
X12526539Y-10672960D02*
X12517015Y-10682484D01*
X12517015Y-10682484D02*
X12507491Y-10672960D01*
X12507491Y-10672960D02*
X12517015Y-10663436D01*
X12517015Y-10663436D02*
X12517015Y-10682484D01*
X12650348Y-10482484D02*
X12669396Y-10482484D01*
X12669396Y-10482484D02*
X12688444Y-10492008D01*
X12688444Y-10492008D02*
X12697967Y-10501531D01*
X12697967Y-10501531D02*
X12707491Y-10520579D01*
X12707491Y-10520579D02*
X12717015Y-10558674D01*
X12717015Y-10558674D02*
X12717015Y-10606293D01*
X12717015Y-10606293D02*
X12707491Y-10644389D01*
X12707491Y-10644389D02*
X12697967Y-10663436D01*
X12697967Y-10663436D02*
X12688444Y-10672960D01*
X12688444Y-10672960D02*
X12669396Y-10682484D01*
X12669396Y-10682484D02*
X12650348Y-10682484D01*
X12650348Y-10682484D02*
X12631301Y-10672960D01*
X12631301Y-10672960D02*
X12621777Y-10663436D01*
X12621777Y-10663436D02*
X12612253Y-10644389D01*
X12612253Y-10644389D02*
X12602729Y-10606293D01*
X12602729Y-10606293D02*
X12602729Y-10558674D01*
X12602729Y-10558674D02*
X12612253Y-10520579D01*
X12612253Y-10520579D02*
X12621777Y-10501531D01*
X12621777Y-10501531D02*
X12631301Y-10492008D01*
X12631301Y-10492008D02*
X12650348Y-10482484D01*
X12897967Y-10482484D02*
X12802729Y-10482484D01*
X12802729Y-10482484D02*
X12793206Y-10577722D01*
X12793206Y-10577722D02*
X12802729Y-10568198D01*
X12802729Y-10568198D02*
X12821777Y-10558674D01*
X12821777Y-10558674D02*
X12869396Y-10558674D01*
X12869396Y-10558674D02*
X12888444Y-10568198D01*
X12888444Y-10568198D02*
X12897967Y-10577722D01*
X12897967Y-10577722D02*
X12907491Y-10596770D01*
X12907491Y-10596770D02*
X12907491Y-10644389D01*
X12907491Y-10644389D02*
X12897967Y-10663436D01*
X12897967Y-10663436D02*
X12888444Y-10672960D01*
X12888444Y-10672960D02*
X12869396Y-10682484D01*
X12869396Y-10682484D02*
X12821777Y-10682484D01*
X12821777Y-10682484D02*
X12802729Y-10672960D01*
X12802729Y-10672960D02*
X12793206Y-10663436D01*
X13002729Y-10682484D02*
X13040825Y-10682484D01*
X13040825Y-10682484D02*
X13059872Y-10672960D01*
X13059872Y-10672960D02*
X13069396Y-10663436D01*
X13069396Y-10663436D02*
X13088444Y-10634865D01*
X13088444Y-10634865D02*
X13097967Y-10596770D01*
X13097967Y-10596770D02*
X13097967Y-10520579D01*
X13097967Y-10520579D02*
X13088444Y-10501531D01*
X13088444Y-10501531D02*
X13078920Y-10492008D01*
X13078920Y-10492008D02*
X13059872Y-10482484D01*
X13059872Y-10482484D02*
X13021777Y-10482484D01*
X13021777Y-10482484D02*
X13002729Y-10492008D01*
X13002729Y-10492008D02*
X12993206Y-10501531D01*
X12993206Y-10501531D02*
X12983682Y-10520579D01*
X12983682Y-10520579D02*
X12983682Y-10568198D01*
X12983682Y-10568198D02*
X12993206Y-10587246D01*
X12993206Y-10587246D02*
X13002729Y-10596770D01*
X13002729Y-10596770D02*
X13021777Y-10606293D01*
X13021777Y-10606293D02*
X13059872Y-10606293D01*
X13059872Y-10606293D02*
X13078920Y-10596770D01*
X13078920Y-10596770D02*
X13088444Y-10587246D01*
X13088444Y-10587246D02*
X13097967Y-10568198D01*
X13212253Y-10568198D02*
X13193206Y-10558674D01*
X13193206Y-10558674D02*
X13183682Y-10549150D01*
X13183682Y-10549150D02*
X13174158Y-10530103D01*
X13174158Y-10530103D02*
X13174158Y-10520579D01*
X13174158Y-10520579D02*
X13183682Y-10501531D01*
X13183682Y-10501531D02*
X13193206Y-10492008D01*
X13193206Y-10492008D02*
X13212253Y-10482484D01*
X13212253Y-10482484D02*
X13250348Y-10482484D01*
X13250348Y-10482484D02*
X13269396Y-10492008D01*
X13269396Y-10492008D02*
X13278920Y-10501531D01*
X13278920Y-10501531D02*
X13288444Y-10520579D01*
X13288444Y-10520579D02*
X13288444Y-10530103D01*
X13288444Y-10530103D02*
X13278920Y-10549150D01*
X13278920Y-10549150D02*
X13269396Y-10558674D01*
X13269396Y-10558674D02*
X13250348Y-10568198D01*
X13250348Y-10568198D02*
X13212253Y-10568198D01*
X13212253Y-10568198D02*
X13193206Y-10577722D01*
X13193206Y-10577722D02*
X13183682Y-10587246D01*
X13183682Y-10587246D02*
X13174158Y-10606293D01*
X13174158Y-10606293D02*
X13174158Y-10644389D01*
X13174158Y-10644389D02*
X13183682Y-10663436D01*
X13183682Y-10663436D02*
X13193206Y-10672960D01*
X13193206Y-10672960D02*
X13212253Y-10682484D01*
X13212253Y-10682484D02*
X13250348Y-10682484D01*
X13250348Y-10682484D02*
X13269396Y-10672960D01*
X13269396Y-10672960D02*
X13278920Y-10663436D01*
X13278920Y-10663436D02*
X13288444Y-10644389D01*
X13288444Y-10644389D02*
X13288444Y-10606293D01*
X13288444Y-10606293D02*
X13278920Y-10587246D01*
X13278920Y-10587246D02*
X13269396Y-10577722D01*
X13269396Y-10577722D02*
X13250348Y-10568198D01*
X13364634Y-10482484D02*
X13364634Y-10520579D01*
X13440825Y-10482484D02*
X13440825Y-10520579D01*
X13736063Y-10758674D02*
X13726539Y-10749150D01*
X13726539Y-10749150D02*
X13707491Y-10720579D01*
X13707491Y-10720579D02*
X13697968Y-10701531D01*
X13697968Y-10701531D02*
X13688444Y-10672960D01*
X13688444Y-10672960D02*
X13678920Y-10625341D01*
X13678920Y-10625341D02*
X13678920Y-10587246D01*
X13678920Y-10587246D02*
X13688444Y-10539627D01*
X13688444Y-10539627D02*
X13697968Y-10511055D01*
X13697968Y-10511055D02*
X13707491Y-10492008D01*
X13707491Y-10492008D02*
X13726539Y-10463436D01*
X13726539Y-10463436D02*
X13736063Y-10453912D01*
X13802729Y-10501531D02*
X13812253Y-10492008D01*
X13812253Y-10492008D02*
X13831301Y-10482484D01*
X13831301Y-10482484D02*
X13878920Y-10482484D01*
X13878920Y-10482484D02*
X13897968Y-10492008D01*
X13897968Y-10492008D02*
X13907491Y-10501531D01*
X13907491Y-10501531D02*
X13917015Y-10520579D01*
X13917015Y-10520579D02*
X13917015Y-10539627D01*
X13917015Y-10539627D02*
X13907491Y-10568198D01*
X13907491Y-10568198D02*
X13793206Y-10682484D01*
X13793206Y-10682484D02*
X13917015Y-10682484D01*
X14155110Y-10682484D02*
X14155110Y-10482484D01*
X14240825Y-10682484D02*
X14240825Y-10577722D01*
X14240825Y-10577722D02*
X14231301Y-10558674D01*
X14231301Y-10558674D02*
X14212253Y-10549150D01*
X14212253Y-10549150D02*
X14183682Y-10549150D01*
X14183682Y-10549150D02*
X14164634Y-10558674D01*
X14164634Y-10558674D02*
X14155110Y-10568198D01*
X14364634Y-10682484D02*
X14345587Y-10672960D01*
X14345587Y-10672960D02*
X14336063Y-10663436D01*
X14336063Y-10663436D02*
X14326539Y-10644389D01*
X14326539Y-10644389D02*
X14326539Y-10587246D01*
X14326539Y-10587246D02*
X14336063Y-10568198D01*
X14336063Y-10568198D02*
X14345587Y-10558674D01*
X14345587Y-10558674D02*
X14364634Y-10549150D01*
X14364634Y-10549150D02*
X14393206Y-10549150D01*
X14393206Y-10549150D02*
X14412253Y-10558674D01*
X14412253Y-10558674D02*
X14421777Y-10568198D01*
X14421777Y-10568198D02*
X14431301Y-10587246D01*
X14431301Y-10587246D02*
X14431301Y-10644389D01*
X14431301Y-10644389D02*
X14421777Y-10663436D01*
X14421777Y-10663436D02*
X14412253Y-10672960D01*
X14412253Y-10672960D02*
X14393206Y-10682484D01*
X14393206Y-10682484D02*
X14364634Y-10682484D01*
X14545587Y-10682484D02*
X14526539Y-10672960D01*
X14526539Y-10672960D02*
X14517015Y-10653912D01*
X14517015Y-10653912D02*
X14517015Y-10482484D01*
X14697968Y-10672960D02*
X14678920Y-10682484D01*
X14678920Y-10682484D02*
X14640825Y-10682484D01*
X14640825Y-10682484D02*
X14621777Y-10672960D01*
X14621777Y-10672960D02*
X14612253Y-10653912D01*
X14612253Y-10653912D02*
X14612253Y-10577722D01*
X14612253Y-10577722D02*
X14621777Y-10558674D01*
X14621777Y-10558674D02*
X14640825Y-10549150D01*
X14640825Y-10549150D02*
X14678920Y-10549150D01*
X14678920Y-10549150D02*
X14697968Y-10558674D01*
X14697968Y-10558674D02*
X14707491Y-10577722D01*
X14707491Y-10577722D02*
X14707491Y-10596770D01*
X14707491Y-10596770D02*
X14612253Y-10615817D01*
X14783682Y-10672960D02*
X14802730Y-10682484D01*
X14802730Y-10682484D02*
X14840825Y-10682484D01*
X14840825Y-10682484D02*
X14859872Y-10672960D01*
X14859872Y-10672960D02*
X14869396Y-10653912D01*
X14869396Y-10653912D02*
X14869396Y-10644389D01*
X14869396Y-10644389D02*
X14859872Y-10625341D01*
X14859872Y-10625341D02*
X14840825Y-10615817D01*
X14840825Y-10615817D02*
X14812253Y-10615817D01*
X14812253Y-10615817D02*
X14793206Y-10606293D01*
X14793206Y-10606293D02*
X14783682Y-10587246D01*
X14783682Y-10587246D02*
X14783682Y-10577722D01*
X14783682Y-10577722D02*
X14793206Y-10558674D01*
X14793206Y-10558674D02*
X14812253Y-10549150D01*
X14812253Y-10549150D02*
X14840825Y-10549150D01*
X14840825Y-10549150D02*
X14859872Y-10558674D01*
X14936063Y-10758674D02*
X14945587Y-10749150D01*
X14945587Y-10749150D02*
X14964634Y-10720579D01*
X14964634Y-10720579D02*
X14974158Y-10701531D01*
X14974158Y-10701531D02*
X14983682Y-10672960D01*
X14983682Y-10672960D02*
X14993206Y-10625341D01*
X14993206Y-10625341D02*
X14993206Y-10587246D01*
X14993206Y-10587246D02*
X14983682Y-10539627D01*
X14983682Y-10539627D02*
X14974158Y-10511055D01*
X14974158Y-10511055D02*
X14964634Y-10492008D01*
X14964634Y-10492008D02*
X14945587Y-10463436D01*
X14945587Y-10463436D02*
X14936063Y-10453912D01*
M02*
