M48
; DRILL file {KiCad 7.0.5-0} date 2023 May 30, Tuesday 07:39:36
; FORMAT={-:-/ absolute / metric / decimal}
; #@! TF.CreationDate,2023-05-30T07:39:36+09:00
; #@! TF.GenerationSoftware,Kicad,Pcbnew,7.0.5-0
; #@! TF.FileFunction,Plated,1,2,PTH
FMAT,2
METRIC
; #@! TA.AperFunction,Plated,PTH,ViaDrill
T1C0.400
; #@! TA.AperFunction,Plated,PTH,ComponentDrill
T2C0.600
; #@! TA.AperFunction,Plated,PTH,ComponentDrill
T3C0.800
; #@! TA.AperFunction,Plated,PTH,ComponentDrill
T4C1.000
; #@! TA.AperFunction,Plated,PTH,ComponentDrill
T5C1.520
%
G90
G05
T1
X107.95Y-67.31
X107.95Y-69.85
X107.95Y-83.82
X107.95Y-86.36
X110.49Y-83.82
X110.49Y-86.36
X111.379Y-70.612
X111.379Y-72.009
X111.506Y-80.137
X111.566Y-73.66
X111.566Y-78.74
X112.836Y-75.184
X112.836Y-76.674
X112.836Y-78.645
X113.56Y-77.399
X113.665Y-86.995
X115.824Y-71.12
X116.205Y-86.995
X118.11Y-82.296
X118.618Y-80.645
X119.888Y-78.105
X123.317Y-81.153
X125.73Y-86.36
X126.365Y-75.692
X128.308Y-75.692
X128.905Y-68.58
X128.905Y-70.485
X129.032Y-73.025
X129.54Y-86.36
X131.699Y-76.962
X131.826Y-84.516
X133.35Y-86.36
X135.89Y-74.93
X135.89Y-76.2
X138.43Y-74.93
X138.43Y-76.2
X141.224Y-81.661
X143.891Y-81.788
X144.78Y-66.04
X147.32Y-66.04
X149.86Y-66.04
X152.4Y-66.04
X152.527Y-86.868
T3
X139.446Y-79.375
X139.446Y-86.995
X141.986Y-79.375
X141.986Y-86.995
X144.526Y-79.375
X144.526Y-86.995
X147.066Y-79.375
X147.066Y-86.995
T4
X148.391Y-68.834
X150.931Y-68.834
T5
X155.0Y-73.66
X155.0Y-78.74
T2
X104.974Y-71.88G85X104.374Y-71.88
G05
X104.974Y-80.52G85X104.374Y-80.52
G05
X109.404Y-71.88G85X108.304Y-71.88
G05
X109.404Y-80.52G85X108.304Y-80.52
G05
T0
M30
